<svg width="512" height="512" viewBox="0 0 512 512" fill="none" xmlns="http://www.w3.org/2000/svg">
<path d="M192.874 314.391C180.749 322.814 165.809 327.853 149.57 327.853C108.72 327.853 75.3035 295.459 75.3035 256.082C75.3035 216.273 108.72 183.879 149.57 183.879C165.809 183.879 180.821 188.918 192.946 197.413C200.092 178.696 210.557 161.419 223.692 146.374C202.257 133.489 176.852 126.074 149.57 126.074C73.4992 126.074 11.7186 183.951 11.7186 256.154C11.7186 327.925 73.427 385.73 149.57 385.73C176.852 385.73 202.257 378.315 223.62 365.43C235.673 358.231 246.499 349.233 255.593 338.939C266.491 326.557 275.008 312.304 280.493 296.682H210.773C205.865 303.593 199.875 309.568 192.874 314.391Z" fill="url(#paint0_linear_161_1390)"/>
<path d="M361.614 126C334.332 126 308.855 133.487 287.492 146.3C275.439 153.499 264.685 162.497 255.591 172.791C244.765 185.101 236.248 199.354 230.763 214.904H300.627C305.463 208.137 311.453 202.234 318.238 197.411C330.435 188.844 345.447 183.805 361.542 183.805C402.825 183.805 435.808 216.199 435.808 256.008C435.808 295.313 402.897 327.779 361.542 327.779C345.447 327.779 330.507 322.74 318.31 314.245C311.165 333.034 300.7 350.311 287.492 365.356C308.927 378.241 334.26 385.656 361.542 385.656C437.613 385.656 499.321 327.779 499.321 256.08C499.466 183.877 437.757 126 361.614 126Z" fill="url(#paint1_linear_161_1390)"/>
<path d="M144.445 224.405C127.051 224.405 112.905 238.514 112.905 255.863C112.905 273.212 127.051 287.321 144.445 287.321C156.931 287.321 167.757 280.05 172.881 269.54H338.375C343.499 280.05 354.253 287.321 366.811 287.321C384.205 287.321 398.351 273.212 398.351 255.863C398.351 238.514 384.205 224.405 366.811 224.405C354.325 224.405 343.499 231.675 338.375 242.185H172.881C167.757 231.675 156.931 224.405 144.445 224.405Z" fill="url(#paint2_linear_161_1390)"/>
<defs>
<linearGradient id="paint0_linear_161_1390" x1="65.2851" y1="355.74" x2="295.54" y2="81.6022" gradientUnits="userSpaceOnUse">
<stop stop-color="#ED1EB5"/>
<stop offset="1" stop-color="#00FFFF"/>
</linearGradient>
<linearGradient id="paint1_linear_161_1390" x1="189.365" y1="459.957" x2="419.62" y2="185.82" gradientUnits="userSpaceOnUse">
<stop stop-color="#ED1EB5"/>
<stop offset="1" stop-color="#00FFFF"/>
</linearGradient>
<linearGradient id="paint2_linear_161_1390" x1="127.293" y1="407.819" x2="357.548" y2="133.682" gradientUnits="userSpaceOnUse">
<stop stop-color="#ED1EB5"/>
<stop offset="1" stop-color="#00FFFF"/>
</linearGradient>
</defs>
</svg>
