<svg width="40" height="40" viewBox="0 0 40 40" fill="none" xmlns="http://www.w3.org/2000/svg">
<path d="M10.6667 1C9.19333 1 8 2.19333 8 3.66667V6.33333C8 7.80667 9.19333 9 10.6667 9C12.14 9 13.3333 7.80667 13.3333 6.33333V3.66667C13.3333 2.19333 12.14 1 10.6667 1Z" stroke="#43ACF0" stroke-width="2" stroke-linecap="round" stroke-linejoin="round"/>
<path d="M8.00002 10.3335L4.43169 11.6718C3.37002 12.0702 2.66669 13.0852 2.66669 14.2185V25.6668H5.33335" stroke="#43ACF0" stroke-width="2" stroke-linecap="round" stroke-linejoin="round"/>
<path d="M6 17.6665V38.9998" stroke="#43ACF0" stroke-width="2" stroke-linecap="round" stroke-linejoin="round"/>
<path d="M10.6667 29V39" stroke="#43ACF0" stroke-width="2" stroke-linecap="round" stroke-linejoin="round"/>
<path d="M10.6667 29V39" stroke="#43ACF0" stroke-width="2" stroke-linecap="round" stroke-linejoin="round"/>
<path d="M24.6667 29V39" stroke="#43ACF0" stroke-width="2" stroke-linecap="round" stroke-linejoin="round"/>
<path d="M20 1C18.5267 1 17.3334 2.19333 17.3334 3.66667V6.33333C17.3334 7.80667 18.5267 9 20 9C21.4734 9 22.6667 7.80667 22.6667 6.33333V3.66667C22.6667 2.19333 21.4734 1 20 1Z" stroke="#43ACF0" stroke-width="2" stroke-linecap="round" stroke-linejoin="round"/>
<path d="M17.3333 10.3335L13.765 11.6718C12.7033 12.0702 12 13.0852 12 14.2185V25.6668H14.6667" stroke="#43ACF0" stroke-width="2" stroke-linecap="round" stroke-linejoin="round"/>
<path d="M15.3334 17.6665V38.9998" stroke="#43ACF0" stroke-width="2" stroke-linecap="round" stroke-linejoin="round"/>
<path d="M20 29V39" stroke="#43ACF0" stroke-width="2" stroke-linecap="round" stroke-linejoin="round"/>
<path d="M20 29V39" stroke="#43ACF0" stroke-width="2" stroke-linecap="round" stroke-linejoin="round"/>
<path d="M30.6667 13.3335V25.3335" stroke="#43ACF0" stroke-width="2" stroke-linecap="round" stroke-linejoin="round"/>
<path d="M24.6667 19.3335H36.6667" stroke="#43ACF0" stroke-width="2" stroke-linecap="round" stroke-linejoin="round"/>
</svg>
