<svg width="40" height="41" viewBox="0 0 40 41" fill="none" xmlns="http://www.w3.org/2000/svg">
<g clip-path="url(#clip0_16_702)">
<path d="M20 1.41211C18.5267 1.41211 17.3334 2.60544 17.3334 4.07878V6.74544C17.3334 8.21878 18.5267 9.41211 20 9.41211C21.4734 9.41211 22.6667 8.21878 22.6667 6.74544V4.07878C22.6667 2.60544 21.4734 1.41211 20 1.41211Z" stroke="#43ACF0" stroke-width="2" stroke-linecap="round" stroke-linejoin="round"/>
<path d="M17.3333 10.7456L13.765 12.0839C12.7033 12.4823 12 13.4973 12 14.6306V26.0789H14.6667" stroke="#43ACF0" stroke-width="2" stroke-linecap="round" stroke-linejoin="round"/>
<path d="M15.3334 18.0786V39.4119" stroke="#43ACF0" stroke-width="2" stroke-linecap="round" stroke-linejoin="round"/>
<path d="M20 29.4121V39.4121" stroke="#43ACF0" stroke-width="2" stroke-linecap="round" stroke-linejoin="round"/>
<path d="M22.6667 10.7456L26.235 12.0839C27.2967 12.4823 28 13.4973 28 14.6306V26.0789H25.3334" stroke="#43ACF0" stroke-width="2" stroke-linecap="round" stroke-linejoin="round"/>
<path d="M24.6667 18.0786V39.4119" stroke="#43ACF0" stroke-width="2" stroke-linecap="round" stroke-linejoin="round"/>
<path d="M20 29.4121V39.4121" stroke="#43ACF0" stroke-width="2" stroke-linecap="round" stroke-linejoin="round"/>
<path d="M10.6667 1.41211C9.19333 1.41211 8 2.60544 8 4.07878V6.74544C8 8.21878 9.19333 9.41211 10.6667 9.41211C12.14 9.41211 13.3333 8.21878 13.3333 6.74544V4.07878C13.3333 2.60544 12.14 1.41211 10.6667 1.41211Z" stroke="#43ACF0" stroke-width="2" stroke-linecap="round" stroke-linejoin="round"/>
<path d="M8.00002 10.7456L4.43169 12.0839C3.37002 12.4823 2.66669 13.4973 2.66669 14.6306V26.0789H5.33335" stroke="#43ACF0" stroke-width="2" stroke-linecap="round" stroke-linejoin="round"/>
<path d="M6 18.0786V39.4119" stroke="#43ACF0" stroke-width="2" stroke-linecap="round" stroke-linejoin="round"/>
<path d="M10.6667 29.4121V39.4121" stroke="#43ACF0" stroke-width="2" stroke-linecap="round" stroke-linejoin="round"/>
<path d="M10.6667 29.4121V39.4121" stroke="#43ACF0" stroke-width="2" stroke-linecap="round" stroke-linejoin="round"/>
<path d="M29.3334 1.41211C30.8067 1.41211 32 2.60544 32 4.07878V6.74544C32 8.21878 30.8067 9.41211 29.3334 9.41211C27.86 9.41211 26.6667 8.21878 26.6667 6.74544V4.07878C26.6667 2.60544 27.86 1.41211 29.3334 1.41211Z" stroke="#43ACF0" stroke-width="2" stroke-linecap="round" stroke-linejoin="round"/>
<path d="M32 10.7456L35.5683 12.0839C36.63 12.4823 37.3333 13.4973 37.3333 14.6306V26.0789H34.6667" stroke="#43ACF0" stroke-width="2" stroke-linecap="round" stroke-linejoin="round"/>
<path d="M34 18.0786V39.4119" stroke="#43ACF0" stroke-width="2" stroke-linecap="round" stroke-linejoin="round"/>
<path d="M29.3334 29.4121V39.4121" stroke="#43ACF0" stroke-width="2" stroke-linecap="round" stroke-linejoin="round"/>
<path d="M29.3334 29.4121V39.4121" stroke="#43ACF0" stroke-width="2" stroke-linecap="round" stroke-linejoin="round"/>
</g>
<defs>
<clipPath id="clip0_16_702">
<rect width="40" height="40" fill="white" transform="translate(0 0.412109)"/>
</clipPath>
</defs>
</svg>
