<svg width="150" height="60" viewBox="0 0 150 60" fill="none" xmlns="http://www.w3.org/2000/svg">
<path d="M47.427 20.7668V39.6402H43.5791V20.7668H47.427Z" fill="#0F1426"/>
<path d="M63.1322 26.9151V39.6821C63.1322 43.645 60.0476 46.0813 56.2729 46.0813C52.6342 46.0813 49.9155 43.8228 49.6541 40.6336L53.4916 40.6545C53.6484 42.0138 54.8404 42.5994 56.4088 42.5994C57.8936 42.5994 59.2738 41.8047 59.2738 39.7344V38.1032C58.2909 38.741 57.0362 39.1175 55.6351 39.1175C52.1218 39.1175 49.3091 36.2734 49.3091 33.0006C49.3091 29.1946 52.1323 26.6432 55.6351 26.6432C57.0467 26.6432 58.2909 27.0197 59.2738 27.6575V26.9674L63.1322 26.9151ZM59.2843 34.4331V31.3276C58.5001 30.1879 57.4126 29.8115 56.3356 29.8115C54.4431 29.8115 53.1256 31.0767 53.1256 33.0006C53.1256 34.4122 54.4431 35.9597 56.3356 35.9597C57.4126 35.9492 58.5001 35.5624 59.2843 34.4331Z" fill="#0F1426"/>
<path d="M78.4817 33.126C78.4817 37.0576 75.5749 39.8598 71.6748 39.8598C67.7432 39.8598 64.8364 37.0576 64.8364 33.126C64.8364 29.2259 67.7432 26.3713 71.6748 26.3713C75.5749 26.3713 78.4817 29.2259 78.4817 33.126ZM74.7698 33.126C74.7698 31.2753 73.5569 29.7801 71.6748 29.7801C69.7717 29.7801 68.5588 31.2753 68.5588 33.126C68.5588 35.0291 69.7717 36.4511 71.6748 36.4511C73.5464 36.4406 74.7698 35.0291 74.7698 33.126Z" fill="#0F1426"/>
<path d="M102.374 26.936V39.6193L98.5995 39.6402V38.9188C97.6166 39.5566 96.3619 39.9539 94.9608 39.9539C91.4475 39.9539 88.6348 36.9739 88.6348 33.3038C88.6348 29.6128 91.4579 26.6328 94.9608 26.6328C96.3723 26.6328 97.6166 27.0301 98.5995 27.6679V26.9464L102.374 26.936ZM98.5995 35.2486V31.3589C97.8048 30.2297 96.6965 29.916 95.5881 29.916C93.6537 29.916 92.3153 31.4635 92.3153 33.3143C92.3153 35.1441 93.6537 36.6916 95.5881 36.6916C96.6965 36.6811 97.8048 36.3779 98.5995 35.2486Z" fill="#0F1426"/>
<path d="M117.891 32.7497V39.6403H114.179V33.1993C114.179 31.129 113.144 30.0311 111.303 30.0311C110.341 30.0311 109.285 30.5852 108.376 31.6518V39.6403H104.58V26.9569H108.376V27.9189C109.411 27.0929 110.613 26.6432 112.046 26.6432C115.434 26.6432 117.891 29.0273 117.891 32.7497Z" fill="#0F1426"/>
<path d="M41.8223 39.6298H37.9013L35.35 30.146L29.8605 39.6298H25.4793L33.9488 24.9493L32.5895 19.8467L21.1609 39.6402H16.7798L31.2616 14.5454H35.099L36.7825 20.7773H40.7453L38.0372 25.4826L41.8223 39.6298Z" fill="#0F1426"/>
<path d="M133.22 20.7668V39.6402H129.372V38.9187C128.389 39.5566 127.134 39.9539 125.733 39.9539C122.22 39.9539 119.407 36.9739 119.407 33.2828C119.407 29.6127 122.23 26.6327 125.733 26.6327C127.145 26.6327 128.389 27.0301 129.372 27.6679V20.7563L133.22 20.7668ZM129.372 35.2591V31.338C128.567 30.1983 127.448 29.8846 126.34 29.8846C124.395 29.8846 123.046 31.4426 123.046 33.2828C123.046 35.1545 124.395 36.7125 126.34 36.7125C127.448 36.7125 128.567 36.3988 129.372 35.2591Z" fill="#0F1426"/>
<path d="M87.9443 30.1565C87.1078 30.261 85.1421 30.3551 83.9919 31.9445V39.6507H80.1963V26.9778H83.9919V27.9293C84.8597 27.1869 86.1668 26.7478 87.9443 26.9255V30.1565Z" fill="#0F1426"/>
</svg>
