<svg width="150" height="60" viewBox="0 0 150 60" fill="none" xmlns="http://www.w3.org/2000/svg">
<path d="M137.598 30.7295C137.33 30.2727 136.974 29.909 136.525 29.6386C136.076 29.3682 135.58 29.1645 135.036 29.0246C134.493 28.8847 133.954 28.7822 133.419 28.7129C132.884 28.6437 132.393 28.5731 131.943 28.5038C131.495 28.4345 131.134 28.3333 130.87 28.2014C130.601 28.0696 130.469 27.8818 130.469 27.634C130.469 27.3863 130.62 27.1772 130.928 27.0067C131.236 26.8362 131.766 26.7509 132.522 26.7509C133.089 26.7509 133.688 26.8175 134.318 26.9467C134.949 27.0786 135.578 27.3237 136.209 27.6766L137.556 24.681C136.926 24.3254 136.152 24.059 135.23 23.8805C134.308 23.702 133.4 23.6141 132.502 23.6141C131.162 23.6141 130.028 23.7979 129.098 24.1589C128.168 24.5225 127.465 25.018 126.985 25.6454C126.504 26.2728 126.265 26.9867 126.265 27.7925C126.265 28.5051 126.399 29.0925 126.666 29.5574C126.935 30.0222 127.292 30.3912 127.74 30.659C128.189 30.9293 128.685 31.1304 129.228 31.2623C129.772 31.3942 130.31 31.4994 130.845 31.574C131.381 31.6513 131.871 31.7205 132.322 31.7831C132.77 31.8444 133.133 31.9323 133.409 32.0495C133.683 32.1667 133.821 32.3492 133.821 32.5943C133.821 32.858 133.676 33.0658 133.384 33.2216C133.093 33.3762 132.571 33.4534 131.814 33.4534C131.058 33.4534 130.255 33.3508 129.452 33.1417C128.648 32.9326 127.948 32.6516 127.349 32.2959L126.001 35.3142C126.631 35.6858 127.461 35.9948 128.492 36.2426C129.524 36.4903 130.583 36.6141 131.67 36.6141C133.056 36.6141 134.216 36.429 135.154 36.0574C136.092 35.6858 136.801 35.1903 137.281 34.5709C137.762 33.9515 138.001 33.2549 138.001 32.481C138.001 31.7685 137.866 31.1864 137.6 30.7295H137.598Z" fill="#474DFB"/>
<path d="M120.679 29.7737C120.679 30.4817 120.573 31.0584 120.361 31.5065C120.148 31.9545 119.868 32.2821 119.52 32.4852C119.172 32.6896 118.784 32.7925 118.361 32.7925C117.709 32.7925 117.207 32.58 116.851 32.1549C116.495 31.7298 116.318 31.0218 116.318 30.0309V23.6141H112.001V30.7633C112.001 32.1008 112.223 33.204 112.67 34.0786C113.117 34.9517 113.737 35.5921 114.534 36.0009C115.329 36.4098 116.227 36.6141 117.227 36.6141C118.166 36.6141 119.038 36.384 119.84 35.9197C120.234 35.6909 120.582 35.4053 120.886 35.0627V36.4057H125.001V23.6141H120.683V29.771L120.68 29.7737H120.679Z" fill="#474DFB"/>
<path d="M108.522 29.6386C108.073 29.3682 107.577 29.1644 107.034 29.0246C106.49 28.8847 105.952 28.7822 105.417 28.7129C104.881 28.6436 104.391 28.573 103.941 28.5038C103.492 28.4345 103.132 28.3333 102.867 28.2014C102.599 28.0696 102.466 27.8818 102.466 27.634C102.466 27.3863 102.618 27.1771 102.925 27.0067C103.233 26.8362 103.763 26.7509 104.519 26.7509C105.086 26.7509 105.685 26.8175 106.315 26.9467C106.946 27.0786 107.576 27.3237 108.206 27.6766L109.553 24.681C108.923 24.3254 108.15 24.059 107.227 23.8805C106.306 23.702 105.398 23.6141 104.499 23.6141C103.16 23.6141 102.025 23.7979 101.097 24.1589C100.167 24.5225 99.4639 25.018 98.9836 25.6454C98.504 26.2727 98.2642 26.9867 98.2642 27.7925C98.2642 28.5051 98.398 29.0925 98.6655 29.5574C98.9338 30.0222 99.2903 30.3912 99.7385 30.6589C100.188 30.9293 100.683 31.1304 101.227 31.2623C101.771 31.3941 102.309 31.4994 102.844 31.574C103.379 31.6512 103.87 31.7205 104.32 31.7831C104.769 31.8443 105.132 31.9322 105.407 32.0495C105.683 32.1653 105.819 32.3492 105.819 32.5942C105.819 32.858 105.676 33.0658 105.385 33.2216C105.093 33.3761 104.57 33.4534 103.815 33.4534C103.06 33.4534 102.255 33.3508 101.452 33.1417C100.649 32.9326 99.9477 32.6515 99.3486 32.2959L98.001 35.3141C98.6314 35.6857 99.461 35.9948 100.493 36.2425C101.524 36.4902 102.583 36.6141 103.67 36.6141C105.057 36.6141 106.216 36.429 107.154 36.0574C108.093 35.6857 108.801 35.1903 109.281 34.5709C109.763 33.9515 110.001 33.2549 110.001 32.481C110.001 31.7684 109.866 31.1864 109.6 30.7295C109.331 30.2726 108.975 29.909 108.526 29.6386H108.522Z" fill="#474DFB"/>
<path d="M94.5265 24.169C93.7596 23.7991 92.9038 23.6141 91.9578 23.6141C90.9363 23.6141 90.0195 23.8291 89.2078 24.2553C88.7849 24.4777 88.4083 24.7614 88.0805 25.1001V23.8078H84.001V35.6141H88.2807V29.9078C88.2807 29.2542 88.3852 28.7243 88.5963 28.3169C88.8067 27.9107 89.0992 27.6096 89.4752 27.4133C89.8511 27.2171 90.2638 27.1209 90.7151 27.1209C91.3463 27.1209 91.8369 27.3146 92.1899 27.697C92.5434 28.082 92.7192 28.6943 92.7192 29.5367V35.6129H97.001V28.8605C97.001 27.6408 96.7784 26.646 96.3379 25.8762C95.8941 25.1063 95.2907 24.5377 94.5252 24.1665H94.5279L94.5265 24.169Z" fill="#474DFB"/>
<path d="M78.568 24.3682C77.5206 23.8646 76.3612 23.6141 75.0926 23.6141C73.7434 23.6141 72.5294 23.8899 71.4505 24.4375C70.3717 24.9877 69.5278 25.7537 68.9159 26.7369C68.3055 27.7201 68.001 28.8378 68.001 30.0915C68.001 31.3451 68.3137 32.4628 68.9405 33.4461C69.5673 34.4293 70.4482 35.2033 71.583 35.7681C72.7178 36.333 74.0452 36.6141 75.5692 36.6141C76.8078 36.6141 77.8784 36.4409 78.7838 36.0933C79.6879 35.7442 80.4499 35.2393 81.0698 34.5731L78.6896 32.1578C78.2457 32.5295 77.7978 32.8053 77.3459 32.9811C76.8938 33.1596 76.3489 33.2476 75.7167 33.2476C75.0339 33.2476 74.4466 33.129 73.955 32.8892C73.4634 32.6494 73.0879 32.3056 72.8257 31.8567C72.7151 31.6662 72.6304 31.4544 72.5662 31.2292H81.93C81.9465 31.0587 81.9615 30.8735 81.978 30.6724C81.9945 30.4712 82.001 30.2927 82.001 30.1381C82.001 28.7446 81.6913 27.5602 81.0726 26.585C80.454 25.6098 79.6209 24.8718 78.5721 24.3682H78.5694H78.568ZM73.701 27.0966C74.1052 26.8648 74.5764 26.7476 75.1158 26.7476C75.6552 26.7476 76.1263 26.8635 76.5306 27.0966C76.9348 27.3284 77.2529 27.6535 77.4824 28.0718C77.6203 28.3223 77.7077 28.6034 77.7569 28.9085H72.487C72.5403 28.6087 72.6276 28.3329 72.7574 28.0851C72.98 27.6588 73.2913 27.3311 73.6969 27.0993L73.6996 27.0966H73.701Z" fill="#474DFB"/>
<path d="M66.5249 29.6386C66.0762 29.3682 65.5801 29.1644 65.0365 29.0246C64.493 28.8847 63.9549 28.7822 63.4195 28.7129C62.884 28.6436 62.3934 28.573 61.9434 28.5038C61.4947 28.4345 61.1341 28.3333 60.8699 28.2014C60.6028 28.0696 60.4686 27.8818 60.4686 27.634C60.4686 27.3863 60.6205 27.1771 60.9281 27.0067C61.2358 26.8362 61.7658 26.7509 62.5221 26.7509C63.0888 26.7509 63.6879 26.8175 64.3182 26.9467C64.9484 27.0786 65.5787 27.3237 66.209 27.6766L67.5563 24.681C66.926 24.3254 66.1521 24.059 65.2304 23.8805C64.3086 23.702 63.4005 23.6141 62.5018 23.6141C61.1626 23.6141 60.0281 23.7979 59.0983 24.1589C58.1684 24.5225 57.4649 25.018 56.985 25.6454C56.5039 26.2727 56.2653 26.9867 56.2653 27.7925C56.2653 28.5051 56.3995 29.0925 56.6666 29.5574C56.9336 30.0222 57.2914 30.3912 57.7401 30.6589C58.1887 30.9293 58.6849 31.1304 59.2284 31.2623C59.7719 31.3941 60.31 31.4994 60.8455 31.574C61.3808 31.6512 61.8715 31.7205 62.3216 31.7831C62.7702 31.8443 63.1321 31.9322 63.4087 32.0495C63.6852 32.1667 63.8207 32.3492 63.8207 32.5942C63.8207 32.858 63.6756 33.0658 63.3843 33.2216C63.0928 33.3761 62.571 33.4534 61.8146 33.4534C61.0582 33.4534 60.2545 33.3508 59.452 33.1417C58.6482 32.9326 57.9475 32.6515 57.3484 32.2959L56.001 35.3141C56.6313 35.6857 57.4609 35.9948 58.4924 36.2425C59.5238 36.4902 60.5825 36.6141 61.6696 36.6141C63.0562 36.6141 64.2165 36.429 65.1544 36.0574C66.0925 35.6857 66.8014 35.1903 67.2812 34.5709C67.7624 33.9515 68.001 33.2549 68.001 32.481C68.001 31.7684 67.8668 31.1864 67.5997 30.7295C67.3313 30.2726 66.9749 29.909 66.5262 29.6386H66.5249Z" fill="#474DFB"/>
<path d="M51.5253 24.169C50.7587 23.7991 49.9029 23.6141 48.9566 23.6141C47.9353 23.6141 47.0188 23.8291 46.2069 24.2553C45.7842 24.4777 45.408 24.7614 45.0797 25.1001V23.8078H41.001V35.6141H45.2813V29.9078C45.2813 29.2542 45.386 28.7243 45.5967 28.3169C45.8074 27.9107 46.0996 27.6096 46.4758 27.4133C46.852 27.2171 47.2644 27.1209 47.7156 27.1209C48.3464 27.1209 48.8377 27.3146 49.1906 27.697C49.5435 28.082 49.7194 28.6943 49.7194 29.5367V35.6129H54.001V28.8605C54.001 27.6408 53.7786 26.646 53.3378 25.8762C52.8943 25.1063 52.2906 24.5377 51.5253 24.1665H51.5279L51.5253 24.169Z" fill="#474DFB"/>
<path d="M35.6266 24.4373C34.5661 23.8872 33.3587 23.6141 32.0016 23.6141C30.6445 23.6141 29.4384 23.8899 28.3858 24.4373C27.3332 24.9874 26.5064 25.748 25.9039 26.7229C25.3015 27.6979 25.001 28.8208 25.001 30.0902C25.001 31.3595 25.3015 32.485 25.9039 33.468C26.5064 34.451 27.3332 35.2196 28.3858 35.7777C29.4384 36.3345 30.6432 36.6141 32.0016 36.6141C33.36 36.6141 34.5675 36.3358 35.6266 35.7777C36.6871 35.2209 37.5127 34.451 38.1085 33.468C38.7031 32.485 39.001 31.3595 39.001 30.0902C39.001 28.8208 38.7031 27.6979 38.1085 26.7229C37.514 25.748 36.6871 24.9861 35.6266 24.4373ZM34.2669 31.7258C34.0385 32.1827 33.7302 32.5263 33.3416 32.7581C32.9531 32.9899 32.5083 33.1057 32.0042 33.1057C31.5002 33.1057 31.079 32.9899 30.6905 32.7581C30.302 32.5263 29.9883 32.1827 29.752 31.7258C29.5158 31.269 29.399 30.7242 29.399 30.0902C29.399 29.4561 29.5158 28.9194 29.752 28.4771C29.9883 28.0363 30.3007 27.7006 30.6905 27.4689C31.079 27.2371 31.5173 27.1199 32.0042 27.1199C32.4912 27.1199 32.9531 27.2358 33.3416 27.4689C33.7302 27.7006 34.0385 28.0363 34.2669 28.4771C34.4953 28.918 34.6095 29.4548 34.6095 30.0902C34.6095 30.7255 34.4953 31.269 34.2669 31.7258Z" fill="#474DFB"/>
<path d="M17.7518 27.4728C18.1663 27.2411 18.6258 27.1239 19.1327 27.1239C19.6397 27.1239 20.107 27.2611 20.5361 27.5288C20.9652 27.7992 21.3269 28.2281 21.6173 28.8168L25.001 27.0746C24.5719 25.9757 23.8419 25.1246 22.8147 24.5199C21.7863 23.9165 20.5665 23.6141 19.1552 23.6141C17.7439 23.6141 16.5438 23.8899 15.4625 24.4373C14.3813 24.9874 13.5337 25.748 12.9212 26.723C12.3073 27.698 12.001 28.8208 12.001 30.0902C12.001 31.3596 12.3073 32.485 12.9212 33.468C13.5351 34.4511 14.3813 35.2196 15.4625 35.7777C16.5438 36.3345 17.7742 36.6141 19.1552 36.6141C20.5361 36.6141 21.7863 36.3118 22.8147 35.7084C23.8432 35.105 24.5719 34.2526 25.001 33.1537L21.6173 31.4115C21.3255 32.0002 20.9652 32.4278 20.5361 32.6995C20.107 32.9699 19.6384 33.1044 19.1327 33.1044C18.6271 33.1044 18.1663 32.9885 17.7518 32.7555C17.3372 32.5237 17.0125 32.1827 16.7748 31.7338C16.5372 31.285 16.4197 30.7348 16.4197 30.0848C16.4197 29.4348 16.5372 28.914 16.7748 28.4718C17.0125 28.0309 17.3372 27.6953 17.7518 27.4635V27.4715V27.4728Z" fill="#474DFB"/>
</svg>
