<svg width="150" height="60" viewBox="0 0 150 60" fill="none" xmlns="http://www.w3.org/2000/svg">
<g clip-path="url(#clip0_154_1017)">
<path d="M85.5459 34.811V35.6971L82.9128 35.5795C81.2917 35.5984 79.5619 35.6687 79.4221 35.6687C79.2827 35.662 79.4193 35.2696 79.3635 34.865L79.2794 34.1248H85.5868L85.5459 34.811ZM105.488 23.9058C106.171 23.9039 106.826 23.9096 106.942 23.9211C107.116 23.9345 107.16 24.0374 107.203 24.5277L107.262 25.1199L106.2 25.133C105.772 25.1385 104.562 25.1396 103.181 25.1392L103.07 29.3892C103.09 32.2036 103.161 35.2068 103.161 35.4495C103.154 35.6919 102.754 35.4548 102.34 35.5518L101.584 35.6971V25.1385C101.562 25.1385 101.54 25.1386 101.518 25.1385C98.5232 25.1347 97.8976 25.1275 97.7666 25.1046C97.5779 25.0659 97.7522 23.9784 97.9561 23.9459C98.0581 23.9288 98.9593 23.9206 101.184 23.9148C102.87 23.9129 104.804 23.9097 105.488 23.9058ZM25.0461 34.7992V35.6854L22.413 35.5678C20.7933 35.5867 19.0652 35.6562 18.9231 35.6563C18.7834 35.6499 18.9195 35.2579 18.8637 34.8532L18.7797 34.113H25.0871L25.0461 34.7992ZM46.418 35.6286L45.6622 35.4709C45.2488 35.3659 44.8479 35.6227 44.8415 35.3602C44.8415 35.146 44.8869 32.9538 44.9149 30.5035L42.411 30.4012C40.8035 30.4185 39.0979 30.4763 38.6866 30.487C38.7145 32.9666 38.7622 35.2005 38.7622 35.4163C38.7554 35.6783 38.3547 35.422 37.9414 35.5269L37.1857 35.6846V23.836L37.8864 23.9127H38.7911L38.671 28.8586C38.6713 28.8879 38.6715 28.9172 38.6718 28.9465H44.9304C44.9308 28.8987 44.9315 28.851 44.9319 28.8033L44.8125 23.8567H45.7173L46.418 23.78V35.6286ZM95.9078 27.0207H96.796L96.6781 30.6426C96.6969 32.8716 96.7671 35.2499 96.7671 35.4439C96.7606 35.6361 96.3671 35.4486 95.9614 35.5256L95.2193 35.6404V32.0959L92.5316 31.9866C90.8905 32.0042 89.1479 32.0644 88.783 32.0731C88.8107 33.803 88.8536 35.3204 88.8536 35.4723C88.8468 35.664 88.4535 35.4763 88.0477 35.5532L87.3061 35.6687V26.9923L87.994 27.0491H88.8826L88.7688 30.5312H95.2193V26.9646L95.9078 27.0207ZM116.779 27.0207H117.669L117.55 30.6426C117.57 32.8716 117.639 35.2499 117.64 35.4439C117.633 35.6361 117.24 35.4486 116.834 35.5256L116.091 35.6404V32.0959L113.405 31.9866C111.763 32.0043 110.017 32.0644 109.655 32.0731C109.683 33.803 109.726 35.3204 109.726 35.4723C109.719 35.664 109.326 35.4763 108.92 35.5532L108.177 35.6687V26.9923L108.866 27.0491H109.755L109.641 30.5312H116.091V26.9646L116.779 27.0207ZM131.803 35.6411L131.047 35.484C130.634 35.3791 130.234 35.6352 130.227 35.3727C130.227 35.1091 130.298 31.8604 130.317 28.8157L130.269 26.865C129.812 28.0263 129.282 29.395 128.821 30.6558L126.957 35.6251H126.448C126.402 35.6538 126.273 35.6498 125.983 35.6127L125.094 35.6411L122.053 29.45L121.282 27.3085L121.245 28.8157C121.265 31.8604 121.337 35.1091 121.337 35.3727C121.33 35.6352 120.929 35.379 120.516 35.484L119.76 35.6411V23.7924L120.461 23.8691H121.366L121.365 23.8761H121.969L123.833 28.8462C124.452 30.5406 125.196 32.4121 125.721 33.7153L127.041 30.0518L130.082 23.8609H130.971C131.236 23.827 131.366 23.8177 131.422 23.8339L131.803 23.7924V35.6411ZM34.0362 23.8366C34.7196 23.8347 35.3742 23.8404 35.4905 23.8519C35.6648 23.8653 35.7082 23.9682 35.7518 24.4586L35.8104 25.0506L34.7489 25.0638C34.3205 25.0693 33.1111 25.0704 31.7308 25.07L31.6192 29.3207C31.6385 32.135 31.7103 35.1384 31.7103 35.381C31.7035 35.6231 31.3027 35.3864 30.8895 35.4833L30.1338 35.6286V25.0693C30.1115 25.0693 30.0889 25.0693 30.0666 25.0693C27.0717 25.0655 26.4462 25.0583 26.3154 25.0354C26.1266 24.9969 26.3012 23.9085 26.5047 23.8761C26.6072 23.8589 27.5091 23.8514 29.7326 23.8456C31.4191 23.8437 33.3528 23.8405 34.0362 23.8366ZM79.2794 34.1248L78.5505 33.9878C78.152 33.8964 77.7657 34.1199 77.7595 33.891C77.7595 33.6619 77.8283 30.828 77.8471 28.1724L77.7312 23.8595H78.6042L79.2794 23.7924V34.1248ZM18.7797 29.4612L18.8023 29.0641L20.1761 29.033C20.9347 29.0143 21.6018 29.0018 21.6678 29.0018C21.7333 29.008 21.8119 29.3376 21.8381 29.7351L21.8776 30.462H18.7797V34.1116L18.0508 33.9947C17.6523 33.9171 17.2662 34.1068 17.2597 33.9131C17.2597 33.719 17.3279 31.3163 17.3466 29.0648L17.2314 25.4076H18.1037L18.7797 25.3515V29.4612ZM89.1997 25.4498C90.0595 25.3656 90.4038 25.3659 90.3596 26.1879L90.4038 26.9384H88.9129V26.2577C88.9129 25.6296 88.8306 25.5196 89.1997 25.4498ZM94.1423 25.4899C95.0132 25.3328 95.1318 25.4027 95.1759 26.1879L95.22 26.9384H93.7293V26.2577C93.7293 25.6296 93.7735 25.5597 94.1423 25.4899ZM110.072 25.4498C110.932 25.3656 111.276 25.3658 111.232 26.1879L111.276 26.9384H109.785V26.2577C109.785 25.6297 109.703 25.5196 110.072 25.4498ZM115.012 25.4899C115.883 25.3328 116.001 25.4027 116.045 26.1879L116.089 26.9384H114.599V26.2577C114.599 25.6296 114.643 25.5597 115.012 25.4899ZM93.3475 23.9612C93.4126 23.968 93.4914 24.2971 93.5174 24.6944L93.5565 25.4208H90.4023L90.4421 24.7186L90.4811 24.0234L91.8554 23.9923C92.6141 23.9736 93.2816 23.9612 93.3475 23.9612ZM114.22 23.9612C114.285 23.9674 114.364 24.2968 114.39 24.6944L114.429 25.4208H111.276L111.314 24.7186L111.354 24.0234L112.728 23.9923C113.486 23.9737 114.153 23.9612 114.22 23.9612ZM25.1436 23.78L25.102 24.4661V25.3523L22.4208 25.2353C20.7716 25.2543 19.012 25.3238 18.8673 25.3239C18.725 25.3175 18.8635 24.9249 18.8065 24.5201L18.7218 23.78H25.1436Z" fill="#08C154"/>
<path d="M85.5452 34.811L85.3407 34.7993L85.3404 34.8051V34.811H85.5452ZM85.5452 35.6971L85.5359 35.8975L85.75 35.9071V35.6971H85.5452ZM82.9121 35.5796L82.9214 35.3792L82.9155 35.3789L82.9096 35.379L82.9121 35.5796ZM79.4214 35.6687L79.4113 35.8693H79.4214V35.6687ZM79.3628 34.865L79.1592 34.8872L79.1598 34.8918L79.3628 34.865ZM85.5862 34.1248L85.7906 34.1365L85.8033 33.9242H85.5862V34.1248ZM106.941 23.9211L106.92 24.1207L106.925 24.1211L106.941 23.9211ZM107.202 24.5277L106.998 24.5451V24.547L107.202 24.5277ZM107.261 25.1199L107.263 25.3204L107.486 25.3176L107.465 25.1005L107.261 25.1199ZM103.18 25.1392V24.9386L102.981 24.9385L102.976 25.1341L103.18 25.1392ZM103.07 29.3892L102.865 29.3841V29.3906L103.07 29.3892ZM103.16 35.4495L103.365 35.4548V35.4495H103.16ZM102.339 35.5519L102.379 35.7488L102.387 35.7469L102.339 35.5519ZM101.583 35.6971H101.379V35.9409L101.623 35.894L101.583 35.6971ZM101.583 25.1385H101.788V24.9383L101.584 24.9379L101.583 25.1385ZM97.766 25.1046L97.724 25.3011L97.7298 25.3021L97.766 25.1046ZM97.9555 23.946L97.988 24.1439L97.9902 24.1437L97.9555 23.946ZM25.0455 34.7993L24.841 34.7876L24.8406 34.7934V34.7993H25.0455ZM25.0455 35.6854L25.0361 35.8858L25.2503 35.8953V35.6854H25.0455ZM22.4123 35.5678L22.4216 35.3674L22.4158 35.3671L22.4099 35.3672L22.4123 35.5678ZM18.9224 35.6563L18.9129 35.8569H18.9226L18.9224 35.6563ZM18.8631 34.8532L18.6594 34.8754L18.6601 34.8801L18.8631 34.8532ZM18.779 34.113V33.9125H18.5502L18.5754 34.1352L18.779 34.113ZM25.0865 34.113L25.2909 34.1248L25.3036 33.9125H25.0865V34.113ZM46.4173 35.6286L46.3746 35.8248L46.6221 35.8765V35.6286H46.4173ZM45.6615 35.4709L45.6101 35.6653L45.6188 35.6671L45.6615 35.4709ZM44.8408 35.3603H44.6359L44.636 35.3651L44.8408 35.3603ZM44.9142 30.5036L45.119 30.5058L45.1213 30.3113L44.9227 30.3032L44.9142 30.5036ZM42.4103 30.4012L42.4188 30.2008L42.4135 30.2006H42.4081L42.4103 30.4012ZM38.6859 30.487L38.6805 30.2865L38.4789 30.2917L38.4811 30.4892L38.6859 30.487ZM38.7615 35.4163L38.9663 35.4213V35.4163H38.7615ZM37.9407 35.5269L37.9835 35.7233L37.9921 35.7211L37.9407 35.5269ZM37.185 35.6847H36.9801V35.9325L37.2276 35.8809L37.185 35.6847ZM37.185 23.836L37.2078 23.6366L36.9801 23.6117V23.836H37.185ZM37.8857 23.9127L37.8629 24.1121L37.8742 24.1133H37.8857V23.9127ZM38.7904 23.9127L38.9952 23.9176L39.0002 23.7122H38.7904V23.9127ZM38.6704 28.8587L38.4655 28.8539V28.8599L38.6704 28.8587ZM38.6711 28.9465L38.4662 28.9478L38.4676 29.1471H38.6711V28.9465ZM44.9298 28.9465V29.1471H45.1332L45.1346 28.9479L44.9298 28.9465ZM44.9312 28.8033L45.1361 28.8046L45.136 28.7986L44.9312 28.8033ZM44.8118 23.8567V23.6562H44.6021L44.607 23.8615L44.8118 23.8567ZM45.7166 23.8567V24.0573H45.728L45.7394 24.0561L45.7166 23.8567ZM46.4173 23.78H46.6221V23.5557L46.3945 23.5806L46.4173 23.78ZM95.9072 27.0207L95.8898 27.2207L95.8985 27.2213H95.9072V27.0207ZM96.7953 27.0207L97 27.0271L97.0072 26.8202H96.7953V27.0207ZM96.6774 30.6426L96.4727 30.6362V30.6443L96.6774 30.6426ZM96.7664 35.4439L96.9711 35.4504V35.4439H96.7664ZM95.9607 35.5256L95.9925 35.7238L95.9997 35.7225L95.9607 35.5256ZM95.2186 35.6404H95.0139V35.8752L95.2511 35.8385L95.2186 35.6404ZM95.2186 32.096H95.424V31.9035L95.2273 31.8955L95.2186 32.096ZM92.5309 31.9867L92.5389 31.7862L92.5338 31.786L92.5288 31.7861L92.5309 31.9867ZM88.7823 32.0732L88.7772 31.8726L88.5743 31.8774L88.5775 32.0763L88.7823 32.0732ZM88.8529 35.4723L89.0577 35.4792V35.4723H88.8529ZM88.047 35.5532L88.0792 35.7515L88.0858 35.7502L88.047 35.5532ZM87.3054 35.6687H87.1005V35.9038L87.3376 35.8669L87.3054 35.6687ZM87.3054 26.9924L87.3225 26.7925L87.1005 26.7742V26.9924H87.3054ZM87.9933 27.0491L87.9761 27.249L87.9847 27.2497H87.9933V27.0491ZM88.8819 27.0491L89.0866 27.0555L89.0933 26.8485H88.8819V27.0491ZM88.7681 30.5313L88.5634 30.5248L88.5567 30.7319H88.7681V30.5313ZM95.2186 30.5313V30.7319H95.424V30.5313H95.2186ZM95.2186 26.9647L95.236 26.7648L95.0139 26.7467V26.9647H95.2186ZM116.779 27.0207L116.762 27.2207L116.77 27.2213H116.779V27.0207ZM117.668 27.0207L117.873 27.0271L117.879 26.8202H117.668V27.0207ZM117.55 30.6426L117.345 30.6362V30.6443L117.55 30.6426ZM117.639 35.4439L117.844 35.4504V35.4439H117.639ZM116.833 35.5256L116.865 35.7238L116.872 35.7225L116.833 35.5256ZM116.091 35.6404H115.886V35.8751L116.123 35.8385L116.091 35.6404ZM116.091 32.096H116.295V31.9035L116.099 31.8955L116.091 32.096ZM113.405 31.9867L113.413 31.7862L113.407 31.786L113.402 31.7861L113.405 31.9867ZM109.654 32.0732L109.65 31.8726L109.447 31.8774L109.45 32.0763L109.654 32.0732ZM109.725 35.4723L109.93 35.4792V35.4723H109.725ZM108.92 35.5532L108.951 35.7515L108.959 35.7502L108.92 35.5532ZM108.177 35.6687H107.972V35.9038L108.209 35.8669L108.177 35.6687ZM108.177 26.9924L108.194 26.7925L107.972 26.7742V26.9924H108.177ZM108.865 27.0491L108.848 27.249L108.857 27.2497H108.865V27.0491ZM109.754 27.0491L109.959 27.0555L109.966 26.8485H109.754V27.0491ZM109.641 30.5313L109.436 30.5248L109.429 30.7319H109.641V30.5313ZM116.091 30.5313V30.7319H116.295V30.5313H116.091ZM116.091 26.9647L116.107 26.7648L115.886 26.7467V26.9647H116.091ZM131.802 35.6411L131.76 35.8373L132.007 35.8887V35.6411H131.802ZM131.047 35.4841L130.995 35.6784L131.004 35.6803L131.047 35.4841ZM130.226 35.3727L130.022 35.3726V35.3775L130.226 35.3727ZM130.317 28.8157L130.521 28.817V28.8109L130.317 28.8157ZM130.268 26.8651L130.474 26.8603L130.077 26.7929L130.268 26.8651ZM128.82 30.6558L129.012 30.7249L129.013 30.7234L128.82 30.6558ZM126.956 35.6252V35.8258H127.1L127.149 35.6943L126.956 35.6252ZM126.447 35.6252V35.4246H126.388L126.337 35.4559L126.447 35.6252ZM125.982 35.6127L126.008 35.4138L125.992 35.4117L125.975 35.4122L125.982 35.6127ZM125.093 35.6411L124.909 35.728L124.967 35.8458L125.1 35.8416L125.093 35.6411ZM122.052 29.4501L121.859 29.5168L121.862 29.5271L121.868 29.537L122.052 29.4501ZM121.281 27.3085L121.474 27.2418L121.076 27.3038L121.281 27.3085ZM121.245 28.8157L121.04 28.8111V28.817L121.245 28.8157ZM121.336 35.3727L121.541 35.3775V35.3726L121.336 35.3727ZM120.515 35.4841L120.558 35.6805L120.566 35.6782L120.515 35.4841ZM119.759 35.6411H119.554V35.8887L119.802 35.8373L119.759 35.6411ZM119.759 23.7924L119.782 23.5931L119.554 23.5681V23.7924H119.759ZM120.46 23.8692L120.437 24.0686L120.448 24.0698H120.46V23.8692ZM121.365 23.8692L121.569 23.8891L121.591 23.6686H121.365V23.8692ZM121.364 23.8761L121.16 23.8561L121.138 24.0767H121.364V23.8761ZM121.968 23.8761L122.16 23.807L122.111 23.6755H121.968V23.8761ZM123.832 28.8462L124.025 28.7786L124.024 28.7771L123.832 28.8462ZM125.72 33.7153L125.53 33.789L125.731 34.2885L125.913 33.782L125.72 33.7153ZM127.04 30.0519L126.855 29.9649L126.851 29.9748L126.847 29.9851L127.04 30.0519ZM130.082 23.8609V23.6603H129.953L129.897 23.7739L130.082 23.8609ZM130.97 23.8609V24.0615H130.984L130.997 24.0598L130.97 23.8609ZM131.421 23.8339L131.363 24.0262L131.403 24.0378L131.444 24.0333L131.421 23.8339ZM131.802 23.7924H132.007V23.5683L131.779 23.5931L131.802 23.7924ZM35.4898 23.8519L35.4693 24.0515L35.4737 24.0519L35.4898 23.8519ZM35.7512 24.4586L35.5471 24.4759L35.5473 24.4779L35.7512 24.4586ZM35.8097 25.0507L35.8123 25.2513L36.0351 25.2485L36.0136 25.0313L35.8097 25.0507ZM31.7301 25.07L31.7301 24.8695L31.5304 24.8694L31.5253 25.0649L31.7301 25.07ZM31.6185 29.3207L31.4136 29.3155V29.3221L31.6185 29.3207ZM31.7096 35.381L31.9144 35.3865V35.381H31.7096ZM30.8888 35.4834L30.9283 35.6803L30.9366 35.6784L30.8888 35.4834ZM30.1331 35.6286H29.9283V35.8724L30.1725 35.8255L30.1331 35.6286ZM30.1331 25.0694H30.3379V24.8691L30.1334 24.8688L30.1331 25.0694ZM26.3147 25.0354L26.273 25.2319L26.2787 25.2329L26.3147 25.0354ZM26.504 23.8761L26.5369 24.0741L26.5385 24.0738L26.504 23.8761ZM78.5498 33.9879L78.5031 34.1833L78.5112 34.1848L78.5498 33.9879ZM77.7588 33.891H77.5539L77.554 33.8963L77.7588 33.891ZM77.8464 28.1724L78.0513 28.1739L78.0511 28.1672L77.8464 28.1724ZM77.7305 23.8595V23.6589H77.5202L77.5257 23.8648L77.7305 23.8595ZM78.6035 23.8595V24.0601H78.6139L78.6242 24.0591L78.6035 23.8595ZM79.2787 23.7924H79.4836V23.5705L79.258 23.5929L79.2787 23.7924ZM18.779 29.4612H18.5742L18.9835 29.4723L18.779 29.4612ZM18.8016 29.0641L18.7969 28.8636L18.6076 28.8679L18.5971 29.0529L18.8016 29.0641ZM21.6671 29.0018L21.6869 28.8022L21.677 28.8012H21.6671L21.6671 29.0018ZM21.8374 29.7351L22.0419 29.7244L22.0418 29.7221L21.8374 29.7351ZM21.8769 30.4621V30.6627H22.0929L22.0815 30.4514L21.8769 30.4621ZM18.779 30.4621V30.2615H18.5742V30.4621H18.779ZM18.779 34.1117L18.7459 34.3096L18.9838 34.3478V34.1117H18.779ZM18.0501 33.9947L18.0101 34.1916L18.017 34.1927L18.0501 33.9947ZM17.259 33.9131H17.0541L17.0543 33.9198L17.259 33.9131ZM17.3459 29.0648L17.5509 29.0664L17.5506 29.0586L17.3459 29.0648ZM17.2308 25.4076V25.207H17.0195L17.026 25.4138L17.2308 25.4076ZM18.1031 25.4076V25.6082H18.1117L18.1203 25.6075L18.1031 25.4076ZM18.779 25.3516H18.9838V25.1333L18.7617 25.1517L18.779 25.3516ZM89.199 25.4498L89.1786 25.2502L89.1693 25.2511L89.1601 25.2528L89.199 25.4498ZM90.3589 26.1879L90.1543 26.1773L90.1535 26.1884L90.1543 26.1995L90.3589 26.1879ZM90.4031 26.9384V27.139H90.62L90.6077 26.9268L90.4031 26.9384ZM88.9123 26.9384H88.7074V27.139H88.9123V26.9384ZM94.1416 25.4899L94.1048 25.2926L94.1033 25.293L94.1416 25.4899ZM95.2193 26.9384V27.139H95.437L95.424 26.9268L95.2193 26.9384ZM93.7287 26.9384H93.524V27.139H93.7287V26.9384ZM110.071 25.4498L110.05 25.2502L110.041 25.2511L110.032 25.2528L110.071 25.4498ZM111.231 26.1879L111.026 26.1773V26.1883V26.1993L111.231 26.1879ZM111.275 26.9384V27.139H111.492L111.479 26.927L111.275 26.9384ZM109.785 26.9384H109.58V27.139H109.785V26.9384ZM115.012 25.4899L114.974 25.2926L114.973 25.293L115.012 25.4899ZM116.089 26.9384V27.139H116.306L116.293 26.927L116.089 26.9384ZM114.598 26.9384H114.393V27.139H114.598V26.9384ZM93.3468 23.9612L93.3677 23.7617L93.3576 23.7606H93.3468V23.9612ZM93.5167 24.6945L93.7214 24.684V24.6815L93.5167 24.6945ZM93.5558 25.4208V25.6213H93.7713L93.7598 25.4102L93.5558 25.4208ZM90.4016 25.4208L90.1977 25.4097L90.1854 25.6213H90.4016V25.4208ZM90.4805 24.0234L90.4754 23.8229L90.2859 23.8272L90.2758 24.0125L90.4805 24.0234ZM114.219 23.9612L114.238 23.7615L114.229 23.7606H114.219V23.9612ZM114.389 24.6945L114.594 24.6838V24.6815L114.389 24.6945ZM114.429 25.4208V25.6213H114.645L114.633 25.4101L114.429 25.4208ZM111.275 25.4208L111.071 25.4099L111.059 25.6213H111.275V25.4208ZM111.353 24.0234L111.349 23.8229L111.159 23.8272L111.149 24.0123L111.353 24.0234ZM25.143 23.78L25.3474 23.7919L25.3603 23.5794H25.143V23.78ZM25.1013 24.4662L24.8968 24.4543L24.8965 24.4602V24.4662H25.1013ZM25.1013 25.3523L25.0922 25.5527L25.3061 25.5619V25.3523H25.1013ZM22.4201 25.2353L22.4292 25.0349L22.4234 25.0347L22.4177 25.0348L22.4201 25.2353ZM18.8666 25.3239L18.8573 25.5245H18.8668L18.8666 25.3239ZM18.8059 24.5201L18.6022 24.5424L18.6029 24.5475L18.8059 24.5201ZM18.7211 23.78V23.5794H18.492L18.5175 23.8023L18.7211 23.78ZM85.5452 34.811H85.3404V35.6971H85.5452H85.75V34.811H85.5452ZM85.5452 35.6971L85.5545 35.4967L82.9214 35.3792L82.9121 35.5796L82.9027 35.7799L85.5359 35.8975L85.5452 35.6971ZM82.9121 35.5796L82.9096 35.379C82.0972 35.3884 81.258 35.4108 80.6048 35.4307C79.9465 35.4508 79.4871 35.4681 79.4214 35.4681V35.6687V35.8693C79.4955 35.8693 79.9709 35.8515 80.6176 35.8317C81.2697 35.8118 82.1059 35.7896 82.9145 35.7801L82.9121 35.5796ZM79.4214 35.6687L79.4316 35.4684C79.472 35.4704 79.5147 35.4904 79.5426 35.5254C79.563 35.551 79.5646 35.5713 79.5633 35.5635C79.5603 35.5465 79.56 35.5081 79.5652 35.4288C79.5743 35.2889 79.5971 35.0651 79.5658 34.8381L79.3628 34.865L79.1598 34.8918C79.1843 35.0694 79.1668 35.2442 79.1564 35.4032C79.1518 35.4735 79.147 35.5597 79.1594 35.6309C79.1657 35.6671 79.1799 35.7224 79.2198 35.7724C79.2671 35.8316 79.336 35.8656 79.4113 35.8693L79.4214 35.6687ZM79.3628 34.865L79.5664 34.8428L79.4823 34.1026L79.2787 34.1248L79.0752 34.1469L79.1592 34.8872L79.3628 34.865ZM79.2787 34.1248V34.3254H85.5862V34.1248V33.9242H79.2787V34.1248ZM85.5862 34.1248L85.3817 34.1131L85.3407 34.7993L85.5452 34.811L85.7497 34.8227L85.7906 34.1365L85.5862 34.1248ZM105.487 23.9059L105.488 24.1065C106.178 24.1045 106.818 24.1106 106.92 24.1207L106.941 23.9211L106.962 23.7215C106.831 23.7087 106.162 23.7034 105.486 23.7053L105.487 23.9059ZM106.941 23.9211L106.925 24.1211C106.95 24.123 106.946 24.1267 106.936 24.1192C106.922 24.1106 106.923 24.1037 106.932 24.1234C106.955 24.1776 106.976 24.2924 106.998 24.5451L107.202 24.5277L107.406 24.5103C107.385 24.2728 107.362 24.091 107.31 23.9678C107.28 23.8988 107.235 23.833 107.163 23.7859C107.093 23.7401 107.019 23.7259 106.957 23.7211L106.941 23.9211ZM107.202 24.5277L106.998 24.547L107.057 25.1392L107.261 25.1199L107.465 25.1005L107.406 24.5084L107.202 24.5277ZM107.261 25.1199L107.258 24.9193L106.197 24.9324L106.199 25.133L106.202 25.3336L107.263 25.3204L107.261 25.1199ZM106.199 25.133L106.197 24.9324C105.77 24.9379 104.562 24.939 103.18 24.9386V25.1392V25.3398C104.56 25.3402 105.772 25.339 106.202 25.3336L106.199 25.133ZM103.18 25.1392L102.976 25.1341L102.865 29.3841L103.07 29.3892L103.274 29.3943L103.385 25.1443L103.18 25.1392ZM103.07 29.3892L102.865 29.3906C102.885 32.2161 102.955 35.2032 102.955 35.4495H103.16H103.365C103.365 35.2105 103.294 32.1911 103.274 29.3879L103.07 29.3892ZM103.16 35.4495L102.955 35.4442C102.955 35.4479 102.955 35.4278 102.973 35.4025C102.993 35.3755 103.018 35.3651 103.028 35.3622C103.03 35.3615 103.01 35.3651 102.925 35.3559C102.79 35.3409 102.542 35.298 102.291 35.3568L102.339 35.5519L102.387 35.7469C102.55 35.7087 102.71 35.7357 102.879 35.7545C102.948 35.7621 103.055 35.7735 103.147 35.746C103.201 35.7298 103.261 35.6973 103.306 35.6365C103.35 35.5774 103.363 35.5116 103.365 35.4548L103.16 35.4495ZM102.339 35.5519L102.3 35.355L101.544 35.5003L101.583 35.6971L101.623 35.894L102.379 35.7488L102.339 35.5519ZM101.583 35.6971H101.788V25.1385H101.583H101.379V35.6971H101.583ZM101.583 25.1385L101.584 24.9379C101.573 24.9379 101.561 24.9379 101.55 24.9379C101.539 24.938 101.528 24.938 101.518 24.9379L101.517 25.1385V25.3391C101.528 25.3391 101.539 25.3391 101.551 25.3391C101.562 25.3391 101.573 25.3391 101.583 25.3391V25.1385ZM101.517 25.1385L101.518 24.9379C100.02 24.936 99.1156 24.9333 98.5695 24.9281C98.2961 24.9256 98.1138 24.9225 97.9931 24.9186C97.8665 24.9145 97.818 24.9099 97.8021 24.9072L97.766 25.1046L97.7298 25.3021C97.7797 25.3108 97.8578 25.3157 97.9793 25.3196C98.1059 25.3236 98.2918 25.3267 98.5659 25.3293C99.1134 25.3344 100.02 25.3372 101.517 25.3391V25.1385ZM97.766 25.1046L97.8079 24.9083C97.8904 24.9252 97.9092 24.9895 97.9034 24.9743C97.9005 24.9678 97.8947 24.9447 97.8918 24.8991C97.886 24.811 97.8947 24.6862 97.9157 24.5544C97.9374 24.4229 97.9692 24.2973 98.0046 24.2072C98.0227 24.1614 98.0379 24.1334 98.048 24.1196C98.0632 24.0984 98.0466 24.1347 97.988 24.1439L97.9555 23.946L97.9222 23.748C97.813 23.7654 97.7464 23.8428 97.7139 23.8873C97.6763 23.9394 97.6459 24.0021 97.622 24.0633C97.5736 24.1875 97.5352 24.3422 97.5114 24.4915C97.4868 24.6405 97.4745 24.7968 97.4832 24.9246C97.4868 24.9869 97.4969 25.0553 97.52 25.1158C97.5396 25.1677 97.5938 25.2744 97.724 25.3011L97.766 25.1046ZM97.9555 23.946L97.9902 24.1437C97.9887 24.1439 98.0017 24.1422 98.0422 24.1403C98.0784 24.1386 98.129 24.1368 98.1949 24.1352C98.3272 24.132 98.5174 24.1291 98.7749 24.1267C99.2906 24.1218 100.072 24.1183 101.183 24.1155V23.9149L101.183 23.7143C100.07 23.7171 99.2884 23.7206 98.7713 23.7255C98.5131 23.728 98.32 23.7308 98.1847 23.7342C98.0589 23.7372 97.9641 23.7409 97.9207 23.7483L97.9555 23.946ZM101.183 23.9149V24.1155C102.869 24.1135 104.804 24.1103 105.488 24.1065L105.487 23.9059L105.486 23.7053C104.803 23.7091 102.869 23.7123 101.183 23.7143L101.183 23.9149ZM25.0455 34.7993H24.8406V35.6854H25.0455H25.2503V34.7993H25.0455ZM25.0455 35.6854L25.0548 35.485L22.4216 35.3674L22.4123 35.5678L22.403 35.7681L25.0361 35.8858L25.0455 35.6854ZM22.4123 35.5678L22.4099 35.3672C21.5981 35.3767 20.7597 35.3989 20.107 35.4186C19.4491 35.4385 18.9893 35.4557 18.9222 35.4557L18.9224 35.6563L18.9226 35.8569C18.9977 35.8569 19.473 35.8392 20.1196 35.8196C20.7713 35.7998 21.6068 35.7778 22.4148 35.7683L22.4123 35.5678ZM18.9224 35.6563L18.9319 35.4559C18.9719 35.4577 19.0147 35.4774 19.0428 35.5123C19.0636 35.5381 19.0652 35.5587 19.0639 35.5509C19.0609 35.5342 19.0606 35.496 19.0657 35.4168C19.0747 35.277 19.0973 35.0533 19.066 34.8264L18.8631 34.8532L18.6601 34.8801C18.6846 35.0578 18.6671 35.2325 18.6568 35.3916C18.6523 35.4618 18.6476 35.548 18.6602 35.6192C18.6666 35.6555 18.681 35.7108 18.7212 35.7608C18.7688 35.82 18.8379 35.8535 18.9129 35.8569L18.9224 35.6563ZM18.8631 34.8532L19.0666 34.8311L18.9826 34.0908L18.779 34.113L18.5754 34.1352L18.6594 34.8754L18.8631 34.8532ZM18.779 34.113V34.3136H25.0865V34.113V33.9125H18.779V34.113ZM25.0865 34.113L24.882 34.1013L24.841 34.7876L25.0455 34.7993L25.2499 34.8109L25.2909 34.1248L25.0865 34.113ZM46.4173 35.6286L46.46 35.4324L45.7042 35.2748L45.6615 35.4709L45.6188 35.6671L46.3746 35.8248L46.4173 35.6286ZM45.6615 35.4709L45.7129 35.2767C45.4592 35.2123 45.2077 35.2595 45.0737 35.2755C44.9889 35.2857 44.9718 35.2811 44.9776 35.283C44.99 35.287 45.0139 35.2991 45.0317 35.3253C45.0473 35.3483 45.0458 35.3644 45.0455 35.3554L44.8408 35.3603L44.636 35.3651C44.6374 35.4217 44.6498 35.4873 44.6902 35.5469C44.7327 35.6097 44.7922 35.6456 44.8496 35.6641C44.9452 35.6949 45.0555 35.6819 45.1234 35.6738C45.2948 35.6532 45.4504 35.6247 45.6101 35.6653L45.6615 35.4709ZM44.8408 35.3603H45.0455C45.0456 35.1468 45.091 32.9611 45.119 30.5058L44.9142 30.5036L44.7094 30.5014C44.6815 32.9465 44.6359 35.1452 44.6359 35.3603H44.8408ZM44.9142 30.5036L44.9227 30.3032L42.4188 30.2008L42.4103 30.4012L42.4018 30.6016L44.9057 30.704L44.9142 30.5036ZM42.4103 30.4012L42.4081 30.2006C40.7984 30.2179 39.0894 30.2759 38.6805 30.2865L38.6859 30.487L38.6913 30.6875C39.1051 30.6768 40.8071 30.619 42.4126 30.6018L42.4103 30.4012ZM38.6859 30.487L38.4811 30.4892C38.5091 32.9742 38.5567 35.2012 38.5567 35.4163H38.7615H38.9663C38.9663 35.1998 38.9186 32.959 38.8907 30.4848L38.6859 30.487ZM38.7615 35.4163L38.5567 35.4113C38.5565 35.42 38.5551 35.4039 38.5707 35.3809C38.5884 35.3547 38.6123 35.3428 38.6246 35.3388C38.6302 35.3369 38.6131 35.3415 38.5283 35.3314C38.3943 35.3154 38.1429 35.2684 37.8893 35.3328L37.9407 35.5269L37.9921 35.7211C38.1518 35.6806 38.3074 35.7092 38.4788 35.7296C38.5467 35.7377 38.6568 35.7507 38.7524 35.7199C38.8097 35.7015 38.8692 35.6658 38.9118 35.6031C38.9522 35.5434 38.9649 35.478 38.9663 35.4213L38.7615 35.4163ZM37.9407 35.5269L37.898 35.3308L37.1423 35.4885L37.185 35.6847L37.2276 35.8809L37.9835 35.7233L37.9407 35.5269ZM37.185 35.6847H37.3898V23.836H37.185H36.9801V35.6847H37.185ZM37.185 23.836L37.1622 24.0353L37.8629 24.1121L37.8857 23.9127L37.9084 23.7134L37.2078 23.6366L37.185 23.836ZM37.8857 23.9127V24.1133H38.7904V23.9127V23.7122H37.8857V23.9127ZM38.7904 23.9127L38.5857 23.908L38.4655 28.8539L38.6704 28.8587L38.8751 28.8634L38.9952 23.9176L38.7904 23.9127ZM38.6704 28.8587L38.4655 28.8599C38.4657 28.8854 38.4661 28.9234 38.4662 28.9478L38.6711 28.9465L38.8759 28.9452C38.8757 28.911 38.8754 28.8903 38.8752 28.8574L38.6704 28.8587ZM38.6711 28.9465V29.1471H44.9298V28.9465V28.7459H38.6711V28.9465ZM44.9298 28.9465L45.1346 28.9479C45.1348 28.9135 45.1359 28.8414 45.1361 28.8046L44.9312 28.8033L44.7264 28.8021C44.726 28.8606 44.7254 28.884 44.7249 28.9452L44.9298 28.9465ZM44.9312 28.8033L45.136 28.7986L45.0165 23.852L44.8118 23.8567L44.607 23.8615L44.7264 28.808L44.9312 28.8033ZM44.8118 23.8567V24.0573H45.7166V23.8567V23.6562H44.8118V23.8567ZM45.7166 23.8567L45.7394 24.0561L46.44 23.9793L46.4173 23.78L46.3945 23.5806L45.6938 23.6574L45.7166 23.8567ZM46.4173 23.78H46.2125V35.6286H46.4173H46.6221V23.78H46.4173ZM95.9072 27.0207V27.2213H96.7953V27.0207V26.8202H95.9072V27.0207ZM96.7953 27.0207L96.5906 27.0143L96.4727 30.6362L96.6774 30.6426L96.8821 30.6491L97 27.0271L96.7953 27.0207ZM96.6774 30.6426L96.4727 30.6443C96.4915 32.8873 96.5617 35.2452 96.5617 35.444L96.7664 35.4439H96.9711C96.9711 35.2547 96.9009 32.8558 96.8821 30.641L96.6774 30.6426ZM96.7664 35.4439L96.5617 35.4375C96.5624 35.4262 96.5668 35.3957 96.5935 35.3663C96.6181 35.3394 96.6434 35.3328 96.6456 35.3322C96.6478 35.3318 96.6405 35.3335 96.6174 35.3334C96.5957 35.3332 96.5682 35.3314 96.5321 35.3282C96.3961 35.3163 96.1603 35.2835 95.9216 35.3286L95.9607 35.5256L95.9997 35.7225C96.1668 35.6908 96.331 35.7133 96.4952 35.7278C96.5639 35.7338 96.6608 35.7418 96.744 35.7217C96.791 35.7105 96.851 35.6864 96.9002 35.6326C96.9508 35.5764 96.9689 35.5097 96.9711 35.4504L96.7664 35.4439ZM95.9607 35.5256L95.9288 35.3275L95.1868 35.4423L95.2186 35.6404L95.2511 35.8385L95.9925 35.7238L95.9607 35.5256ZM95.2186 35.6404H95.424V32.096H95.2186H95.0139V35.6404H95.2186ZM95.2186 32.096L95.2273 31.8955L92.5389 31.7862L92.5309 31.9867L92.5222 32.1871L95.2106 32.2964L95.2186 32.096ZM92.5309 31.9867L92.5288 31.7861C90.8862 31.8037 89.1387 31.8639 88.7772 31.8726L88.7823 32.0732L88.7873 32.2737C89.1557 32.2648 90.8942 32.2048 92.5331 32.1873L92.5309 31.9867ZM88.7823 32.0732L88.5775 32.0763C88.6053 33.8128 88.648 35.3217 88.648 35.4723H88.8529H89.0577C89.0577 35.3192 89.0147 33.7933 88.987 32.07L88.7823 32.0732ZM88.8529 35.4723L88.6482 35.4654C88.6486 35.454 88.6535 35.4234 88.6802 35.394C88.7048 35.3671 88.7302 35.3607 88.7326 35.3602C88.7343 35.3598 88.727 35.3615 88.7039 35.3613C88.682 35.3611 88.6543 35.3593 88.6181 35.3561C88.4821 35.344 88.2466 35.3111 88.0081 35.3563L88.047 35.5532L88.0858 35.7502C88.2531 35.7185 88.4172 35.7411 88.5811 35.7556C88.6496 35.7617 88.7468 35.7697 88.8298 35.7499C88.8764 35.7387 88.9368 35.7149 88.9857 35.6613C89.0369 35.6053 89.0556 35.5386 89.0577 35.4792L88.8529 35.4723ZM88.047 35.5532L88.0148 35.3552L87.2732 35.4707L87.3054 35.6687L87.3376 35.8669L88.0792 35.7515L88.047 35.5532ZM87.3054 35.6687H87.5102V26.9924H87.3054H87.1005V35.6687H87.3054ZM87.3054 26.9924L87.2881 27.1922L87.9761 27.249L87.9933 27.0491L88.0105 26.8492L87.3225 26.7925L87.3054 26.9924ZM87.9933 27.0491V27.2497H88.8819V27.0491V26.8485H87.9933V27.0491ZM88.8819 27.0491L88.6771 27.0426L88.5634 30.5248L88.7681 30.5313L88.9729 30.5377L89.0866 27.0555L88.8819 27.0491ZM88.7681 30.5313V30.7319H95.2186V30.5313V30.3307H88.7681V30.5313ZM95.2186 30.5313H95.424V26.9647H95.2186H95.0139V30.5313H95.2186ZM95.2186 26.9647L95.202 27.1646L95.8898 27.2207L95.9072 27.0207L95.9238 26.8208L95.236 26.7648L95.2186 26.9647ZM116.779 27.0207V27.2213H117.668V27.0207V26.8202H116.779V27.0207ZM117.668 27.0207L117.464 27.0143L117.345 30.6362L117.55 30.6426L117.755 30.6491L117.873 27.0271L117.668 27.0207ZM117.55 30.6426L117.345 30.6443C117.364 32.8873 117.434 35.2452 117.434 35.444L117.639 35.4439H117.844C117.844 35.2547 117.774 32.8558 117.755 30.641L117.55 30.6426ZM117.639 35.4439L117.434 35.4375C117.435 35.4262 117.44 35.3957 117.466 35.3663C117.49 35.3394 117.516 35.3328 117.518 35.3322C117.52 35.3318 117.513 35.3335 117.49 35.3334C117.468 35.3332 117.44 35.3314 117.404 35.3282C117.268 35.3163 117.032 35.2835 116.794 35.3286L116.833 35.5256L116.872 35.7225C117.04 35.6908 117.203 35.7133 117.367 35.7278C117.436 35.7338 117.534 35.7418 117.616 35.7217C117.663 35.7105 117.724 35.6864 117.772 35.6326C117.823 35.5764 117.842 35.5097 117.844 35.4504L117.639 35.4439ZM116.833 35.5256L116.801 35.3275L116.059 35.4423L116.091 35.6404L116.123 35.8385L116.865 35.7238L116.833 35.5256ZM116.091 35.6404H116.295V32.096H116.091H115.886V35.6404H116.091ZM116.091 32.096L116.099 31.8955L113.413 31.7862L113.405 31.9867L113.396 32.1871L116.082 32.2964L116.091 32.096ZM113.405 31.9867L113.402 31.7861C111.758 31.8037 110.008 31.8641 109.65 31.8726L109.654 32.0732L109.659 32.2737C110.025 32.2649 111.766 32.2048 113.407 32.1873L113.405 31.9867ZM109.654 32.0732L109.45 32.0763C109.478 33.8128 109.521 35.3217 109.521 35.4723H109.725H109.93C109.93 35.3192 109.887 33.7933 109.86 32.07L109.654 32.0732ZM109.725 35.4723L109.521 35.4654C109.521 35.454 109.526 35.4234 109.552 35.394C109.577 35.3672 109.602 35.3607 109.605 35.3602C109.607 35.3598 109.599 35.3615 109.576 35.3613C109.555 35.3611 109.527 35.3593 109.491 35.3561C109.355 35.344 109.119 35.3111 108.88 35.3563L108.92 35.5532L108.959 35.7502C109.126 35.7185 109.29 35.7411 109.453 35.7556C109.522 35.7617 109.619 35.7697 109.702 35.7499C109.749 35.7387 109.809 35.7149 109.858 35.6613C109.909 35.6053 109.928 35.5386 109.93 35.4792L109.725 35.4723ZM108.92 35.5532L108.887 35.3552L108.145 35.4707L108.177 35.6687L108.209 35.8669L108.951 35.7515L108.92 35.5532ZM108.177 35.6687H108.382V26.9924H108.177H107.972V35.6687H108.177ZM108.177 26.9924L108.16 27.1922L108.848 27.249L108.865 27.0491L108.882 26.8492L108.194 26.7925L108.177 26.9924ZM108.865 27.0491V27.2497H109.754V27.0491V26.8485H108.865V27.0491ZM109.754 27.0491L109.549 27.0426L109.436 30.5248L109.641 30.5313L109.845 30.5377L109.959 27.0555L109.754 27.0491ZM109.641 30.5313V30.7319H116.091V30.5313V30.3307H109.641V30.5313ZM116.091 30.5313H116.295V26.9647H116.091H115.886V30.5313H116.091ZM116.091 26.9647L116.073 27.1646L116.762 27.2207L116.779 27.0207L116.796 26.8208L116.107 26.7648L116.091 26.9647ZM131.802 35.6411L131.844 35.4448L131.088 35.2879L131.047 35.4841L131.004 35.6803L131.76 35.8373L131.802 35.6411ZM131.047 35.4841L131.098 35.2899C130.844 35.2255 130.593 35.2725 130.459 35.2884C130.375 35.2983 130.357 35.2937 130.363 35.2957C130.376 35.2997 130.4 35.3118 130.417 35.3379C130.432 35.3609 130.431 35.3768 130.431 35.3678L130.226 35.3727L130.022 35.3775C130.023 35.4342 130.035 35.4996 130.075 35.5592C130.118 35.6219 130.177 35.6579 130.234 35.6765C130.33 35.7075 130.44 35.6947 130.508 35.6866C130.68 35.6663 130.835 35.6379 130.995 35.6784L131.047 35.4841ZM130.226 35.3727H130.431C130.431 35.1057 130.502 31.8721 130.521 28.817L130.317 28.8157L130.112 28.8145C130.093 31.8488 130.022 35.1125 130.022 35.3726L130.226 35.3727ZM130.317 28.8157L130.521 28.8109L130.474 26.8603L130.268 26.8651L130.064 26.8699L130.112 28.8206L130.317 28.8157ZM130.268 26.8651L130.077 26.7929C129.62 27.9546 129.089 29.3251 128.627 30.5882L128.82 30.6558L129.013 30.7234C129.473 29.4649 130.003 28.098 130.46 26.9372L130.268 26.8651ZM128.82 30.6558L128.628 30.5867L126.765 35.556L126.956 35.6252L127.149 35.6943L129.012 30.7249L128.82 30.6558ZM126.956 35.6252V35.4246H126.447V35.6252V35.8258H126.956V35.6252ZM126.447 35.6252L126.337 35.4559C126.362 35.4408 126.379 35.4404 126.368 35.4418C126.361 35.4428 126.344 35.444 126.312 35.4431C126.249 35.4414 126.153 35.4323 126.008 35.4138L125.982 35.6127L125.955 35.8116C126.102 35.8303 126.215 35.8418 126.3 35.8441C126.343 35.8453 126.385 35.8444 126.423 35.8393C126.46 35.8345 126.51 35.8239 126.557 35.7945L126.447 35.6252ZM125.982 35.6127L125.975 35.4122L125.087 35.4406L125.093 35.6411L125.1 35.8416L125.989 35.8132L125.982 35.6127ZM125.093 35.6411L125.278 35.5541L122.236 29.3631L122.052 29.4501L121.868 29.537L124.909 35.728L125.093 35.6411ZM122.052 29.4501L122.245 29.3833L121.474 27.2418L121.281 27.3085L121.088 27.3752L121.859 29.5168L122.052 29.4501ZM121.281 27.3085L121.076 27.3038L121.04 28.8111L121.245 28.8157L121.449 28.8205L121.486 27.3132L121.281 27.3085ZM121.245 28.8157L121.04 28.817C121.06 31.8723 121.131 35.1055 121.131 35.3727H121.336L121.541 35.3726C121.541 35.1126 121.469 31.8486 121.449 28.8145L121.245 28.8157ZM121.336 35.3727L121.131 35.3678C121.13 35.3768 121.129 35.3608 121.145 35.3378C121.162 35.3117 121.186 35.2996 121.198 35.2956C121.204 35.2937 121.188 35.2983 121.102 35.2883C120.968 35.2724 120.717 35.2255 120.464 35.2899L120.515 35.4841L120.566 35.6782C120.726 35.6376 120.882 35.6663 121.053 35.6866C121.121 35.6947 121.232 35.7075 121.327 35.6765C121.384 35.658 121.444 35.6221 121.486 35.5593C121.527 35.4997 121.539 35.4342 121.541 35.3775L121.336 35.3727ZM120.515 35.4841L120.472 35.2879L119.716 35.4448L119.759 35.6411L119.802 35.8373L120.558 35.6805L120.515 35.4841ZM119.759 35.6411H119.964V23.7924H119.759H119.554V35.6411H119.759ZM119.759 23.7924L119.737 23.9918L120.437 24.0686L120.46 23.8692L120.482 23.6698L119.782 23.5931L119.759 23.7924ZM120.46 23.8692V24.0698H121.365V23.8692V23.6686H120.46V23.8692ZM121.365 23.8692L121.161 23.8492L121.16 23.8561L121.364 23.8761L121.568 23.8961L121.569 23.8891L121.365 23.8692ZM121.364 23.8761V24.0767H121.968V23.8761V23.6755H121.364V23.8761ZM121.968 23.8761L121.776 23.9452L123.64 28.9153L123.832 28.8462L124.024 28.7771L122.16 23.807L121.968 23.8761ZM123.832 28.8462L123.639 28.9138C124.259 30.6114 125.005 32.4853 125.53 33.789L125.72 33.7153L125.911 33.6417C125.386 32.3388 124.643 30.4698 124.025 28.7786L123.832 28.8462ZM125.72 33.7153L125.913 33.782L127.233 30.1186L127.04 30.0519L126.847 29.9851L125.527 33.6486L125.72 33.7153ZM127.04 30.0519L127.225 30.1388L130.266 23.9479L130.082 23.8609L129.897 23.7739L126.855 29.9649L127.04 30.0519ZM130.082 23.8609V24.0615H130.97V23.8609V23.6603H130.082V23.8609ZM130.97 23.8609L130.997 24.0598C131.128 24.0429 131.222 24.0329 131.287 24.0288C131.361 24.0242 131.374 24.0294 131.363 24.0262L131.421 23.8339L131.48 23.6416C131.413 23.6222 131.333 23.624 131.261 23.6284C131.181 23.6334 131.077 23.645 130.944 23.662L130.97 23.8609ZM131.421 23.8339L131.444 24.0333L131.825 23.9918L131.802 23.7924L131.779 23.5931L131.399 23.6346L131.421 23.8339ZM131.802 23.7924H131.597V35.6411H131.802H132.007V23.7924H131.802ZM34.0355 23.8367L34.0361 24.0373C34.7269 24.0353 35.3666 24.0414 35.4693 24.0515L35.4898 23.8519L35.5103 23.6523C35.3804 23.6395 34.7108 23.6342 34.0349 23.6361L34.0355 23.8367ZM35.4898 23.8519L35.4737 24.0519C35.4991 24.0538 35.4953 24.0575 35.4841 24.0501C35.4708 24.0414 35.4722 24.0345 35.4807 24.0542C35.5039 24.1084 35.5246 24.2232 35.5471 24.4759L35.7512 24.4586L35.9552 24.4412C35.9341 24.2036 35.9111 24.0218 35.8583 23.8986C35.8286 23.8296 35.7838 23.7638 35.712 23.7167C35.6422 23.6709 35.5676 23.6567 35.5059 23.6519L35.4898 23.8519ZM35.7512 24.4586L35.5473 24.4779L35.6059 25.07L35.8097 25.0507L36.0136 25.0313L35.955 24.4392L35.7512 24.4586ZM35.8097 25.0507L35.8072 24.8501L34.7456 24.8632L34.7482 25.0638L34.7507 25.2644L35.8123 25.2513L35.8097 25.0507ZM34.7482 25.0638L34.7456 24.8632C34.3189 24.8687 33.1113 24.8699 31.7301 24.8695L31.7301 25.07L31.73 25.2706C33.1096 25.271 34.3206 25.2699 34.7507 25.2644L34.7482 25.0638ZM31.7301 25.07L31.5253 25.0649L31.4136 29.3155L31.6185 29.3207L31.8232 29.3259L31.9348 25.0752L31.7301 25.07ZM31.6185 29.3207L31.4136 29.3221C31.4331 32.1478 31.5048 35.1346 31.5048 35.381H31.7096H31.9144C31.9144 35.1422 31.8426 32.1224 31.8233 29.3194L31.6185 29.3207ZM31.7096 35.381L31.5048 35.3755C31.5048 35.3792 31.5045 35.359 31.5231 35.3338C31.543 35.3067 31.5676 35.2964 31.5771 35.2935C31.5793 35.2929 31.5586 35.2965 31.4745 35.2873C31.3391 35.2723 31.0913 35.2296 30.8411 35.2883L30.8888 35.4834L30.9366 35.6784C31.0995 35.6402 31.2588 35.6672 31.4288 35.6859C31.4973 35.6935 31.6039 35.7049 31.6961 35.6774C31.7505 35.6612 31.8109 35.6289 31.8556 35.5681C31.8989 35.5091 31.9128 35.4433 31.9144 35.3865L31.7096 35.381ZM30.8888 35.4834L30.8494 35.2865L30.0937 35.4318L30.1331 35.6286L30.1725 35.8255L30.9283 35.6803L30.8888 35.4834ZM30.1331 35.6286H30.3379V25.0694H30.1331H29.9283V35.6286H30.1331ZM30.1331 25.0694L30.1334 24.8688C30.1219 24.8687 30.1104 24.8688 30.0993 24.8688C30.0881 24.8688 30.0772 24.8688 30.0664 24.8688L30.066 25.0694L30.0656 25.2699C30.0771 25.27 30.0886 25.27 30.0997 25.2699C30.111 25.2699 30.1219 25.2699 30.1327 25.2699L30.1331 25.0694ZM30.066 25.0694L30.0664 24.8688C28.5687 24.8669 27.6643 24.8641 27.1183 24.859C26.845 24.8564 26.6629 24.8533 26.5415 24.8494C26.4153 24.8454 26.3665 24.8407 26.3507 24.838L26.3147 25.0354L26.2787 25.2329C26.3284 25.2416 26.4068 25.2465 26.5282 25.2504C26.6545 25.2544 26.8405 25.2576 27.1143 25.2601C27.6624 25.2653 28.5682 25.2681 30.0656 25.2699L30.066 25.0694ZM26.3147 25.0354L26.3565 24.8391C26.4393 24.856 26.4578 24.9203 26.4519 24.9051C26.4494 24.8987 26.4434 24.8756 26.4404 24.8299C26.4347 24.7418 26.4432 24.6169 26.4645 24.4849C26.4858 24.3534 26.5179 24.2276 26.5533 24.1374C26.5712 24.0916 26.5867 24.0635 26.5967 24.0498C26.6122 24.0285 26.5954 24.0647 26.5369 24.0741L26.504 23.8761L26.4711 23.6781C26.3618 23.6956 26.295 23.773 26.2627 23.8175C26.2249 23.8697 26.1949 23.9323 26.1708 23.9936C26.1221 24.1179 26.0841 24.2726 26.0599 24.4221C26.0358 24.5711 26.0233 24.7276 26.0316 24.8553C26.0356 24.9176 26.0453 24.9861 26.0687 25.0467C26.0886 25.0985 26.143 25.2054 26.273 25.2319L26.3147 25.0354ZM26.504 23.8761L26.5385 24.0738C26.5373 24.074 26.5504 24.0724 26.5909 24.0705C26.6274 24.0687 26.6778 24.067 26.744 24.0655C26.8761 24.0623 27.0667 24.0596 27.3246 24.0572C27.84 24.0524 28.6207 24.0491 29.7325 24.0463L29.7319 23.8457L29.7317 23.6451C28.6199 23.648 27.8376 23.6513 27.3206 23.656C27.0623 23.6584 26.8693 23.6611 26.7339 23.6644C26.6078 23.6674 26.5135 23.671 26.4695 23.6784L26.504 23.8761ZM29.7319 23.8457L29.7325 24.0463C31.4188 24.0443 33.3521 24.0411 34.0361 24.0373L34.0355 23.8367L34.0349 23.6361C33.3521 23.6399 31.4184 23.6431 29.7317 23.6451L29.7319 23.8457ZM79.2787 34.1248L79.3173 33.9278L78.5884 33.7909L78.5498 33.9879L78.5112 34.1848L79.2402 34.3218L79.2787 34.1248ZM78.5498 33.9879L78.5965 33.7926C78.3545 33.737 78.115 33.7776 77.9848 33.7916C77.9036 33.8003 77.8844 33.7967 77.8875 33.7977C77.8972 33.8004 77.9227 33.8108 77.9434 33.8387C77.9632 33.865 77.9635 33.887 77.9635 33.8856L77.7588 33.891L77.554 33.8963C77.5555 33.9522 77.5694 34.0173 77.6129 34.0756C77.6575 34.1353 77.7174 34.1666 77.7703 34.182C77.8601 34.2083 77.9636 34.1975 78.0295 34.1904C78.1937 34.1727 78.3466 34.1474 78.5031 34.1833L78.5498 33.9879ZM77.7588 33.891H77.9635C77.9635 33.6582 78.0325 30.8409 78.0513 28.1739L77.8464 28.1724L77.6415 28.1711C77.6229 30.8152 77.5539 33.6658 77.5539 33.891H77.7588ZM77.8464 28.1724L78.0511 28.1672L77.9353 23.8542L77.7305 23.8595L77.5257 23.8648L77.6416 28.1778L77.8464 28.1724ZM77.7305 23.8595V24.0601H78.6035V23.8595V23.6589H77.7305V23.8595ZM78.6035 23.8595L78.6242 24.0591L79.2994 23.992L79.2787 23.7924L79.258 23.5929L78.5828 23.6599L78.6035 23.8595ZM79.2787 23.7924H79.0739V34.1248H79.2787H79.4836V23.7924H79.2787ZM18.779 29.4612L18.9835 29.4723L19.0061 29.0753L18.8016 29.0641L18.5971 29.0529L18.5745 29.45L18.779 29.4612ZM18.8016 29.0641L18.8064 29.2646L20.1801 29.2335L20.1754 29.033L20.1707 28.8325L18.7969 28.8636L18.8016 29.0641ZM20.1754 29.033L20.1801 29.2335C20.9399 29.2148 21.6043 29.2024 21.6672 29.2024L21.6671 29.0018L21.6671 28.8012C21.5979 28.8013 20.9281 28.8138 20.1707 28.8325L20.1754 29.033ZM21.6671 29.0018L21.6474 29.2015C21.5718 29.1943 21.5348 29.1472 21.5321 29.144C21.5248 29.135 21.5249 29.1322 21.53 29.1436C21.5396 29.165 21.553 29.2053 21.5673 29.2665C21.5954 29.3865 21.6204 29.5572 21.633 29.748L21.8374 29.7351L22.0418 29.7221C22.0281 29.5154 22.0007 29.3226 21.9666 29.1769C21.9498 29.1052 21.9297 29.0372 21.9053 28.9827C21.8934 28.9561 21.8765 28.9234 21.8522 28.8937C21.8326 28.8697 21.7788 28.8109 21.6869 28.8022L21.6671 29.0018ZM21.8374 29.7351L21.6328 29.7457L21.6724 30.4728L21.8769 30.4621L22.0815 30.4514L22.0419 29.7244L21.8374 29.7351ZM21.8769 30.4621V30.2615H18.779V30.4621V30.6627H21.8769V30.4621ZM18.779 30.4621H18.5742V34.1117H18.779H18.9838V30.4621H18.779ZM18.779 34.1117L18.8121 33.9137L18.0832 33.7968L18.0501 33.9947L18.017 34.1927L18.7459 34.3096L18.779 34.1117ZM18.0501 33.9947L18.09 33.798C17.8542 33.7521 17.6213 33.7856 17.4885 33.7978C17.453 33.801 17.4262 33.8028 17.4051 33.8031C17.3828 33.8033 17.3765 33.8015 17.3793 33.8021C17.3831 33.8031 17.4089 33.8102 17.4333 33.8376C17.4592 33.8669 17.4634 33.8967 17.4637 33.9065L17.259 33.9131L17.0543 33.9198C17.0563 33.978 17.0739 34.0442 17.1238 34.1005C17.172 34.155 17.2323 34.1796 17.2794 34.1912C17.3626 34.2117 17.4598 34.2033 17.5267 34.1972C17.6882 34.1824 17.8475 34.16 18.0101 34.1916L18.0501 33.9947ZM17.259 33.9131H17.4638C17.4638 33.7147 17.5321 31.3313 17.5509 29.0664L17.3459 29.0648L17.1411 29.0632C17.1225 31.3014 17.0541 33.7234 17.0541 33.9131H17.259ZM17.3459 29.0648L17.5506 29.0586L17.4355 25.4014L17.2308 25.4076L17.026 25.4138L17.1412 29.071L17.3459 29.0648ZM17.2308 25.4076V25.6082H18.1031V25.4076V25.207H17.2308V25.4076ZM18.1031 25.4076L18.1203 25.6075L18.7963 25.5515L18.779 25.3516L18.7617 25.1517L18.0858 25.2077L18.1031 25.4076ZM18.779 25.3516H18.5742V29.4612H18.779H18.9838V25.3516H18.779ZM89.199 25.4498L89.2194 25.6494C89.4353 25.6282 89.6082 25.6137 89.7478 25.6146C89.8895 25.6156 89.9742 25.6329 90.0262 25.6584C90.0675 25.6785 90.0993 25.7088 90.1232 25.7782C90.1506 25.857 90.1651 25.9813 90.1543 26.1773L90.3589 26.1879L90.5636 26.1985C90.5752 25.9834 90.5629 25.7995 90.5108 25.6496C90.4559 25.4904 90.3568 25.3718 90.2099 25.2997C90.074 25.2329 89.9134 25.2145 89.7507 25.2134C89.5858 25.2123 89.3926 25.2292 89.1786 25.2502L89.199 25.4498ZM90.3589 26.1879L90.1543 26.1995L90.1991 26.95L90.4031 26.9384L90.6077 26.9268L90.5629 26.1762L90.3589 26.1879ZM90.4031 26.9384V26.7379H88.9123V26.9384V27.139H90.4031V26.9384ZM88.9123 26.9384H89.117V26.2577H88.9123H88.7074V26.9384H88.9123ZM88.9123 26.2577H89.117C89.117 26.0984 89.1117 25.967 89.1099 25.8725C89.1079 25.7701 89.1104 25.7181 89.1174 25.6872C89.1201 25.6748 89.1221 25.673 89.1203 25.676C89.1177 25.68 89.1147 25.6824 89.1151 25.6821C89.1221 25.6773 89.15 25.6634 89.2378 25.6467L89.199 25.4498L89.1601 25.2528C89.0635 25.2711 88.9633 25.297 88.882 25.3522C88.7868 25.4167 88.7386 25.5053 88.7171 25.6016C88.6985 25.6854 88.6985 25.7832 88.7003 25.8801C88.7024 25.9852 88.7074 26.103 88.7074 26.2577H88.9123ZM94.1416 25.4899L94.1793 25.6872C94.3962 25.6479 94.5532 25.6257 94.6696 25.6229C94.7875 25.62 94.8338 25.6382 94.8533 25.6514C94.8685 25.6615 94.8953 25.6866 94.9192 25.7768C94.9445 25.8697 94.9597 26.0032 94.9705 26.199L95.1752 26.1879L95.3799 26.1768C95.3683 25.9799 95.3524 25.8103 95.3155 25.6742C95.2779 25.5353 95.2121 25.4056 95.0841 25.3198C94.9597 25.2369 94.81 25.2181 94.6595 25.2218C94.5076 25.2255 94.3225 25.2534 94.1048 25.2926L94.1416 25.4899ZM95.1752 26.1879L94.9705 26.199L95.0154 26.95L95.2193 26.9384L95.424 26.9268L95.3799 26.1768L95.1752 26.1879ZM95.2193 26.9384V26.7379H93.7287V26.9384V27.139H95.2193V26.9384ZM93.7287 26.9384H93.9333V26.2577H93.7287H93.524V26.9384H93.7287ZM93.7287 26.2577H93.9333C93.9333 26.1011 93.9362 25.9878 93.9449 25.9028C93.9543 25.8163 93.9673 25.7772 93.9775 25.7591C93.984 25.7471 93.9898 25.723 94.1807 25.6869L94.1416 25.4899L94.1033 25.293C93.9254 25.3266 93.7243 25.3724 93.6166 25.5699C93.5688 25.6565 93.5486 25.757 93.5377 25.8624C93.5261 25.9694 93.524 26.1004 93.524 26.2577H93.7287ZM110.071 25.4498L110.091 25.6494C110.307 25.6282 110.48 25.6137 110.62 25.6146C110.762 25.6155 110.846 25.6329 110.898 25.6584C110.94 25.6785 110.971 25.7089 110.995 25.7783C111.023 25.857 111.037 25.9814 111.026 26.1773L111.231 26.1879L111.436 26.1985C111.447 25.9834 111.435 25.7995 111.384 25.6496C111.329 25.4903 111.229 25.3717 111.082 25.2997C110.945 25.2329 110.786 25.2145 110.623 25.2134C110.457 25.2123 110.264 25.2292 110.05 25.2502L110.071 25.4498ZM111.231 26.1879L111.026 26.1993L111.071 26.9499L111.275 26.9384L111.479 26.927L111.436 26.1764L111.231 26.1879ZM111.275 26.9384V26.7379H109.785V26.9384V27.139H111.275V26.9384ZM109.785 26.9384H109.989V26.2577H109.785H109.58V26.9384H109.785ZM109.785 26.2577H109.989C109.989 26.0984 109.984 25.967 109.982 25.8725C109.981 25.77 109.983 25.718 109.989 25.687C109.992 25.6746 109.994 25.6728 109.993 25.6758C109.99 25.6798 109.987 25.6822 109.987 25.682C109.994 25.6773 110.022 25.6633 110.109 25.6467L110.071 25.4498L110.032 25.2528C109.935 25.2712 109.835 25.2971 109.753 25.3524C109.659 25.417 109.611 25.5056 109.589 25.6019C109.57 25.6856 109.57 25.7834 109.573 25.8803C109.575 25.9852 109.58 26.1031 109.58 26.2577H109.785ZM115.012 25.4899L115.049 25.6872C115.266 25.6479 115.422 25.6257 115.539 25.6229C115.657 25.62 115.703 25.6382 115.723 25.6514C115.738 25.6615 115.765 25.6867 115.789 25.7768C115.814 25.8697 115.829 26.0032 115.84 26.199L116.044 26.1879L116.249 26.1768C116.238 25.9799 116.222 25.8103 116.185 25.6742C116.148 25.5353 116.082 25.4056 115.953 25.3198C115.829 25.237 115.68 25.2181 115.529 25.2218C115.377 25.2255 115.192 25.2534 114.974 25.2926L115.012 25.4899ZM116.044 26.1879L115.84 26.199L115.884 26.9499L116.089 26.9384L116.293 26.927L116.249 26.1768L116.044 26.1879ZM116.089 26.9384V26.7379H114.598V26.9384V27.139H116.089V26.9384ZM114.598 26.9384H114.803V26.2577H114.598H114.393V26.9384H114.598ZM114.598 26.2577H114.803C114.803 26.1011 114.806 25.9878 114.815 25.9028C114.824 25.8162 114.837 25.7771 114.847 25.759C114.853 25.7471 114.859 25.723 115.05 25.6869L115.012 25.4899L114.973 25.293C114.795 25.3266 114.594 25.3724 114.486 25.5699C114.439 25.6565 114.418 25.757 114.407 25.8624C114.396 25.9694 114.393 26.1004 114.393 26.2577H114.598ZM93.3468 23.9612L93.3251 24.1607C93.2499 24.1529 93.2137 24.1063 93.2115 24.1031C93.2043 24.0944 93.2043 24.0917 93.2094 24.1031C93.2188 24.1246 93.2325 24.165 93.247 24.2262C93.2744 24.3462 93.2998 24.5167 93.3121 24.7073L93.5167 24.6945L93.7214 24.6815C93.7077 24.4749 93.6802 24.2822 93.6462 24.1365C93.6288 24.0649 93.6093 23.997 93.5847 23.9423C93.5732 23.9159 93.5558 23.8832 93.5319 23.8535C93.5124 23.8296 93.4589 23.7711 93.3677 23.7617L93.3468 23.9612ZM93.5167 24.6945L93.3121 24.7049L93.3511 25.4313L93.5558 25.4208L93.7598 25.4102L93.7214 24.684L93.5167 24.6945ZM93.5558 25.4208V25.2202H90.4016V25.4208V25.6213H93.5558V25.4208ZM90.4016 25.4208L90.6063 25.4318L90.6461 24.7297L90.4414 24.7186L90.2367 24.7076L90.1977 25.4097L90.4016 25.4208ZM90.4414 24.7186L90.6461 24.7297L90.6844 24.0344L90.4805 24.0234L90.2758 24.0125L90.2367 24.7076L90.4414 24.7186ZM90.4805 24.0234L90.4848 24.224L91.8597 24.1929L91.8547 23.9924L91.8503 23.7918L90.4754 23.8229L90.4805 24.0234ZM91.8547 23.9924L91.8597 24.1929C92.6199 24.1743 93.2846 24.1618 93.3468 24.1618V23.9612V23.7606C93.2781 23.7606 92.6076 23.7732 91.8496 23.7918L91.8547 23.9924ZM114.219 23.9612L114.199 24.1609C114.123 24.1536 114.087 24.1066 114.084 24.1033C114.076 24.0944 114.076 24.0915 114.081 24.1029C114.092 24.1243 114.105 24.1647 114.119 24.2259C114.147 24.3458 114.172 24.5165 114.185 24.7073L114.389 24.6945L114.594 24.6815C114.58 24.4747 114.552 24.2819 114.518 24.1362C114.502 24.0646 114.481 23.9965 114.457 23.942C114.445 23.9155 114.428 23.8828 114.404 23.853C114.385 23.8289 114.33 23.7703 114.238 23.7615L114.219 23.9612ZM114.389 24.6945L114.185 24.7051L114.224 25.4314L114.429 25.4208L114.633 25.4101L114.594 24.6838L114.389 24.6945ZM114.429 25.4208V25.2202H111.275V25.4208V25.6213H114.429V25.4208ZM111.275 25.4208L111.479 25.4316L111.518 24.7295L111.314 24.7186L111.11 24.7075L111.071 25.4099L111.275 25.4208ZM111.314 24.7186L111.518 24.7295L111.558 24.0346L111.353 24.0234L111.149 24.0123L111.11 24.7075L111.314 24.7186ZM111.353 24.0234L111.358 24.224L112.732 24.1929L112.728 23.9924L112.722 23.7918L111.349 23.8229L111.353 24.0234ZM112.728 23.9924L112.732 24.1929C113.491 24.1743 114.156 24.1618 114.219 24.1618V23.9612V23.7606C114.149 23.7607 113.479 23.7732 112.722 23.7918L112.728 23.9924ZM25.143 23.78L24.9385 23.768L24.8968 24.4543L25.1013 24.4662L25.3058 24.4781L25.3474 23.7919L25.143 23.78ZM25.1013 24.4662H24.8965V25.3523H25.1013H25.3061V24.4662H25.1013ZM25.1013 25.3523L25.1104 25.1519L22.4292 25.0349L22.4201 25.2353L22.411 25.4357L25.0922 25.5527L25.1013 25.3523ZM22.4201 25.2353L22.4177 25.0348C21.5912 25.0443 20.7376 25.0665 20.0729 25.0862C19.4033 25.1061 18.9348 25.1233 18.8664 25.1233L18.8666 25.3239L18.8668 25.5245C18.9431 25.5244 19.4268 25.5068 20.0854 25.4872C20.749 25.4675 21.5997 25.4454 22.4225 25.4359L22.4201 25.2353ZM18.8666 25.3239L18.8759 25.1235C18.9144 25.1253 18.9568 25.144 18.9852 25.1786C19.0063 25.2044 19.0081 25.2251 19.0068 25.2178C19.0039 25.2015 19.0035 25.1635 19.0086 25.0842C19.0177 24.9445 19.0407 24.7202 19.0088 24.4927L18.8059 24.5201L18.6029 24.5475C18.6279 24.7249 18.6102 24.8993 18.5998 25.0587C18.5952 25.1289 18.5905 25.2156 18.6034 25.2874C18.61 25.324 18.6247 25.3797 18.6657 25.4297C18.714 25.4886 18.7832 25.5212 18.8573 25.5245L18.8666 25.3239ZM18.8059 24.5201L19.0094 24.4977L18.9246 23.7576L18.7211 23.78L18.5175 23.8023L18.6022 24.5424L18.8059 24.5201ZM18.7211 23.78V23.9805H25.143V23.78V23.5794H18.7211V23.78Z" fill="#08C154"/>
<path d="M64.5962 16.296C64.5879 16.3322 64.4518 16.5494 64.292 16.7848C63.7086 17.6361 63.1639 18.5321 62.9426 18.9889C62.6969 19.5088 62.0406 20.5409 61.9621 20.5414C61.8795 20.5464 61.3493 19.8421 61.2577 19.6083C61.2118 19.4914 61.0401 19.0553 60.8838 18.6371C60.7235 18.2234 60.4518 17.5896 60.279 17.2346C60.1023 16.8841 59.9224 16.4661 59.8731 16.3176C59.7022 15.7913 59.9547 15.7086 61.7544 15.6969C62.7013 15.6953 63.0625 15.729 63.5717 15.8609C64.2964 16.0591 64.617 16.1922 64.5962 16.296Z" fill="#08C154"/>
<path d="M72.3637 30.4691C72.3306 30.4658 72.1284 30.404 71.9091 30.3311C71.1156 30.0648 70.2825 29.818 69.8596 29.7192C69.3784 29.6098 68.4179 29.3116 68.4151 29.2738C68.4079 29.2342 69.0336 28.9675 69.2439 28.9196C69.349 28.8956 69.7412 28.8057 70.1175 28.7235C70.4897 28.6396 71.0589 28.4983 71.3772 28.4094C71.6912 28.3185 72.0666 28.2251 72.2004 28.1988C72.6747 28.1079 72.7579 28.2279 72.8232 29.0929C72.8535 29.5482 72.8338 29.7223 72.729 29.9693C72.5706 30.321 72.459 30.4774 72.3637 30.4691Z" fill="#08C154"/>
<path d="M55.6771 20.795C55.6824 20.8264 55.8001 21.0221 55.9401 21.2352C56.4514 22.0063 56.9204 22.8122 57.1034 23.2184C57.3054 23.6803 57.8744 24.6109 57.9527 24.6178C58.0345 24.6289 58.6207 24.0737 58.7312 23.8826C58.7864 23.787 58.9935 23.4304 59.1836 23.0878C59.3773 22.7494 59.7001 22.2331 59.9014 21.9456C60.1062 21.6622 60.3198 21.3217 60.3812 21.1996C60.5947 20.7663 60.35 20.6754 58.5578 20.5183C57.6144 20.4395 57.2519 20.4386 56.7336 20.5091C55.9953 20.6182 55.6649 20.7051 55.6771 20.795Z" fill="#08C154"/>
<path d="M67.7429 21.0073C67.7391 21.0389 67.6308 21.2398 67.5012 21.4591C67.0272 22.2527 66.5971 23.0792 66.4338 23.4934C66.2539 23.964 65.73 24.9196 65.6521 24.93C65.5709 24.9448 64.9589 24.4172 64.8394 24.2312C64.7796 24.1383 64.5559 23.7916 64.3496 23.4581C64.14 23.1289 63.7929 22.6279 63.5781 22.3499C63.3599 22.0762 63.1303 21.7458 63.0632 21.6267C62.8293 21.2037 63.0694 21.1016 64.8521 20.8627C65.7907 20.7408 66.1528 20.7234 66.6739 20.77C67.4165 20.8453 67.7508 20.9169 67.7429 21.0073Z" fill="#08C154"/>
<path d="M57.7209 31.8092C57.2217 31.08 56.7645 30.3997 56.4319 29.8902C56.2656 29.6356 56.1299 29.4226 56.036 29.2676C55.9891 29.1904 55.9519 29.1267 55.9263 29.0787C55.9137 29.0549 55.903 29.0337 55.8953 29.0159C55.8915 29.0071 55.8875 28.9974 55.8846 28.988L55.8783 28.9459L55.8779 28.9373C55.8789 28.9248 55.8826 28.9151 55.8841 28.9106C55.8858 28.9052 55.8876 28.9003 55.8894 28.8964C55.8928 28.8882 55.8969 28.8789 55.9014 28.8702C55.9108 28.8524 55.9241 28.8298 55.9402 28.8031C55.9726 28.7496 56.0195 28.6758 56.079 28.585C56.1984 28.4031 56.3707 28.1498 56.582 27.8438C57.0048 27.2314 57.587 26.4069 58.2272 25.5221C59.3337 23.9805 60.1629 22.8675 60.7536 22.1326C61.049 21.7653 61.2858 21.4912 61.4683 21.305C61.5594 21.2121 61.638 21.1403 61.7042 21.0895C61.7693 21.0395 61.8265 21.0063 61.8741 20.9973H61.875C61.8941 20.9941 61.912 21.002 61.9251 21.0094C61.9392 21.0176 61.9545 21.0293 61.9706 21.0438C62.0033 21.073 62.0452 21.1177 62.0969 21.1786C62.2005 21.3008 62.3498 21.4947 62.5575 21.7782C62.9734 22.3456 63.6274 23.2773 64.6283 24.7265L64.6279 24.7271C65.341 25.7475 66.0055 26.71 66.5031 27.4391C66.7519 27.8035 66.9592 28.1095 67.1102 28.3353C67.1852 28.4473 67.2467 28.5408 67.2929 28.6115L67.3826 28.7536C67.4521 28.8792 67.4952 28.9865 67.4987 29.1065C67.5021 29.225 67.4664 29.3407 67.4091 29.4808L67.4083 29.4831C67.3857 29.5342 67.3303 29.6269 67.2541 29.7468C67.1764 29.869 67.0732 30.0249 66.9511 30.2051C66.7067 30.5661 66.3857 31.0262 66.0405 31.5115C65.3503 32.4814 64.5612 33.5545 64.0905 34.1412L62.6098 36.0251L61.7554 37.2L61.7208 37.2478L61.6841 37.2032L60.5594 35.8115L60.5586 35.8103L60.2845 35.4433C59.5969 34.5127 58.5942 33.0849 57.7209 31.8092ZM57.725 31.1339C58.3982 32.1027 59.129 33.1196 59.5085 33.599L59.6487 33.7698C59.8468 34.0017 60.4063 34.736 60.8822 35.4169V35.4158L61.7209 36.5838L62.3181 35.8378L62.3185 35.8372C62.5821 35.5164 63.327 34.5369 64.1574 33.4274L65.0016 32.294C65.8959 31.085 66.408 30.3853 66.6994 29.956C66.8452 29.741 66.9341 29.5961 66.9879 29.4907C67.0281 29.4121 67.0467 29.3585 67.0556 29.3173L67.0617 29.2791V29.278L67.0645 29.1937C67.0625 29.1659 67.057 29.1364 67.0463 29.1014C67.0232 29.0258 66.9751 28.9226 66.8792 28.7581C66.6877 28.4293 66.3194 27.8771 65.6266 26.8432L64.1159 24.5852C62.902 22.7822 62.5015 22.2315 62.228 21.9284L62.2276 21.9278L62.1469 21.8399C62.0688 21.7591 61.9986 21.6983 61.9386 21.6575C61.8594 21.6036 61.8066 21.592 61.7769 21.6C61.7621 21.609 61.7269 21.6372 61.6718 21.6889C61.6153 21.7421 61.542 21.8149 61.4576 21.9023C61.2889 22.077 61.0759 22.3091 60.8616 22.5606L60.6528 22.8104C60.1003 23.4912 59.1089 24.8353 58.2069 26.0999C57.6921 26.8219 57.2072 27.5167 56.8512 28.0458C56.6731 28.3104 56.5275 28.5333 56.4267 28.6968C56.3763 28.7786 56.3379 28.8448 56.3121 28.8933C56.2999 28.9164 56.2914 28.9343 56.2858 28.9474C56.2897 28.9561 56.295 28.9672 56.3021 28.981C56.3214 29.0182 56.3506 29.0689 56.3886 29.1322C56.4646 29.2587 56.5746 29.4315 56.7088 29.6361C56.9769 30.0451 57.341 30.5811 57.725 31.1339Z" fill="#08C154" stroke="#08C154" stroke-width="0.181097"/>
<path d="M58.9739 32.1288C58.2117 31.0463 57.5437 30.062 57.3326 29.6944L56.8329 28.827L56.8174 28.8002L56.8352 28.7764L59.245 25.4685L60.4694 23.7949C60.7934 23.3577 61.0401 23.0329 61.2288 22.7955C61.4172 22.5585 61.5488 22.4072 61.643 22.3187C61.6899 22.2746 61.7288 22.2448 61.7612 22.228C61.7924 22.2121 61.8199 22.2084 61.8443 22.2164V22.2153C61.8621 22.2189 61.8831 22.2306 61.9047 22.2468C61.9269 22.2633 61.9525 22.2862 61.9803 22.3137C62.0359 22.3687 62.103 22.4447 62.1772 22.5359C62.2516 22.6273 62.3335 22.7349 62.4186 22.8517L62.6804 23.2262C63.0212 23.7575 64.0142 25.2218 64.8863 26.4916L64.8868 26.4922C65.4555 27.3386 65.8501 27.942 66.1006 28.3551C66.2258 28.5615 66.3156 28.7216 66.3731 28.8412C66.4018 28.9009 66.4231 28.9519 66.4367 28.994C66.4498 29.0348 66.4577 29.0733 66.4547 29.1057L66.4543 29.1062C66.4526 29.125 66.4452 29.1465 66.4369 29.1672C66.4274 29.1904 66.4142 29.2192 66.3976 29.2518C66.3643 29.3174 66.316 29.4034 66.2559 29.5058C66.1356 29.7107 65.9652 29.9849 65.7607 30.304C65.3515 30.9427 64.8054 31.7632 64.2525 32.5755C63.6995 33.388 63.1396 34.193 62.7018 34.7991C62.483 35.1021 62.2946 35.3557 62.1528 35.5361C62.082 35.6263 62.0223 35.6986 61.9763 35.7496C61.9535 35.775 61.9336 35.7953 61.9172 35.8103C61.9016 35.8244 61.886 35.837 61.8729 35.8409H61.8713L61.8324 35.8413C61.791 35.8348 61.7423 35.8069 61.6807 35.7537C61.5981 35.6821 61.4878 35.561 61.3344 35.3715C61.0272 34.9919 60.5429 34.3316 59.7542 33.2249L58.9739 32.1288ZM58.8108 31.1317C59.4918 32.1301 60.268 33.2263 60.7813 33.8988L60.9841 34.1591L61.8985 35.3188L63.4089 33.0206L64.0494 32.0618C64.6897 31.1115 65.2944 30.236 65.5365 29.895L66.117 29.0988L65.1639 27.6491C64.6171 26.8448 63.6631 25.4146 63.0333 24.4915L61.9085 22.8396L61.6344 23.0014H61.6336L61.5994 23.0292C61.5841 23.0436 61.5649 23.0635 61.5418 23.0887C61.4966 23.1381 61.4386 23.206 61.3702 23.2897C61.2332 23.4572 61.054 23.6876 60.8474 23.9603C60.434 24.5058 59.9112 25.2198 59.398 25.9359C58.8849 26.6519 58.3812 27.3699 58.0059 27.9237C57.8182 28.2006 57.663 28.4368 57.5545 28.6105C57.5003 28.6973 57.4579 28.7682 57.4294 28.8206C57.4152 28.8469 57.405 28.868 57.3982 28.8838C57.3948 28.8917 57.3922 28.8979 57.391 28.902C57.3896 28.9066 57.3901 28.9059 57.3902 28.902L57.3901 28.9042C57.3903 28.9008 57.3904 28.899 57.391 28.902C57.3916 28.9045 57.3925 28.9094 57.3946 28.9151C57.3985 28.9263 57.405 28.9412 57.414 28.9601C57.4324 28.9985 57.4602 29.0503 57.4965 29.1136C57.5689 29.24 57.6742 29.4117 57.8042 29.6158C58.0642 30.0238 58.4218 30.5615 58.8108 31.1317Z" fill="#08C154"/>
<path d="M57.391 28.902C57.3922 28.8979 57.3948 28.8917 57.3982 28.8838C57.405 28.868 57.4152 28.8469 57.4294 28.8206C57.4579 28.7682 57.5003 28.6973 57.5545 28.6105C57.663 28.4368 57.8182 28.2006 58.0059 27.9237C58.3812 27.3699 58.8849 26.6519 59.398 25.9359C59.9112 25.2198 60.434 24.5058 60.8474 23.9603C61.054 23.6876 61.2332 23.4572 61.3702 23.2897C61.4386 23.206 61.4966 23.1381 61.5418 23.0887C61.5649 23.0635 61.5841 23.0436 61.5994 23.0292L61.6336 23.0014H61.6344L61.9085 22.8396L63.0333 24.4915C63.6631 25.4146 64.6171 26.8448 65.1639 27.6491L66.117 29.0988L65.5365 29.895C65.2944 30.236 64.6897 31.1115 64.0494 32.0618L63.4089 33.0206L61.8985 35.3188L60.9841 34.1591L60.7813 33.8988C60.268 33.2263 59.4918 32.1301 58.8108 31.1317C58.4218 30.5615 58.0642 30.0238 57.8042 29.6158C57.6742 29.4117 57.5689 29.24 57.4965 29.1136C57.4602 29.0503 57.4324 28.9985 57.414 28.9601C57.405 28.9412 57.3985 28.9263 57.3946 28.9151C57.3925 28.9094 57.3916 28.9045 57.391 28.902ZM57.391 28.902C57.3896 28.9066 57.3901 28.9059 57.3902 28.902L57.3901 28.9042C57.3903 28.9008 57.3904 28.899 57.391 28.902ZM58.9739 32.1288C58.2117 31.0463 57.5437 30.062 57.3326 29.6944L56.8329 28.827L56.8174 28.8002L56.8352 28.7764L59.245 25.4685L60.4694 23.7949C60.7934 23.3577 61.0401 23.0329 61.2288 22.7955C61.4172 22.5585 61.5488 22.4072 61.643 22.3187C61.6899 22.2746 61.7288 22.2448 61.7612 22.228C61.7924 22.2121 61.8199 22.2084 61.8443 22.2164V22.2153C61.8621 22.2189 61.8831 22.2306 61.9047 22.2468C61.9269 22.2633 61.9525 22.2862 61.9803 22.3137C62.0359 22.3687 62.103 22.4447 62.1772 22.5359C62.2516 22.6273 62.3335 22.7349 62.4186 22.8517L62.6804 23.2262C63.0212 23.7575 64.0142 25.2218 64.8863 26.4916L64.8868 26.4922C65.4555 27.3386 65.8501 27.942 66.1006 28.3551C66.2258 28.5615 66.3156 28.7216 66.3731 28.8412C66.4018 28.9009 66.4231 28.9519 66.4367 28.994C66.4498 29.0348 66.4577 29.0733 66.4547 29.1057L66.4543 29.1062C66.4526 29.125 66.4452 29.1465 66.4369 29.1672C66.4274 29.1904 66.4142 29.2192 66.3976 29.2518C66.3643 29.3174 66.316 29.4034 66.2559 29.5058C66.1356 29.7107 65.9652 29.9849 65.7607 30.304C65.3515 30.9427 64.8054 31.7632 64.2525 32.5755C63.6995 33.388 63.1396 34.193 62.7018 34.7991C62.483 35.1021 62.2946 35.3557 62.1528 35.5361C62.082 35.6263 62.0223 35.6986 61.9763 35.7496C61.9535 35.775 61.9336 35.7953 61.9172 35.8103C61.9016 35.8244 61.886 35.837 61.8729 35.8409H61.8713L61.8324 35.8413C61.791 35.8348 61.7423 35.8069 61.6807 35.7537C61.5981 35.6821 61.4878 35.561 61.3344 35.3715C61.0272 34.9919 60.5429 34.3316 59.7542 33.2249L58.9739 32.1288Z" stroke="#08C154" stroke-width="0.0905486"/>
<path d="M53.0843 24.6861C53.0897 24.7174 53.2078 24.913 53.3481 25.1258C53.861 25.8959 54.3315 26.701 54.5152 27.1068C54.7182 27.5684 55.2889 28.4979 55.3672 28.5046C55.4491 28.5156 56.0342 27.9594 56.1443 27.768C56.1994 27.6723 56.4058 27.3154 56.5952 26.9725C56.7883 26.6337 57.11 26.1167 57.3108 25.8288C57.5151 25.5451 57.7281 25.2042 57.7893 25.082C58.0018 24.6483 57.7569 24.5578 55.9645 24.404C55.0209 24.327 54.6584 24.3268 54.1403 24.3982C53.4022 24.5087 53.072 24.5962 53.0843 24.6861Z" fill="#08C154"/>
<path d="M70.5249 25.0118C70.5196 25.0432 70.4015 25.2387 70.2612 25.4516C69.7484 26.2217 69.2778 27.0268 69.094 27.4326C68.8911 27.8942 68.3203 28.8237 68.242 28.8305C68.1601 28.8413 67.5751 28.2852 67.4649 28.0938C67.4098 27.9981 67.2035 27.6412 67.014 27.2982C66.821 26.9595 66.4992 26.4425 66.2984 26.1546C66.0941 25.8709 65.8812 25.53 65.82 25.4078C65.6074 24.9741 65.8523 24.8836 67.6448 24.7298C68.5883 24.6528 68.9509 24.6526 69.469 24.724C70.2071 24.8345 70.5373 24.9219 70.5249 25.0118Z" fill="#08C154"/>
<path d="M59.5186 30.6628C59.9753 31.3323 60.4863 32.0583 60.8759 32.5831L61.2187 33.0314L61.93 33.9336L63.1079 32.1409L63.609 31.3911C64.1101 30.6473 64.5835 29.962 64.7729 29.6951L64.7733 29.6946L65.2233 29.0778L64.4811 27.9494C64.0533 27.32 63.3073 26.2009 62.8144 25.4785L61.9365 24.1902L61.7254 24.3141L61.655 24.3816C61.6197 24.4202 61.5744 24.4734 61.5208 24.5389C61.4137 24.6699 61.2734 24.8496 61.1117 25.0629C60.7883 25.4897 60.3795 26.0486 59.978 26.6087C59.5765 27.1689 59.1824 27.7311 58.8887 28.1643C58.7419 28.381 58.6206 28.5653 58.5358 28.7011C58.4935 28.7689 58.4603 28.8238 58.4381 28.8648C58.427 28.8852 58.4191 28.9017 58.4138 28.9136C58.4117 28.9187 58.4103 28.9228 58.4094 28.9255C58.4098 28.9268 58.4104 28.9283 58.411 28.9301C58.414 28.9385 58.4193 28.95 58.4265 28.9649C58.4408 28.9947 58.4619 29.0353 58.4902 29.0847C58.5468 29.1834 58.6294 29.3167 58.731 29.4762C58.9343 29.7954 59.2143 30.2166 59.5186 30.6628ZM59.8503 26.2313C60.6306 25.1575 61.1066 24.5116 61.402 24.1399C61.5495 23.9542 61.653 23.8354 61.7271 23.7658C61.7641 23.731 61.7951 23.7077 61.8212 23.6944C61.8461 23.6817 61.8685 23.6783 61.889 23.685V23.6839L61.8898 23.685C61.8904 23.6852 61.8913 23.6842 61.8918 23.6844V23.6856C61.9059 23.6892 61.9216 23.6977 61.9375 23.7096C61.9551 23.7228 61.9755 23.7406 61.9974 23.7623C62.0412 23.8055 62.0941 23.8655 62.1524 23.937C62.2107 24.0086 62.2744 24.0928 62.3411 24.1843L62.5458 24.4771C62.8123 24.8926 63.5896 26.0384 64.272 27.032C64.717 27.6942 65.0261 28.1668 65.2223 28.4903C65.3203 28.6518 65.3906 28.7773 65.4358 28.8713C65.4584 28.9182 65.4755 28.9581 65.4863 28.9917C65.4966 29.0238 65.5033 29.0557 65.5008 29.0834C65.4996 29.1004 65.493 29.1189 65.4861 29.1358C65.4786 29.1543 65.468 29.1766 65.455 29.2023C65.4288 29.2538 65.3914 29.3211 65.3444 29.4011C65.2501 29.5616 65.1163 29.7762 64.9562 30.0261C64.6359 30.5259 64.2085 31.1683 63.7759 31.804C63.3432 32.4396 62.9049 33.0693 62.5624 33.5436C62.3912 33.7806 62.2436 33.9793 62.1327 34.1205C62.0773 34.1911 62.0305 34.2479 61.9945 34.288C61.9765 34.3079 61.9608 34.3237 61.9477 34.3356C61.9357 34.3467 61.9229 34.3572 61.9116 34.3606L61.9096 34.3611L61.8779 34.3616C61.8442 34.3563 61.8053 34.3335 61.757 34.2917C61.6919 34.2354 61.6051 34.1402 61.485 33.9918C61.2444 33.6946 60.8661 33.1772 60.2492 32.3116L60.2488 32.3121C59.43 31.1746 58.5738 29.9335 58.3533 29.5494L57.9624 28.8698L57.9473 28.8436L57.9642 28.8197L59.8503 26.2313Z" fill="#08C154" stroke="#08C154" stroke-width="0.0905486"/>
<path d="M59.565 29.9723C59.4403 29.784 59.3313 29.6137 59.2464 29.4729C59.1621 29.3328 59.1004 29.2194 59.0708 29.146L59.0704 29.1454L59.0446 29.0685C59.0231 28.9906 59.0154 28.9105 59.0299 28.8184C59.0488 28.6986 59.105 28.5631 59.2092 28.388C59.3656 28.1255 59.636 27.7644 60.0715 27.2211L60.564 26.6137L61.8623 25.0195L61.8809 24.9968L63.1351 26.7915C63.4752 27.2782 63.7999 27.7479 64.0473 28.1119C64.1711 28.2938 64.2758 28.4497 64.3533 28.5679C64.429 28.6836 64.4801 28.7664 64.4976 28.8019C64.5288 28.8614 64.5557 28.9199 64.5481 29.0036C64.541 29.0826 64.5042 29.1777 64.4286 29.317C64.3524 29.4574 64.2332 29.6497 64.0549 29.9236L63.3268 31.0228C62.7575 31.8637 62.4251 32.3471 62.2142 32.6147C62.1088 32.7484 62.0322 32.8305 61.9705 32.8764C61.9081 32.9227 61.8597 32.9331 61.8119 32.9219C61.8012 32.9202 61.7895 32.9143 61.7783 32.907C61.7664 32.8992 61.7531 32.8879 61.7383 32.875C61.7087 32.8491 61.672 32.8126 61.63 32.767C61.5461 32.6757 61.438 32.5467 61.3142 32.3917C61.0662 32.0813 60.7531 31.6645 60.4402 31.2315C60.1274 30.7986 59.8143 30.3488 59.565 29.9723ZM64.2454 29.0777L63.2258 27.5213L63.2253 27.5207L62.4442 26.3182C62.226 25.9813 62.0675 25.7353 62.0227 25.6612L62.0219 25.6601L61.8885 25.4164L60.7991 26.8172L60.7986 26.8177L60.3548 27.3952C60.2121 27.584 60.0771 27.7653 59.9574 27.929C59.7774 28.175 59.6329 28.3804 59.5473 28.51L59.4819 28.6134L59.2748 28.9594L61.7821 32.5472L64.2454 29.0777Z" fill="#08C154" stroke="#08C154" stroke-width="0.0905486"/>
<path d="M63.6816 28.8112C63.7688 28.9778 63.7394 29.0192 62.856 30.3461C62.0512 31.5347 61.9188 31.7074 61.8018 31.6792C61.6506 31.6579 60.0388 29.4211 59.8792 29.0257C59.7729 28.7481 59.8909 28.5407 60.9301 27.2699L61.847 26.1441L62.7207 27.3944C63.2012 28.082 63.638 28.7209 63.6816 28.8112Z" fill="#08C154"/>
<path d="M70.5249 33.4186C70.5196 33.3873 70.4015 33.1918 70.2612 32.9788C69.7484 32.2087 69.2778 31.4037 69.094 30.9978C68.8911 30.5363 68.3203 29.6067 68.242 29.6C68.1601 29.5891 67.5751 30.1453 67.4649 30.3367C67.4098 30.4324 67.2035 30.7893 67.014 31.1322C66.821 31.471 66.4992 31.9879 66.2984 32.2758C66.0941 32.5596 65.8812 32.9005 65.82 33.0227C65.6074 33.4563 65.8523 33.5468 67.6448 33.7006C68.5883 33.7777 68.9509 33.7779 69.469 33.7065C70.2071 33.596 70.5373 33.5085 70.5249 33.4186Z" fill="#08C154"/>
<path d="M53.0843 33.7444C53.0896 33.713 53.2077 33.5175 53.3481 33.3046C53.8609 32.5345 54.3315 31.7294 54.5152 31.3236C54.7181 30.8621 55.2889 29.9325 55.3672 29.9258C55.4491 29.9149 56.0342 30.4711 56.1443 30.6625C56.1994 30.7582 56.4057 31.1151 56.5951 31.458C56.7882 31.7967 57.11 32.3138 57.3108 32.6016C57.5151 32.8853 57.728 33.2262 57.7892 33.3485C58.0018 33.7821 57.7569 33.8727 55.9645 34.0264C55.0209 34.1035 54.6584 34.1037 54.1402 34.0323C53.4021 33.9218 53.0719 33.8343 53.0843 33.7444Z" fill="#08C154"/>
<path d="M67.7429 37.4231C67.7391 37.3915 67.6308 37.1906 67.5012 36.9713C67.0272 36.1777 66.5971 35.3512 66.4338 34.9371C66.2539 34.4665 65.73 33.5108 65.6521 33.5004C65.5709 33.4856 64.9589 34.0133 64.8394 34.1992C64.7796 34.2921 64.5559 34.6389 64.3496 34.9724C64.14 35.3015 63.7929 35.8025 63.5781 36.0805C63.3599 36.3542 63.1303 36.6846 63.0632 36.8037C62.8293 37.2268 63.0694 37.3288 64.8521 37.5677C65.7907 37.6896 66.1528 37.7071 66.6739 37.6604C67.4165 37.5852 67.7508 37.5135 67.7429 37.4231Z" fill="#08C154"/>
<path d="M55.6771 37.6361C55.6824 37.6047 55.8001 37.409 55.9401 37.1959C56.4514 36.4249 56.9204 35.6189 57.1034 35.2128C57.3054 34.7508 57.8744 33.8203 57.9527 33.8134C58.0345 33.8023 58.6207 34.3574 58.7312 34.5486C58.7864 34.6442 58.9935 35.0008 59.1836 35.3433C59.3773 35.6818 59.7001 36.1981 59.9014 36.4857C60.1062 36.769 60.3198 37.1095 60.3812 37.2316C60.5947 37.6648 60.35 37.7558 58.5578 37.9129C57.6144 37.9917 57.2519 37.9926 56.7336 37.9221C55.9953 37.813 55.6649 37.7261 55.6771 37.6361Z" fill="#08C154"/>
<path d="M64.4859 42.9151C64.4776 42.871 64.3415 42.606 64.1817 42.3189C63.5982 41.2807 63.0536 40.1878 62.8322 39.6307C62.5866 38.9966 61.9303 37.7379 61.8518 37.7372C61.7692 37.7311 61.239 38.59 61.1473 38.8752C61.1015 39.0178 60.9297 39.5498 60.7734 40.0598C60.6131 40.5644 60.3414 41.3374 60.1687 41.7704C59.992 42.1978 59.8121 42.7077 59.7627 42.8887C59.5919 43.5306 59.8443 43.6316 61.6441 43.6458C62.591 43.6478 62.9521 43.6067 63.4614 43.4457C64.1861 43.2041 64.5067 43.0416 64.4859 42.9151Z" fill="#08C154"/>
<path d="M51.573 30.4332C51.6062 30.4298 51.8083 30.368 52.0277 30.2951C52.8211 30.0288 53.6542 29.782 54.0771 29.6832C54.5584 29.5738 55.5188 29.2756 55.5217 29.2378C55.5288 29.1982 54.9032 28.9315 54.6929 28.8836C54.5877 28.8596 54.1956 28.7697 53.8192 28.6876C53.4471 28.6036 52.8779 28.4623 52.5596 28.3734C52.2456 28.2825 51.8701 28.189 51.7364 28.1628C51.262 28.0719 51.1789 28.1919 51.1135 29.0569C51.0832 29.5121 51.1029 29.6863 51.2077 29.9334C51.3662 30.2851 51.4778 30.4414 51.573 30.4332Z" fill="#08C154"/>
</g>
<defs>
<clipPath id="clip0_154_1017">
<rect width="115" height="34" fill="white" transform="translate(17 13)"/>
</clipPath>
</defs>
</svg>
