<svg width="150" height="60" viewBox="0 0 150 60" fill="none" xmlns="http://www.w3.org/2000/svg">
<path d="M31.9535 14.5529C34.6266 14.0936 37.4164 14.2953 39.9865 15.1591C42.1159 15.8684 44.089 17.0264 45.7457 18.5269C45.897 18.6677 46.0501 18.8074 46.2071 18.9426C46.187 18.9861 46.1537 19.0159 46.1073 19.032C38.6468 19.0326 31.1858 19.032 23.7253 19.0326C23.5935 19.0283 23.4573 19.05 23.3292 19.0103C23.338 18.9879 23.355 18.9433 23.3638 18.9209C25.694 16.6528 28.7281 15.0989 31.9535 14.5529Z" fill="black"/>
<path d="M88.9042 19.0345C89.6092 19.0134 90.3167 19.0264 91.0223 19.0277C91.1849 19.0153 91.2151 19.1977 91.2006 19.3187C91.1736 22.2154 91.1504 25.1122 91.1209 28.0083C91.1498 31.008 91.173 34.0078 91.2012 37.0075C91.2113 37.1285 91.1925 37.3166 91.028 37.3104C90.3538 37.3215 89.6789 37.3147 89.0053 37.3135C88.8867 37.3302 88.773 37.2433 88.7843 37.1217C88.8063 34.0413 88.8427 30.9603 88.8609 27.8798C88.8352 25.0054 88.8107 22.1304 88.7824 19.256C88.7768 19.1685 88.8038 19.0581 88.9042 19.0345Z" fill="black"/>
<path d="M21.3919 21.2343C21.9406 20.4531 22.5602 19.7202 23.2382 19.0457L23.2671 19.063C23.2859 26.5972 23.2645 34.135 23.2777 41.6685C23.2193 41.8199 23.1283 41.6089 23.0637 41.563C21.7968 40.2586 20.744 38.75 19.9807 37.1062C18.9712 34.9454 18.464 32.5588 18.5016 30.179C18.5312 27.0011 19.5532 23.8419 21.3919 21.2343Z" fill="black"/>
<path d="M46.2585 20.1267C46.2623 19.7574 46.2497 19.3882 46.2642 19.019C48.2743 20.9954 49.7458 23.5031 50.4778 26.2112C51.2813 29.1675 51.2123 32.3509 50.2725 35.2681C49.5204 37.6219 48.199 39.7901 46.4682 41.5674C46.406 41.6127 46.3194 41.8112 46.261 41.6691C46.2554 34.49 46.261 27.3071 46.2585 20.1267Z" fill="black"/>
<path d="M77.4644 24.1118C78.5077 23.6017 79.7181 23.4888 80.8581 23.6781C81.7295 23.822 82.5657 24.2012 83.216 24.7969C83.5638 25.1029 83.8394 25.4771 84.0999 25.8568C84.0874 25.2474 84.056 24.6387 84.0528 24.0299C84.039 23.8984 84.184 23.8413 84.2945 23.8568C84.9694 23.8599 85.6449 23.8506 86.3197 23.8611C86.4465 23.85 86.5062 23.9859 86.4911 24.092C86.4735 25.7489 86.4516 27.4051 86.4308 29.0614C86.3907 31.7527 86.4829 34.4446 86.488 37.1354C86.4993 37.2626 86.3618 37.3327 86.2507 37.3147C85.599 37.3153 84.9474 37.3178 84.2964 37.3135C84.1872 37.3259 84.0623 37.2539 84.0786 37.1323C84.0811 36.4863 84.12 35.8396 84.12 35.193C83.6988 35.8204 83.1909 36.405 82.5412 36.8108C81.4802 37.5009 80.1512 37.6852 78.9101 37.5176C77.9635 37.3923 77.0501 37.0019 76.3281 36.3814C75.5007 35.6777 74.9307 34.7171 74.5879 33.7012C74.2056 32.57 74.0788 31.3655 74.124 30.1777C74.1805 28.8336 74.4932 27.479 75.1724 26.3042C75.7048 25.379 76.4913 24.5816 77.4644 24.1118ZM79.9905 25.366C79.1908 25.428 78.4048 25.7637 77.8574 26.3514C77.1197 27.1246 76.7952 28.187 76.6602 29.2196C76.5322 30.3167 76.5642 31.4381 76.7914 32.5209C77.0036 33.4971 77.4311 34.4819 78.2347 35.1235C79.074 35.8006 80.2442 35.9445 81.2787 35.7211C82.0603 35.5567 82.7634 35.0844 83.2179 34.436C83.8149 33.5926 84.0522 32.5575 84.142 31.5473C84.2293 30.421 84.184 29.2699 83.8739 28.1771C83.6122 27.2636 83.1055 26.37 82.2769 25.8506C81.6052 25.4162 80.7778 25.2946 79.9905 25.366Z" fill="black"/>
<path d="M97.2266 23.7619C98.3654 23.4851 99.6002 23.5378 100.694 23.9673C101.621 24.3278 102.377 25.0265 102.902 25.8537C102.895 25.2475 102.862 24.6418 102.857 24.0355C102.843 23.922 102.959 23.8407 103.066 23.858C103.739 23.8556 104.413 23.8562 105.086 23.858C105.192 23.8413 105.308 23.9232 105.296 24.038C105.285 25.4845 105.26 26.931 105.245 28.3775C105.19 31.2128 105.274 34.0481 105.297 36.8834C105.29 37.0268 105.352 37.28 105.147 37.3073C104.453 37.324 103.757 37.3159 103.064 37.311C102.929 37.3215 102.86 37.1819 102.883 37.0677C102.896 36.4372 102.916 35.8074 102.933 35.1775C102.455 35.9135 101.831 36.575 101.043 36.9895C100.004 37.553 98.7696 37.6752 97.6114 37.5027C96.5919 37.3488 95.6208 36.8797 94.8894 36.1586C93.9616 35.257 93.411 34.0376 93.1423 32.7927C92.895 31.6273 92.8573 30.4198 93.0117 29.2395C93.1938 27.904 93.6602 26.5779 94.519 25.5174C95.202 24.6672 96.1581 24.0268 97.2266 23.7619ZM98.8192 25.3641C97.9083 25.4237 97.0213 25.8575 96.4632 26.5779C95.7294 27.51 95.4739 28.7139 95.4073 29.8687C95.3502 31.1948 95.4569 32.5712 96.02 33.7937C96.4067 34.6426 97.1174 35.3742 98.0333 35.6504C99.2361 36.0084 100.674 35.8124 101.599 34.9262C102.404 34.1549 102.757 33.0447 102.902 31.9718C103.047 30.7555 103.023 29.5057 102.718 28.3142C102.464 27.3424 101.944 26.3806 101.061 25.8376C100.4 25.4175 99.5914 25.2971 98.8192 25.3641Z" fill="black"/>
<path d="M64.9108 23.7103C66.0678 23.5484 67.3008 23.675 68.3347 24.2409C69.0554 24.6238 69.6279 25.2282 70.0686 25.9021C70.0542 25.2785 70.0083 24.6554 69.9989 24.0318C69.9845 23.9027 70.1251 23.84 70.2356 23.8568C70.9079 23.8599 71.5803 23.8506 72.252 23.8611C72.3738 23.8568 72.424 23.9927 72.4127 24.0938C72.3926 25.8109 72.3788 27.5274 72.3581 29.2444C72.3694 31.7074 72.3788 34.171 72.3851 36.634C72.3656 37.8571 72.1063 39.1143 71.4152 40.1469C70.8671 40.9791 70.0341 41.6095 69.1006 41.9657C67.9317 42.4175 66.651 42.4858 65.4105 42.4088C64.1563 42.317 62.8693 41.9695 61.8894 41.1578C61.0005 40.4336 60.4844 39.3135 60.4361 38.1841C60.4543 38.0265 60.6382 38.0339 60.7588 38.0345C61.3872 38.042 62.0156 38.029 62.6433 38.0407C62.8279 38.037 62.8524 38.243 62.8794 38.3796C62.9961 39.0944 63.4224 39.7597 64.0508 40.1395C64.8594 40.6365 65.8487 40.7439 66.781 40.6855C67.7145 40.626 68.6574 40.2332 69.2381 39.4879C69.9462 38.598 70.127 37.4233 70.1289 36.3218C70.1289 35.844 70.132 35.3668 70.1264 34.8896C69.67 35.6237 69.051 36.2734 68.2732 36.6768C67.1514 37.2762 65.8117 37.347 64.5781 37.1124C63.45 36.9002 62.391 36.3181 61.6452 35.4512C60.7776 34.4583 60.3193 33.1744 60.1479 31.8874C59.9866 30.6338 60.0419 29.3456 60.3652 28.1206C60.6696 26.9763 61.2359 25.8773 62.1078 25.0545C62.8687 24.329 63.8656 23.858 64.9108 23.7103ZM65.9291 25.3666C65.0389 25.4336 64.1764 25.8543 63.6183 26.5487C62.8605 27.479 62.5937 28.6971 62.5228 29.8637C62.4644 31.1619 62.5573 32.5222 63.1625 33.7C63.5819 34.5303 64.3609 35.1825 65.28 35.4003C66.2568 35.6299 67.3485 35.5877 68.233 35.0801C69.051 34.6128 69.5695 33.7645 69.8263 32.8858C70.1609 31.7291 70.1854 30.5041 70.0542 29.3152C69.9085 28.1405 69.5124 26.9105 68.5808 26.1125C67.8626 25.4851 66.8651 25.271 65.9291 25.3666Z" fill="black"/>
<path d="M106.932 24.0628C106.874 24.0113 106.856 23.8506 106.965 23.8618C107.762 23.8512 108.559 23.8568 109.356 23.8593C109.547 23.8444 109.653 24.0175 109.734 24.1596C110.721 25.7557 111.718 27.3449 112.705 28.9404C113.69 27.3151 114.662 25.6825 115.645 24.056C115.714 23.9288 115.848 23.8407 115.999 23.8574C116.669 23.858 117.34 23.8525 118.011 23.8599C118.138 23.8289 118.167 23.9803 118.092 24.0548C116.799 26.1168 115.504 28.1765 114.21 30.2373L114.213 30.287C115.586 32.4415 116.949 34.6023 118.318 36.7593C118.397 36.9356 118.615 37.0913 118.565 37.2955C117.86 37.3433 117.149 37.2998 116.441 37.3166C116.223 37.3104 115.927 37.3668 115.811 37.1279C114.695 35.3109 113.559 33.5058 112.454 31.682C111.301 33.4927 110.194 35.3339 109.057 37.154C108.955 37.3445 108.712 37.3141 108.531 37.3172C107.882 37.3054 107.232 37.3308 106.584 37.3054C106.476 37.3073 106.509 37.1546 106.561 37.1037C108.024 34.7953 109.489 32.4881 110.953 30.1796C109.613 28.1398 108.272 26.102 106.932 24.0628Z" fill="black"/>
<path d="M119.126 23.8574C119.949 23.8593 120.772 23.8518 121.596 23.8599C121.733 23.8487 121.814 23.9728 121.851 24.0864C123.002 27.106 124.159 30.1237 125.311 33.1427C125.453 33.4865 125.557 33.8464 125.727 34.179C126.821 30.8175 127.898 27.4498 128.986 24.0858C129.013 23.9654 129.106 23.8468 129.245 23.8593C129.958 23.8562 130.672 23.8524 131.385 23.8611C131.541 23.8568 131.505 24.0398 131.467 24.136C129.414 29.9376 127.363 35.741 125.311 41.5425C125.279 41.6629 125.176 41.7653 125.043 41.7504C124.414 41.7547 123.784 41.7535 123.155 41.7504C123.034 41.7734 122.939 41.6468 123 41.5413C123.482 40.1351 123.986 38.7358 124.47 37.3296C122.721 32.9969 120.981 28.6599 119.234 24.3265C119.179 24.1757 119.074 24.0231 119.126 23.8568V23.8574Z" fill="black"/>
<path d="M23.2488 41.7883C23.3644 41.774 23.4799 41.7622 23.596 41.7597C30.8775 41.7603 38.1597 41.7597 45.4418 41.7597C45.723 41.7572 46.0049 41.7498 46.2849 41.7864C46.2466 42.2593 46.2742 42.7334 46.2661 43.2068C46.2667 44.2425 46.2661 45.2776 46.2667 46.3133H23.2664C23.2551 44.8054 23.289 43.2956 23.2488 41.7883Z" fill="black"/>
</svg>
