<svg width="150" height="60" viewBox="0 0 150 60" fill="none" xmlns="http://www.w3.org/2000/svg">
<path d="M31.9535 14.5527C34.6266 14.0935 37.4164 14.2952 39.9865 15.159C42.1159 15.8683 44.089 17.0263 45.7457 18.5267C45.897 18.6676 46.0501 18.8072 46.2071 18.9425C46.187 18.986 46.1537 19.0157 46.1073 19.0319C38.6468 19.0325 31.1858 19.0319 23.7253 19.0325C23.5935 19.0282 23.4573 19.0499 23.3292 19.0102C23.338 18.9878 23.355 18.9431 23.3638 18.9208C25.694 16.6527 28.7281 15.0988 31.9535 14.5527Z" fill="white"/>
<path d="M88.9042 19.0344C89.6092 19.0133 90.3167 19.0263 91.0223 19.0275C91.1849 19.0151 91.2151 19.1976 91.2006 19.3186C91.1736 22.2153 91.1504 25.1121 91.1209 28.0082C91.1498 31.0079 91.173 34.0077 91.2012 37.0074C91.2113 37.1284 91.1925 37.3164 91.028 37.3102C90.3538 37.3214 89.6789 37.3146 89.0053 37.3133C88.8867 37.3301 88.773 37.2432 88.7843 37.1216C88.8063 34.0412 88.8427 30.9601 88.8609 27.8797C88.8352 25.0053 88.8107 22.1303 88.7824 19.2559C88.7768 19.1684 88.8038 19.058 88.9042 19.0344Z" fill="white"/>
<path d="M21.3919 21.2342C21.9406 20.4529 22.5602 19.7201 23.2382 19.0455L23.2671 19.0629C23.2859 26.597 23.2645 34.1349 23.2777 41.6684C23.2193 41.8198 23.1283 41.6088 23.0637 41.5629C21.7968 40.2585 20.744 38.7499 19.9807 37.1061C18.9712 34.9453 18.464 32.5587 18.5016 30.1789C18.5312 27.001 19.5532 23.8418 21.3919 21.2342Z" fill="white"/>
<path d="M46.2585 20.1265C46.2623 19.7573 46.2497 19.3881 46.2642 19.0189C48.2743 20.9953 49.7458 23.503 50.4778 26.2111C51.2813 29.1674 51.2123 32.3508 50.2725 35.268C49.5204 37.6218 48.199 39.79 46.4682 41.5672C46.406 41.6125 46.3194 41.8111 46.261 41.669C46.2554 34.4898 46.261 27.307 46.2585 20.1265Z" fill="white"/>
<path d="M77.4644 24.1117C78.5077 23.6016 79.7181 23.4887 80.8581 23.6779C81.7295 23.8219 82.5657 24.2011 83.216 24.7968C83.5638 25.1027 83.8394 25.4769 84.0999 25.8567C84.0874 25.2473 84.056 24.6386 84.0528 24.0298C84.039 23.8982 84.184 23.8412 84.2945 23.8567C84.9694 23.8598 85.6449 23.8505 86.3197 23.861C86.4465 23.8498 86.5062 23.9857 86.4911 24.0919C86.4735 25.7487 86.4516 27.405 86.4308 29.0612C86.3907 31.7526 86.4829 34.4445 86.488 37.1352C86.4993 37.2625 86.3618 37.3326 86.2507 37.3146C85.599 37.3152 84.9474 37.3177 84.2964 37.3133C84.1872 37.3257 84.0623 37.2538 84.0786 37.1321C84.0811 36.4861 84.12 35.8395 84.12 35.1929C83.6988 35.8203 83.1909 36.4048 82.5412 36.8107C81.4802 37.5007 80.1512 37.685 78.9101 37.5175C77.9635 37.3921 77.0501 37.0018 76.3281 36.3813C75.5007 35.6776 74.9307 34.7169 74.5879 33.7011C74.2056 32.5698 74.0788 31.3653 74.124 30.1776C74.1805 28.8335 74.4932 27.4788 75.1724 26.3041C75.7048 25.3789 76.4913 24.5815 77.4644 24.1117ZM79.9905 25.3659C79.1908 25.4279 78.4048 25.7636 77.8574 26.3513C77.1197 27.1245 76.7952 28.1869 76.6602 29.2195C76.5322 30.3166 76.5642 31.438 76.7914 32.5208C77.0036 33.4969 77.4311 34.4818 78.2347 35.1234C79.074 35.8004 80.2442 35.9444 81.2787 35.721C82.0603 35.5566 82.7634 35.0843 83.2179 34.4358C83.8149 33.5925 84.0522 32.5574 84.142 31.5472C84.2293 30.4209 84.184 29.2697 83.8739 28.177C83.6122 27.2635 83.1055 26.3699 82.2769 25.8505C81.6052 25.4161 80.7778 25.2945 79.9905 25.3659Z" fill="white"/>
<path d="M97.2266 23.7617C98.3654 23.485 99.6002 23.5377 100.694 23.9671C101.621 24.3277 102.377 25.0264 102.902 25.8536C102.895 25.2473 102.862 24.6417 102.857 24.0354C102.843 23.9218 102.959 23.8405 103.066 23.8579C103.739 23.8554 104.413 23.8561 105.086 23.8579C105.192 23.8412 105.308 23.9231 105.296 24.0379C105.285 25.4844 105.26 26.9309 105.245 28.3774C105.19 31.2127 105.274 34.048 105.297 36.8833C105.29 37.0266 105.352 37.2798 105.147 37.3071C104.453 37.3239 103.757 37.3158 103.064 37.3109C102.929 37.3214 102.86 37.1818 102.883 37.0676C102.896 36.4371 102.916 35.8073 102.933 35.1774C102.455 35.9134 101.831 36.5749 101.043 36.9894C100.004 37.5529 98.7696 37.6751 97.6114 37.5026C96.5919 37.3487 95.6208 36.8796 94.8894 36.1585C93.9616 35.2568 93.411 34.0375 93.1423 32.7926C92.895 31.6272 92.8573 30.4196 93.0117 29.2393C93.1938 27.9039 93.6602 26.5778 94.519 25.5173C95.202 24.6671 96.1581 24.0267 97.2266 23.7617ZM98.8192 25.364C97.9083 25.4236 97.0213 25.8573 96.4632 26.5778C95.7294 27.5099 95.4739 28.7137 95.4073 29.8686C95.3502 31.1947 95.4569 32.5711 96.02 33.7936C96.4067 34.6425 97.1174 35.3741 98.0333 35.6503C99.2361 36.0083 100.674 35.8122 101.599 34.9261C102.404 34.1547 102.757 33.0446 102.902 31.9716C103.047 30.7554 103.023 29.5056 102.718 28.3141C102.464 27.3423 101.944 26.3805 101.061 25.8375C100.4 25.4174 99.5914 25.297 98.8192 25.364Z" fill="white"/>
<path d="M64.9108 23.7102C66.0678 23.5483 67.3008 23.6748 68.3347 24.2408C69.0554 24.6237 69.6279 25.2281 70.0686 25.902C70.0542 25.2784 70.0083 24.6553 69.9989 24.0317C69.9845 23.9026 70.1251 23.8399 70.2356 23.8567C70.9079 23.8598 71.5803 23.8505 72.252 23.861C72.3738 23.8567 72.424 23.9926 72.4127 24.0937C72.3926 25.8108 72.3788 27.5272 72.3581 29.2443C72.3694 31.7073 72.3788 34.1709 72.3851 36.6338C72.3656 37.8569 72.1063 39.1142 71.4152 40.1468C70.8671 40.9789 70.0341 41.6094 69.1006 41.9656C67.9317 42.4174 66.651 42.4856 65.4105 42.4087C64.1563 42.3168 62.8693 41.9693 61.8894 41.1577C61.0005 40.4335 60.4844 39.3134 60.4361 38.184C60.4543 38.0264 60.6382 38.0338 60.7588 38.0344C61.3872 38.0419 62.0156 38.0288 62.6433 38.0406C62.8279 38.0369 62.8524 38.2429 62.8794 38.3794C62.9961 39.0943 63.4224 39.7596 64.0508 40.1393C64.8594 40.6364 65.8487 40.7437 66.781 40.6854C67.7145 40.6258 68.6574 40.233 69.2381 39.4878C69.9462 38.5979 70.127 37.4232 70.1289 36.3217C70.1289 35.8439 70.132 35.3667 70.1264 34.8895C69.67 35.6236 69.051 36.2733 68.2732 36.6767C67.1514 37.2761 65.8117 37.3468 64.5781 37.1123C63.45 36.9001 62.391 36.318 61.6452 35.4511C60.7776 34.4582 60.3193 33.1743 60.1479 31.8872C59.9866 30.6337 60.0419 29.3455 60.3652 28.1205C60.6696 26.9762 61.2359 25.8772 62.1078 25.0543C62.8687 24.3289 63.8656 23.8579 64.9108 23.7102ZM65.9291 25.3665C65.0389 25.4335 64.1764 25.8542 63.6183 26.5486C62.8605 27.4788 62.5937 28.697 62.5228 29.8636C62.4644 31.1618 62.5573 32.5221 63.1625 33.6999C63.5819 34.5302 64.3609 35.1824 65.28 35.4002C66.2568 35.6298 67.3485 35.5876 68.233 35.08C69.051 34.6127 69.5695 33.7644 69.8263 32.8857C70.1609 31.729 70.1854 30.504 70.0542 29.315C69.9085 28.1403 69.5124 26.9104 68.5808 26.1124C67.8626 25.485 66.8651 25.2709 65.9291 25.3665Z" fill="white"/>
<path d="M106.932 24.0627C106.874 24.0112 106.856 23.8505 106.965 23.8616C107.762 23.8511 108.559 23.8567 109.356 23.8592C109.547 23.8443 109.653 24.0174 109.734 24.1595C110.721 25.7556 111.718 27.3448 112.705 28.9402C113.69 27.315 114.662 25.6823 115.645 24.0559C115.714 23.9287 115.848 23.8405 115.999 23.8573C116.669 23.8579 117.34 23.8523 118.011 23.8598C118.138 23.8288 118.167 23.9802 118.092 24.0546C116.799 26.1167 115.504 28.1763 114.21 30.2372L114.213 30.2868C115.586 32.4414 116.949 34.6022 118.318 36.7592C118.397 36.9354 118.615 37.0912 118.565 37.2953C117.86 37.3431 117.149 37.2997 116.441 37.3164C116.223 37.3102 115.927 37.3667 115.811 37.1278C114.695 35.3108 113.559 33.5056 112.454 31.6818C111.301 33.4926 110.194 35.3338 109.057 37.1539C108.955 37.3444 108.712 37.314 108.531 37.3171C107.882 37.3053 107.232 37.3307 106.584 37.3053C106.476 37.3071 106.509 37.1545 106.561 37.1036C108.024 34.7951 109.489 32.4879 110.953 30.1795C109.613 28.1397 108.272 26.1018 106.932 24.0627Z" fill="white"/>
<path d="M119.126 23.8573C119.949 23.8591 120.772 23.8517 121.596 23.8598C121.733 23.8486 121.814 23.9727 121.851 24.0863C123.002 27.1059 124.159 30.1236 125.311 33.1426C125.453 33.4864 125.557 33.8463 125.727 34.1789C126.821 30.8174 127.898 27.4497 128.986 24.0856C129.013 23.9653 129.106 23.8467 129.245 23.8591C129.958 23.856 130.672 23.8523 131.385 23.861C131.541 23.8567 131.505 24.0397 131.467 24.1359C129.414 29.9374 127.363 35.7408 125.311 41.5424C125.279 41.6628 125.176 41.7652 125.043 41.7503C124.414 41.7546 123.784 41.7534 123.155 41.7503C123.034 41.7732 122.939 41.6466 123 41.5411C123.482 40.135 123.986 38.7356 124.47 37.3295C122.721 32.9968 120.981 28.6597 119.234 24.3264C119.179 24.1756 119.074 24.023 119.126 23.8567V23.8573Z" fill="white"/>
<path d="M23.2488 41.7881C23.3644 41.7739 23.4799 41.7621 23.596 41.7596C30.8775 41.7602 38.1597 41.7596 45.4418 41.7596C45.723 41.7571 46.0049 41.7497 46.2849 41.7863C46.2466 42.2591 46.2742 42.7332 46.2661 43.2067C46.2667 44.2424 46.2661 45.2775 46.2667 46.3132H23.2664C23.2551 44.8053 23.289 43.2955 23.2488 41.7881Z" fill="white"/>
</svg>
