<svg width="150" height="60" viewBox="0 0 150 60" fill="none" xmlns="http://www.w3.org/2000/svg">
<mask id="mask0_109_992" style="mask-type:luminance" maskUnits="userSpaceOnUse" x="4" y="23" width="142" height="15">
<path d="M146 23H4V37.6266H146V23Z" fill="white"/>
</mask>
<g mask="url(#mask0_109_992)">
<path d="M130.997 23H127.535L124.299 37.6266H127.761L130.997 23Z" fill="white"/>
<path d="M146 23H142.537L139.302 37.6266H142.764L146 23Z" fill="white"/>
<path d="M134.458 23L139.302 37.6266H135.839L130.996 23H134.458Z" fill="white"/>
<path d="M48.8186 34.162L51.2882 23H47.8259L44.5898 37.6266H63.0559L63.8221 34.162H48.8186Z" fill="white"/>
<path d="M67.7529 23L64.5166 37.6266H77.3967C80.4817 37.6266 83.5362 35.1239 84.2188 32.037L81.5232 28.5724H84.9854C85.6662 25.4949 83.7251 23.0003 80.6499 23.0003L67.7529 23ZM78.181 34.1617H68.7456L69.2155 32.0367H80.7571L80.7535 32.0542C80.4957 33.2181 79.3438 34.1617 78.181 34.1617ZM81.5238 28.5721H69.9822L70.4484 26.4646H79.8838C81.0472 26.4646 81.781 27.4082 81.5238 28.5721Z" fill="white"/>
<path d="M122.835 37.6266L124.072 32.037L121.376 28.5724H124.838C125.519 25.4949 123.578 23 120.503 23H107.605L104.369 37.6263H107.831L109.069 32.0367H120.61L119.373 37.6263L122.835 37.6266ZM121.376 28.5724H109.835L110.301 26.4649H119.736C120.9 26.4649 121.633 27.4085 121.376 28.5724Z" fill="white"/>
<path d="M87.6785 23L84.4424 37.6266H102.908L106.145 23H87.6785ZM100.212 34.162H88.6713L90.3741 26.4649H101.916L100.212 34.162Z" fill="white"/>
<path d="M36.765 23H32.9353L23.9287 37.6266H27.391L36.765 23H40.5943L43.129 37.6266H39.6668L36.765 23Z" fill="white"/>
<path d="M22.2396 23L21.005 28.581H9.4637L10.6983 23H7.23608L4 37.6266H7.46253L9.4637 28.581L12.1594 32.0459H20.2385L19.0035 37.6266H22.466L25.7019 23H22.2396Z" fill="white"/>
</g>
</svg>
