<svg width="150" height="60" viewBox="0 0 150 60" fill="none" xmlns="http://www.w3.org/2000/svg">
<path d="M12.569 25.6235C15.5521 25.6235 15.5521 35.3725 18.5353 35.3725C21.5184 35.3725 21.5184 25.6235 24.5016 25.6235C27.4847 25.6235 27.4847 35.3725 30.4679 35.3725C33.451 35.3725 33.451 25.6235 36.4342 25.6235C39.4173 25.6235 39.4173 35.3725 42.4004 35.3725" stroke="#0F60FF" stroke-width="2" stroke-miterlimit="10" stroke-linecap="round"/>
<path d="M48.0899 24.6393H50.8885L54.0254 33.4965H54.0562L57.1009 24.6393H59.8687V35.9569H57.9927V27.2227H57.962L54.8251 35.9569H53.1643L50.0274 27.2227H49.9967V35.9569H48.1207L48.0899 24.6393Z" fill="black"/>
<path d="M62.0215 24.6393H70.1714V26.3616H64.0206V29.314H69.7408V30.9439H64.0206V34.2654H70.2944V35.9876H62.0523V24.6393H62.0215Z" fill="black"/>
<path d="M71.7706 24.6393H74.5692L77.7061 33.4965H77.7369L80.7815 24.6393H83.5494V35.9569H81.6734V27.2227H81.6426L78.5057 35.9569H76.8758L73.6773 27.2227H73.6466V35.9569H71.7706V24.6393Z" fill="black"/>
<path d="M85.6714 24.6393H91.1764C93.2062 24.6393 94.5286 25.562 94.5286 27.438C94.5286 28.5759 93.9443 29.4062 92.8987 29.8368V29.8675C94.2826 30.1751 95.0207 31.2515 95.0207 32.7892C95.0207 34.5729 93.7905 35.9569 90.8381 35.9569H85.6407V24.6393H85.6714ZM87.6397 29.3755H90.8689C91.8223 29.3755 92.5296 28.8219 92.5296 27.807C92.5296 26.6691 91.9453 26.2693 90.8689 26.2693H87.6397V29.3755ZM87.6397 34.3269H91.1457C92.3451 34.3269 93.0524 33.6811 93.0524 32.5431C93.0524 31.4052 92.3451 30.7902 91.1457 30.7902H87.6397V34.3269Z" fill="black"/>
<path d="M96.6199 24.6393H102.033C104.524 24.6393 105.785 25.7772 105.785 27.684C105.785 29.8675 104.308 30.4211 103.909 30.5441V30.5749C104.585 30.6671 105.6 31.19 105.6 32.9737C105.6 34.2961 105.785 35.4955 106.215 35.9569H104.093C103.786 35.4648 103.786 34.8497 103.786 34.2961C103.786 32.2049 103.355 31.313 101.541 31.313H98.6189V35.9569H96.6506V24.6393H96.6199ZM98.6189 29.806H101.879C103.14 29.806 103.816 29.191 103.816 27.9915C103.816 26.5461 102.894 26.2693 101.848 26.2693H98.6189V29.806Z" fill="black"/>
<path d="M110.613 24.6393H112.735L117.102 35.9569H114.98L113.904 32.9737H109.383L108.306 35.9569H106.277L110.613 24.6393ZM109.906 31.4668H113.35L111.659 26.6076H111.597L109.906 31.4668Z" fill="black"/>
<path d="M117.871 24.6393H119.962L125.129 32.9737H125.16V24.6393H127.036V35.9569H124.944L119.808 27.6225H119.747V35.9569H117.871V24.6393Z" fill="black"/>
<path d="M129.188 24.6393H137.338V26.3616H131.187V29.314H136.908V30.9439H131.187V34.2654H137.431V35.9876H129.188V24.6393Z" fill="black"/>
</svg>
