<svg width="150" height="60" viewBox="0 0 150 60" fill="none" xmlns="http://www.w3.org/2000/svg">
<path d="M12.569 25.6234C15.5521 25.6234 15.5521 35.3724 18.5353 35.3724C21.5184 35.3724 21.5184 25.6234 24.5016 25.6234C27.4847 25.6234 27.4847 35.3724 30.4679 35.3724C33.451 35.3724 33.451 25.6234 36.4342 25.6234C39.4173 25.6234 39.4173 35.3724 42.4004 35.3724" stroke="white" stroke-width="2" stroke-miterlimit="10" stroke-linecap="round"/>
<path d="M48.0899 24.6392H50.8885L54.0254 33.4964H54.0562L57.1009 24.6392H59.8687V35.9567H57.9927V27.2226H57.962L54.8251 35.9567H53.1643L50.0274 27.2226H49.9967V35.9567H48.1207L48.0899 24.6392Z" fill="white"/>
<path d="M62.0215 24.6392H70.1714V26.3615H64.0206V29.3138H69.7408V30.9438H64.0206V34.2653H70.2944V35.9875H62.0523V24.6392H62.0215Z" fill="white"/>
<path d="M71.7706 24.6392H74.5692L77.7061 33.4964H77.7369L80.7815 24.6392H83.5494V35.9567H81.6734V27.2226H81.6426L78.5057 35.9567H76.8758L73.6773 27.2226H73.6466V35.9567H71.7706V24.6392Z" fill="white"/>
<path d="M85.6714 24.6392H91.1764C93.2062 24.6392 94.5286 25.5618 94.5286 27.4378C94.5286 28.5757 93.9443 29.4061 92.8987 29.8367V29.8674C94.2826 30.175 95.0207 31.2514 95.0207 32.7891C95.0207 34.5728 93.7905 35.9567 90.8381 35.9567H85.6407V24.6392H85.6714ZM87.6397 29.3754H90.8689C91.8223 29.3754 92.5296 28.8218 92.5296 27.8069C92.5296 26.669 91.9453 26.2692 90.8689 26.2692H87.6397V29.3754ZM87.6397 34.3268H91.1457C92.3451 34.3268 93.0524 33.6809 93.0524 32.543C93.0524 31.4051 92.3451 30.79 91.1457 30.79H87.6397V34.3268Z" fill="white"/>
<path d="M96.6199 24.6392H102.033C104.524 24.6392 105.785 25.7771 105.785 27.6839C105.785 29.8674 104.308 30.421 103.909 30.544V30.5748C104.585 30.667 105.6 31.1898 105.6 32.9736C105.6 34.296 105.785 35.4954 106.215 35.9567H104.093C103.786 35.4647 103.786 34.8496 103.786 34.296C103.786 32.2047 103.355 31.3129 101.541 31.3129H98.6189V35.9567H96.6506V24.6392H96.6199ZM98.6189 29.8059H101.879C103.14 29.8059 103.816 29.1908 103.816 27.9914C103.816 26.546 102.894 26.2692 101.848 26.2692H98.6189V29.8059Z" fill="white"/>
<path d="M110.613 24.6392H112.735L117.102 35.9567H114.98L113.904 32.9736H109.383L108.306 35.9567H106.277L110.613 24.6392ZM109.906 31.4666H113.35L111.659 26.6075H111.597L109.906 31.4666Z" fill="white"/>
<path d="M117.871 24.6392H119.962L125.129 32.9736H125.16V24.6392H127.036V35.9567H124.944L119.808 27.6224H119.747V35.9567H117.871V24.6392Z" fill="white"/>
<path d="M129.188 24.6392H137.338V26.3615H131.187V29.3138H136.908V30.9438H131.187V34.2653H137.431V35.9875H129.188V24.6392Z" fill="white"/>
</svg>
