<svg width="150" height="60" viewBox="0 0 150 60" fill="none" xmlns="http://www.w3.org/2000/svg">
<path d="M59.3356 32.0322L58.7002 33.8213H58.6473C58.5414 33.4178 58.3472 32.8039 58.0295 32.0673L54.6231 23.5604H51.2872V37.1188H53.4935V28.7522C53.4935 28.226 53.4935 27.6296 53.4758 26.893C53.4582 26.5246 53.4229 26.244 53.4052 26.0335H53.4581C53.564 26.5597 53.6876 26.9456 53.7759 27.1911L57.8707 37.0837H59.4239L63.4834 27.1034C63.5716 26.8754 63.6599 26.4194 63.7481 26.0335H63.8011C63.7481 27.0333 63.7128 27.9278 63.6952 28.4716V37.0662H66.0426V23.5253H62.8303L59.3356 32.0322ZM68.2665 27.349H70.561V37.0662H68.2665V27.349ZM69.4314 23.2447C69.0431 23.2447 68.7254 23.385 68.4607 23.6305C68.1959 23.8761 68.0547 24.1918 68.0547 24.5777C68.0547 24.946 68.1959 25.2618 68.4607 25.5073C68.7254 25.7529 69.0431 25.8757 69.4314 25.8757C69.8197 25.8757 70.1551 25.7353 70.4022 25.5073C70.6669 25.2618 70.8081 24.946 70.8081 24.5777C70.8081 24.2094 70.6669 23.8936 70.4022 23.6305C70.1727 23.385 69.8374 23.2447 69.4314 23.2447ZM78.6977 27.2613C78.2741 27.1736 77.8328 27.121 77.4092 27.121C76.3679 27.121 75.4148 27.349 74.6205 27.805C73.8263 28.2611 73.1909 28.8925 72.7849 29.6818C72.3613 30.4887 72.1495 31.4183 72.1495 32.4882C72.1495 33.4178 72.3613 34.2422 72.7673 34.9964C73.1732 35.7331 73.738 36.3295 74.497 36.7329C75.2206 37.1363 76.0678 37.3468 77.0209 37.3468C78.1152 37.3468 79.0507 37.1188 79.792 36.6978L79.8096 36.6803V34.5755L79.7214 34.6456C79.386 34.8912 78.9977 35.1017 78.6094 35.2245C78.2035 35.3648 77.8328 35.4349 77.5151 35.4349C76.5973 35.4349 75.8737 35.1718 75.3618 34.593C74.8323 34.0317 74.5676 33.26 74.5676 32.2953C74.5676 31.2955 74.8323 30.5062 75.3795 29.9274C75.9266 29.3486 76.6503 29.0504 77.5328 29.0504C78.2741 29.0504 79.033 29.2959 79.7214 29.7871L79.8096 29.8572V27.6296L79.792 27.6121C79.4919 27.4893 79.1566 27.349 78.6977 27.2613ZM86.2695 27.1911C85.7047 27.1911 85.1752 27.3665 84.7163 27.7349C84.328 28.0506 84.0633 28.5066 83.8338 29.0504H83.8162V27.349H81.5217V37.0662H83.8162V32.1023C83.8162 31.2604 83.9927 30.5588 84.381 30.0502C84.7693 29.524 85.2635 29.2609 85.8636 29.2609C86.0754 29.2609 86.2872 29.3135 86.5519 29.3486C86.799 29.4187 86.9755 29.4889 87.0991 29.5766L87.1873 29.6467V27.3665L87.1344 27.349C86.9755 27.2438 86.6578 27.1911 86.2695 27.1911ZM92.5176 27.1385C90.9115 27.1385 89.623 27.6121 88.7229 28.5417C87.8051 29.4713 87.3638 30.7518 87.3638 32.3654C87.3638 33.8739 87.8227 35.1017 88.7052 35.9962C89.5877 36.8732 90.7879 37.3293 92.2882 37.3293C93.859 37.3293 95.1122 36.8557 96.0123 35.9085C96.9301 34.9614 97.3714 33.6985 97.3714 32.1374C97.3714 30.5939 96.9478 29.3661 96.0829 28.4716C95.2534 27.577 94.0355 27.1385 92.5176 27.1385ZM94.3532 34.6106C93.9296 35.1543 93.2589 35.4174 92.4294 35.4174C91.5998 35.4174 90.9291 35.1543 90.4526 34.5755C89.976 34.0317 89.7466 33.2424 89.7466 32.2427C89.7466 31.2078 89.9937 30.4185 90.4526 29.8572C90.9291 29.2959 91.5822 29.0153 92.4117 29.0153C93.2236 29.0153 93.859 29.2784 94.3179 29.8221C94.7768 30.3659 95.0239 31.1552 95.0239 32.19C94.9886 33.2424 94.7945 34.0668 94.3532 34.6106ZM102.49 31.3832C101.766 31.085 101.307 30.857 101.096 30.6641C100.919 30.4887 100.831 30.2431 100.831 29.9274C100.831 29.6643 100.937 29.4012 101.201 29.2258C101.466 29.0504 101.766 28.9627 102.207 28.9627C102.596 28.9627 103.002 29.0328 103.39 29.1381C103.778 29.2433 104.131 29.4012 104.414 29.6117L104.502 29.6818V27.5419L104.449 27.5244C104.184 27.4192 103.831 27.3139 103.408 27.2262C102.984 27.1561 102.596 27.121 102.278 27.121C101.184 27.121 100.284 27.3841 99.5776 27.9629C98.8716 28.5066 98.5363 29.2433 98.5363 30.1028C98.5363 30.5588 98.6069 30.9622 98.7657 31.2955C98.9246 31.6288 99.154 31.9445 99.4717 32.2076C99.7894 32.4531 100.248 32.7338 100.884 32.9969C101.413 33.2249 101.819 33.4003 102.066 33.5406C102.313 33.6809 102.472 33.8388 102.596 33.9616C102.684 34.1019 102.737 34.2773 102.737 34.5053C102.737 35.1543 102.243 35.47 101.237 35.47C100.848 35.47 100.442 35.3999 99.9659 35.242C99.4894 35.0841 99.0481 34.8561 98.6775 34.593L98.5892 34.5229V36.7504L98.6422 36.768C98.9775 36.9258 99.3835 37.0311 99.8777 37.1539C100.372 37.2416 100.813 37.3117 101.201 37.3117C102.384 37.3117 103.355 37.0486 104.043 36.4698C104.749 35.9085 105.12 35.1894 105.12 34.2598C105.12 33.6108 104.943 33.032 104.555 32.5935C104.043 32.1725 103.408 31.734 102.49 31.3832ZM111.174 27.1385C109.568 27.1385 108.279 27.6121 107.379 28.5417C106.479 29.4713 106.02 30.7518 106.02 32.3654C106.02 33.8739 106.479 35.1017 107.361 35.9962C108.244 36.8732 109.444 37.3293 110.944 37.3293C112.515 37.3293 113.768 36.8557 114.668 35.9085C115.586 34.9614 116.027 33.6985 116.027 32.1374C116.027 30.5939 115.604 29.3661 114.739 28.4716C113.909 27.577 112.692 27.1385 111.174 27.1385ZM112.992 34.6106C112.568 35.1543 111.897 35.4174 111.068 35.4174C110.221 35.4174 109.568 35.1543 109.091 34.5755C108.614 34.0317 108.385 33.2424 108.385 32.2427C108.385 31.2078 108.632 30.4185 109.091 29.8572C109.568 29.2959 110.221 29.0153 111.05 29.0153C111.844 29.0153 112.497 29.2784 112.956 29.8221C113.415 30.3659 113.662 31.1552 113.662 32.19C113.662 33.2424 113.433 34.0668 112.992 34.6106ZM128.294 29.2258V27.349H125.982V24.4725L125.911 24.49L123.723 25.139L123.67 25.1565V27.349H120.21V26.1212C120.21 25.5599 120.352 25.1214 120.599 24.8408C120.846 24.5602 121.217 24.4198 121.675 24.4198C121.993 24.4198 122.328 24.49 122.699 24.6479L122.787 24.7005V22.7185L122.734 22.7009C122.417 22.5957 121.993 22.5255 121.446 22.5255C120.758 22.5255 120.158 22.6834 119.61 22.9465C119.063 23.2447 118.657 23.6481 118.357 24.1918C118.057 24.718 117.898 25.3144 117.898 25.9984V27.349H116.292V29.2082H117.898V37.0662H120.21V29.2258H123.67V34.2247C123.67 36.2769 124.641 37.3117 126.582 37.3117C126.9 37.3117 127.235 37.2591 127.553 37.2065C127.888 37.1363 128.135 37.0486 128.277 36.9785L128.294 36.9609V35.0841L128.206 35.1543C128.065 35.242 127.941 35.3122 127.729 35.3648C127.553 35.4174 127.394 35.4349 127.27 35.4349C126.812 35.4349 126.494 35.3297 126.264 35.0666C126.053 34.821 125.947 34.4176 125.947 33.8213V29.2258H128.294Z" fill="white"/>
<path d="M21.7058 19H32.5253V29.752H21.7058V19Z" fill="white"/>
<path d="M33.6548 19H44.4743V29.752H33.6548V19Z" fill="white"/>
<path d="M21.7058 30.8746H32.5253V41.6266H21.7058V30.8746Z" fill="white"/>
<path d="M33.6548 30.8746H44.4743V41.6266H33.6548V30.8746Z" fill="white"/>
</svg>
