<svg width="150" height="60" viewBox="0 0 150 60" fill="none" xmlns="http://www.w3.org/2000/svg">
<path d="M129.335 35.9332V27.7488H131.327V28.7447H131.439C131.777 28.1378 132.613 27.5466 133.817 27.5466C135.714 27.5466 136.87 28.838 136.87 30.5807V35.9332H134.782V31.1097C134.782 30.1139 134.123 29.4449 133.159 29.4449C132.147 29.4449 131.423 30.2228 131.423 31.2498V35.9332H129.335Z" fill="#0F1426"/>
<path d="M127.212 27.0207C126.456 27.0207 125.926 26.5695 125.926 25.8382C125.926 25.138 126.456 24.6712 127.212 24.6712C127.967 24.6712 128.497 25.138 128.497 25.8382C128.497 26.5695 127.967 27.0207 127.212 27.0207ZM126.167 35.9332V27.7488H128.256V35.9332H126.167Z" fill="#0F1426"/>
<path d="M117.82 36.1355C115.329 36.1355 113.562 34.3306 113.562 31.8877C113.562 29.3048 115.345 27.5466 117.82 27.5466C120.534 27.5466 122.013 29.4915 122.013 31.7944V32.4323H115.586C115.65 33.677 116.534 34.5173 117.884 34.5173C118.912 34.5173 119.699 34.0505 119.988 33.3814H121.932C121.515 35.0463 120.004 36.1355 117.82 36.1355ZM115.618 31.0008H120.021C119.924 29.8961 119.04 29.1648 117.82 29.1648C116.646 29.1648 115.746 29.9739 115.618 31.0008Z" fill="#0F1426"/>
<path d="M103.808 38.9833V27.7488H105.864V28.7913H105.977C106.202 28.449 106.973 27.5466 108.515 27.5466C110.878 27.5466 112.5 29.2582 112.5 31.8099C112.5 34.3617 110.893 36.1355 108.579 36.1355C107.086 36.1355 106.282 35.3263 106.009 34.8752H105.897V38.9833H103.808ZM108.113 34.2994C109.463 34.2994 110.379 33.2881 110.379 31.841C110.379 30.3473 109.463 29.3826 108.098 29.3826C106.716 29.3826 105.848 30.4562 105.848 31.841C105.848 33.3658 106.813 34.2994 108.113 34.2994Z" fill="#0F1426"/>
<path d="M88.7932 36.1355C86.3028 36.1355 84.5354 34.3306 84.5354 31.8877C84.5354 29.3048 86.3189 27.5466 88.7932 27.5466C91.5084 27.5466 92.9866 29.4915 92.9866 31.7944V32.4323H86.5598C86.6242 33.677 87.5078 34.5173 88.8574 34.5173C89.8857 34.5173 90.6729 34.0505 90.9622 33.3814H92.9064C92.4882 35.0463 90.9784 36.1355 88.7932 36.1355ZM86.592 31.0008H90.9946C90.8982 29.8961 90.0143 29.1648 88.7932 29.1648C87.6203 29.1648 86.7205 29.9739 86.592 31.0008Z" fill="#0F1426"/>
<path d="M74.9279 35.9332V34.0186L80.7763 26.634V26.5214H75.1368V24.6712H83.4435V26.5696L77.5951 33.9543V34.083H83.4756V35.9332H74.9279Z" fill="#0F1426"/>
<path d="M66.3269 35.9332V27.7488H68.3192V28.7447H68.4317C68.7691 28.1378 69.6046 27.5466 70.8096 27.5466C72.7055 27.5466 73.8624 28.838 73.8624 30.5807V35.9332H71.7736V31.1097C71.7736 30.1139 71.1149 29.4449 70.1509 29.4449C69.1387 29.4449 68.4156 30.2228 68.4156 31.2498V35.9332H66.3269Z" fill="#0F1426"/>
<path d="M61.0706 36.1355C58.5802 36.1355 56.8128 34.3306 56.8128 31.8877C56.8128 29.3048 58.5963 27.5466 61.0706 27.5466C63.7859 27.5466 65.2641 29.4915 65.2641 31.7944V32.4323H58.8373C58.9016 33.677 59.7853 34.5173 61.1349 34.5173C62.1632 34.5173 62.9505 34.0505 63.2396 33.3814H65.1838C64.766 35.0463 63.2557 36.1355 61.0706 36.1355ZM58.8694 31.0008H63.2718C63.1754 29.8961 62.2917 29.1648 61.0706 29.1648C59.8977 29.1648 58.9979 29.9739 58.8694 31.0008Z" fill="#0F1426"/>
<path d="M47.0607 38.9717V27.7203H49.1173V28.7913H49.2298C49.4546 28.449 50.2259 27.5466 51.7683 27.5466C54.1302 27.5466 55.753 29.2582 55.753 31.8099C55.753 34.3617 54.1463 36.1355 51.8326 36.1355C50.3383 36.1355 49.535 35.3263 49.2619 34.8752H49.1494V38.9717H47.0607ZM51.3666 34.2994C52.7163 34.2994 53.6321 33.2881 53.6321 31.841C53.6321 30.3473 52.7163 29.3826 51.3506 29.3826C49.9689 29.3826 49.1012 30.4562 49.1012 31.841C49.1012 33.3658 50.0652 34.2994 51.3666 34.2994Z" fill="#0F1426"/>
<path d="M39.8404 36.1355C36.3106 36.1355 33.7132 33.6362 33.7132 30.2824C33.7132 26.9608 36.3273 24.4293 39.8571 24.4293C43.3869 24.4293 46.001 26.9931 46.001 30.2824C46.001 33.604 43.3702 36.1355 39.8404 36.1355ZM39.8571 34.0877C42.0882 34.0877 43.6866 32.4753 43.6866 30.2824C43.6866 28.1218 42.0882 26.4771 39.8571 26.4771C37.6093 26.4771 36.0109 28.1218 36.0109 30.2824C36.0109 32.4753 37.6093 34.0877 39.8571 34.0877Z" fill="#0F1426"/>
<path d="M125.102 24.6237H123.076V35.9334H125.102V24.6237Z" fill="#0F1426"/>
<path d="M94.0498 38.9833V27.7488H96.1058V28.7913H96.2184C96.4437 28.449 97.2144 27.5466 98.7574 27.5466C101.119 27.5466 102.742 29.2582 102.742 31.8099C102.742 34.3617 101.135 36.1355 98.8215 36.1355C97.3271 36.1355 96.5239 35.3263 96.2508 34.8752H96.1382V38.9833H94.0498ZM98.3555 34.2994C99.7048 34.2994 100.621 33.2881 100.621 31.841C100.621 30.3473 99.7048 29.3826 98.3393 29.3826C96.9575 29.3826 96.0904 30.4562 96.0904 31.841C96.0904 33.3658 97.054 34.2994 98.3555 34.2994Z" fill="#0F1426"/>
<path d="M13.1299 38.9996C15.1217 35.6624 16.8141 32.9102 18.9652 29.138C19.725 27.8651 21.038 27.0742 22.6588 27.0742H25.2056L18.0934 38.9996H13.1299Z" fill="#0F1426"/>
<path d="M13.1541 21.6266H28.4359L25.8248 26.0356H13.1541V21.6266Z" fill="#0F1426"/>
<path d="M20.8073 36.2539C21.382 35.27 22.3057 34.6588 23.5996 34.6588L28.4374 34.646V39H19.1678C19.7482 38.0361 20.2521 37.2044 20.8073 36.2539Z" fill="#0F1426"/>
</svg>
