<svg width="150" height="60" viewBox="0 0 150 60" fill="none" xmlns="http://www.w3.org/2000/svg">
<g clip-path="url(#clip0_159_1260)">
<path d="M29.9268 35.3973C31.3526 35.0484 32.6265 34.3103 33.6363 33.3119C34.6461 32.3124 35.3828 31.0515 35.7432 29.6403L36.753 33.0976L38.1074 37.7374L33.4198 36.3968L29.9268 35.3973Z" fill="white"/>
<path d="M30.608 40.8133C24.7508 40.8133 19.9998 36.1108 19.9998 30.3133C19.9998 29.8456 20.0315 29.3778 20.0961 28.9257C20.7206 24.2388 24.4709 20.5189 29.214 19.9008C29.6707 19.8369 30.1433 19.8133 30.6159 19.8133C36.4731 19.8133 41.2241 24.5159 41.2241 30.3133C41.2241 32.3359 40.6472 34.2306 39.6454 35.8326L37.0817 28.3457C37.042 28.2268 37.0012 28.1 36.9536 27.9811C36.6816 27.2677 36.2963 26.6013 35.8078 26.0303C34.5657 24.563 32.699 23.6274 30.6159 23.6274C26.8826 23.6274 23.8611 26.6249 23.8611 30.3212C23.8611 32.3831 24.8063 34.2306 26.2888 35.4601C26.8736 35.9436 27.5389 36.3329 28.2676 36.6021C28.3877 36.6492 28.5079 36.6896 28.628 36.721L36.1841 39.2664C34.5577 40.2423 32.6503 40.8133 30.608 40.8133Z" fill="white"/>
<path d="M55.0851 33.589L57.2566 36.3329H53.8429L52.705 34.6435C52.3843 34.6984 52.0635 34.731 51.7281 34.731C48.8119 34.731 46.4478 32.5659 46.4478 29.5045C46.4478 26.4432 48.8119 24.2938 51.7281 24.2938C54.6442 24.2938 56.9925 26.4432 56.9925 29.5045C56.9925 31.2254 56.2479 32.6691 55.0851 33.589ZM51.7281 32.106C53.2025 32.106 54.0922 31.0829 54.0922 29.5045C54.0922 27.9262 53.2025 26.8874 51.7281 26.8874C50.2536 26.8874 49.3639 27.9026 49.3639 29.5045C49.3639 31.1065 50.2377 32.106 51.7281 32.106Z" fill="white"/>
<path d="M58.2505 24.4531H61.0952V30.3616C61.0952 31.4161 61.5758 32.0824 62.6581 32.0824C63.7405 32.0824 64.2448 31.4161 64.2448 30.3616V24.4531H67.1054V30.3616C67.1054 33.2637 65.062 34.7388 62.5947 34.7388C60.1274 34.7388 58.2517 33.2637 58.2517 30.3616V24.4531H58.2505Z" fill="white"/>
<path d="M75.1885 32.9698H71.5425L70.9894 34.6278H67.9849L71.7352 24.4452H75.0366L78.762 34.6356H75.7416L75.1885 32.9698ZM73.3695 27.5133L72.2712 30.8047H74.4745L73.3683 27.5133H73.3695Z" fill="white"/>
<path d="M89.1378 29.5359C89.1378 32.4784 87.0547 34.6356 83.7691 34.6356H79.6992V24.4531H83.7691C87.0536 24.4531 89.1378 26.5464 89.1378 29.5371V29.5359ZM83.5527 32.1295C85.2028 32.1295 86.2364 31.2018 86.2364 29.5281C86.2364 27.8544 85.2028 26.9031 83.5527 26.9031H82.5587V32.1295H83.5527Z" fill="white"/>
<path d="M94.9304 24.4531C97.4861 24.4531 98.7679 25.8968 98.7679 27.7209C98.7679 29.0536 98.0392 30.2034 96.508 30.6634L98.8314 34.6367H95.6342L93.5908 30.8776H93.2859V34.6367H90.4253V24.4531H94.9281H94.9304ZM94.6981 26.8156H93.2802V28.9414H94.6981C95.4756 28.9414 95.8677 28.569 95.8677 27.8712C95.8677 27.2363 95.4756 26.8167 94.6981 26.8167V26.8156Z" fill="white"/>
<path d="M106.58 32.9698H102.934L102.381 34.6278H99.3766L103.127 24.4452H106.428L110.162 34.6278H107.141L106.58 32.9698ZM104.753 27.5133L103.655 30.8047H105.858L104.752 27.5133H104.753Z" fill="white"/>
<path d="M120.618 24.4531V34.6356H117.757L113.951 28.9414V34.6356H111.091V24.4531H113.951L117.757 30.2191V24.4531H120.618Z" fill="white"/>
<path d="M121.683 24.4531H130V26.7057H127.259V34.6356H124.399V26.7045H121.682V24.452L121.683 24.4531Z" fill="white"/>
</g>
<defs>
<clipPath id="clip0_159_1260">
<rect width="110" height="21" fill="white" transform="translate(19.9998 19.8133)"/>
</clipPath>
</defs>
</svg>
