<svg width="150" height="60" viewBox="0 0 150 60" fill="none" xmlns="http://www.w3.org/2000/svg">
<g clip-path="url(#clip0_159_1248)">
<path d="M29.9269 35.3974C31.3526 35.0486 32.6265 34.3104 33.6363 33.312C34.6462 32.3125 35.3828 31.0516 35.7432 29.6404L36.7531 33.0978L38.1074 37.7375L33.4199 36.397L29.9269 35.3974Z" fill="#48019F"/>
<path d="M30.608 40.8135C24.7508 40.8135 19.9998 36.1109 19.9998 30.3135C19.9998 29.8457 20.0316 29.3779 20.0962 28.9258C20.7206 24.2389 24.4709 20.5191 29.214 19.901C29.6707 19.837 30.1433 19.8135 30.6159 19.8135C36.4731 19.8135 41.2241 24.516 41.2241 30.3135C41.2241 32.3361 40.6473 34.2308 39.6454 35.8327L37.0817 28.3458C37.0421 28.2269 37.0013 28.1002 36.9537 27.9812C36.6817 27.2678 36.2963 26.6014 35.8078 26.0304C34.5657 24.5631 32.6991 23.6276 30.6159 23.6276C26.8827 23.6276 23.8612 26.625 23.8612 30.3213C23.8612 32.3832 24.8064 34.2308 26.2888 35.4603C26.8736 35.9437 27.5389 36.333 28.2676 36.6022C28.3878 36.6494 28.5079 36.6897 28.628 36.7212L36.1841 39.2665C34.5578 40.2425 32.6503 40.8135 30.608 40.8135Z" fill="#48019F"/>
<path d="M55.0851 33.5891L57.2566 36.333H53.8429L52.705 34.6436C52.3843 34.6986 52.0636 34.7311 51.7281 34.7311C48.812 34.7311 46.4478 32.566 46.4478 29.5047C46.4478 26.4433 48.812 24.2939 51.7281 24.2939C54.6442 24.2939 56.9925 26.4433 56.9925 29.5047C56.9925 31.2255 56.2479 32.6692 55.0851 33.5891ZM51.7281 32.1061C53.2026 32.1061 54.0923 31.083 54.0923 29.5047C54.0923 27.9263 53.2026 26.8875 51.7281 26.8875C50.2536 26.8875 49.3639 27.9027 49.3639 29.5047C49.3639 31.1066 50.2377 32.1061 51.7281 32.1061Z" fill="#48019F"/>
<path d="M58.2505 24.4532H61.0953V30.3617C61.0953 31.4162 61.5758 32.0825 62.6582 32.0825C63.7405 32.0825 64.2449 31.4162 64.2449 30.3617V24.4532H67.1054V30.3617C67.1054 33.2638 65.062 34.739 62.5947 34.739C60.1274 34.739 58.2517 33.2638 58.2517 30.3617V24.4532H58.2505Z" fill="#48019F"/>
<path d="M75.1885 32.9699H71.5425L70.9894 34.6279H67.9849L71.7352 24.4454H75.0367L78.762 34.6357H75.7416L75.1885 32.9699ZM73.3695 27.5135L72.2713 30.8048H74.4745L73.3684 27.5135H73.3695Z" fill="#48019F"/>
<path d="M89.1379 29.5361C89.1379 32.4785 87.0547 34.6357 83.7692 34.6357H79.6993V24.4532H83.7692C87.0536 24.4532 89.1379 26.5465 89.1379 29.5372V29.5361ZM83.5527 32.1297C85.2028 32.1297 86.2365 31.2019 86.2365 29.5282C86.2365 27.8545 85.2028 26.9032 83.5527 26.9032H82.5587V32.1297H83.5527Z" fill="#48019F"/>
<path d="M94.9304 24.4532C97.4862 24.4532 98.768 25.897 98.768 27.721C98.768 29.0537 98.0392 30.2035 96.5081 30.6635L98.8314 34.6369H95.6342L93.5908 30.8777H93.2859V34.6369H90.4254V24.4532H94.9282H94.9304ZM94.6981 26.8157H93.2803V28.9415H94.6981C95.4756 28.9415 95.8677 28.5691 95.8677 27.8713C95.8677 27.2364 95.4756 26.8168 94.6981 26.8168V26.8157Z" fill="#48019F"/>
<path d="M106.58 32.9699H102.934L102.381 34.6279H99.3766L103.127 24.4454H106.428L110.162 34.6279H107.141L106.58 32.9699ZM104.753 27.5135L103.655 30.8048H105.858L104.752 27.5135H104.753Z" fill="#48019F"/>
<path d="M120.618 24.4532V34.6357H117.757L113.952 28.9415V34.6357H111.091V24.4532H113.952L117.757 30.2192V24.4532H120.618Z" fill="#48019F"/>
<path d="M121.683 24.4532H130V26.7058H127.259V34.6357H124.399V26.7047H121.682V24.4521L121.683 24.4532Z" fill="#48019F"/>
</g>
<defs>
<clipPath id="clip0_159_1248">
<rect width="110" height="21" fill="white" transform="translate(19.9998 19.8135)"/>
</clipPath>
</defs>
</svg>
