<svg width="150" height="60" viewBox="0 0 150 60" fill="none" xmlns="http://www.w3.org/2000/svg">
<path d="M43.0319 14.3133C34.211 14.3133 26.9998 21.4813 26.9998 30.3133C26.9998 39.1453 34.1466 46.3133 43.0319 46.3133C51.9173 46.3133 59.0641 39.1453 59.0641 30.3133C59.0641 21.4813 51.9173 14.3133 43.0319 14.3133ZM47.6034 38.3133L47.539 28.3293L37.5591 38.3133H32.6658L45.2211 25.8333H40.6497C39.2332 25.8333 38.0742 26.9853 38.0742 28.3933C38.0742 28.9693 38.2674 29.5453 38.5893 29.9293L36.1426 32.3613C35.1768 31.2733 34.5973 29.8653 34.5973 28.3293C34.5973 25.0013 37.3016 22.3133 40.6497 22.3133H51.0802V38.2493L47.6034 38.3133Z" fill="#5E59EC"/>
<path d="M71.6839 40.6173H66.8549V24.3613H71.6839V28.2653C72.5209 25.2573 74.5812 23.9773 76.2553 23.9773C77.4142 23.9773 78.2513 24.1693 79.0239 24.5533L78.1225 28.9053C77.2211 28.4573 76.3841 28.3933 75.6758 28.3933C72.9072 28.3933 71.6195 30.5693 71.6195 34.8573V40.6173H71.6839Z" fill="#1C1F32"/>
<path d="M83.9817 15.5293C85.5913 15.5293 86.9434 16.7453 86.9434 18.3453C86.9434 19.9453 85.5913 21.2253 83.9817 21.2253C82.372 21.2253 80.9555 19.9453 80.9555 18.3453C80.9555 16.7453 82.3076 15.5293 83.9817 15.5293ZM86.364 40.6173H81.535V24.3613H86.364V40.6173Z" fill="#1C1F32"/>
<path d="M95.0561 33.8973C90.1627 32.5533 90.1627 30.1213 90.1627 28.5853C90.2271 26.1533 93.0601 23.9773 96.537 23.9773C99.7563 23.9773 103.169 25.3853 103.233 29.3533H98.6617C98.5973 28.1373 97.5671 27.9453 96.7945 27.9453C95.7643 27.9453 95.0561 28.4573 95.0561 29.1613C95.1205 29.6733 95.5068 30.1213 96.4726 30.3773L99.2412 31.0813C103.169 32.1693 103.684 34.7933 103.684 35.8173C103.684 39.2733 100.078 40.8733 96.6657 40.8733C93.382 40.8733 89.9052 38.8893 89.8408 35.2413H94.3478C94.4122 36.2013 95.4424 37.0973 96.7301 37.0973C97.8247 37.0333 98.7261 36.5853 98.7261 35.7533C98.7261 35.0493 98.3398 34.6653 97.1164 34.3453L95.0561 33.8973Z" fill="#1C1F32"/>
<path d="M122.098 37.6093C120.489 40.0413 117.398 40.9373 114.694 40.9373C109.994 40.9373 106.195 37.5453 106.195 32.4253C106.195 27.3053 110.058 23.9773 114.694 23.9773C119.33 23.9773 123 27.4333 123 32.5533C123 33.0013 122.935 33.6413 122.935 34.0253H111.024C111.281 35.8813 113.342 36.7133 115.016 36.7133C116.368 36.7133 117.784 36.2013 118.557 35.1773L122.098 37.6093ZM118.106 31.0173C117.849 29.0333 116.046 28.2653 114.694 28.2653C113.342 28.2653 111.475 28.9693 111.088 31.0173H118.106Z" fill="#1C1F32"/>
</svg>
