<svg width="150" height="64" viewBox="0 0 150 64" fill="none" xmlns="http://www.w3.org/2000/svg">
<path d="M18.2612 36.3108C17.3401 36.9506 16.2053 37.3334 14.9717 37.3334C11.8686 37.3334 9.33013 34.8726 9.33013 31.8814C9.33013 28.8574 11.8686 26.3967 14.9717 26.3967C16.2053 26.3967 17.3456 26.7795 18.2667 27.4247C18.8095 26.003 19.6044 24.6906 20.6023 23.5477C18.974 22.5688 17.0441 22.0056 14.9717 22.0056C9.19307 22.0056 4.5 26.4021 4.5 31.8869C4.5 37.3389 9.18759 41.73 14.9717 41.73C17.0441 41.73 18.974 41.1667 20.5968 40.1879C21.5124 39.6411 22.3348 38.9575 23.0256 38.1755C23.8534 37.235 24.5004 36.1522 24.917 34.9656H19.6209C19.2481 35.4906 18.793 35.9444 18.2612 36.3108Z" fill="url(#paint0_linear_116_1442)"/>
<path d="M31.0795 22C29.0071 22 27.0718 22.5687 25.4489 23.5421C24.5334 24.0889 23.7164 24.7725 23.0256 25.5544C22.2033 26.4895 21.5563 27.5723 21.1396 28.7534H26.4468C26.8141 28.2394 27.2691 27.791 27.7845 27.4246C28.7111 26.7739 29.8514 26.3911 31.074 26.3911C34.2101 26.3911 36.7156 28.8519 36.7156 31.8759C36.7156 34.8616 34.2155 37.3278 31.074 37.3278C29.8514 37.3278 28.7165 36.945 27.79 36.2998C27.2472 37.727 26.4522 39.0394 25.4489 40.1823C27.0773 41.1611 29.0016 41.7244 31.074 41.7244C36.8527 41.7244 41.5402 37.3278 41.5402 31.8813C41.5512 26.3966 36.8636 22 31.0795 22Z" fill="url(#paint1_linear_116_1442)"/>
<path d="M14.5824 29.4751C13.2611 29.4751 12.1865 30.5469 12.1865 31.8648C12.1865 33.1827 13.2611 34.2545 14.5824 34.2545C15.5309 34.2545 16.3533 33.7022 16.7425 32.9038H29.314C29.7033 33.7022 30.5202 34.2545 31.4742 34.2545C32.7955 34.2545 33.87 33.1827 33.87 31.8648C33.87 30.5469 32.7955 29.4751 31.4742 29.4751C30.5257 29.4751 29.7033 30.0274 29.314 30.8258H16.7425C16.3533 30.0274 15.5309 29.4751 14.5824 29.4751Z" fill="url(#paint2_linear_116_1442)"/>
<path d="M51.1317 38.8627H47.8799V24.8671H53.9559C55.2121 24.8671 56.2946 25.07 57.2033 25.4758C58.1121 25.8816 58.8129 26.4651 59.3059 27.2264C59.8019 27.9846 60.0498 28.891 60.0498 29.9455C60.0498 30.9852 59.8019 31.8812 59.3059 32.6336C58.8129 33.3859 58.1121 33.962 57.2033 34.3619C56.2946 34.7618 55.2121 34.9617 53.9559 34.9617H49.6884L51.1317 33.5444V38.8627ZM60.3082 38.8627H56.8024L53.2922 33.7843H56.7623L60.3082 38.8627ZM51.1317 25.9645V33.9043L49.6884 32.3847H53.7733C54.7771 32.3847 55.5255 32.1685 56.0184 31.7361C56.5144 31.3006 56.7623 30.7038 56.7623 29.9455C56.7623 29.1724 56.5144 28.5726 56.0184 28.1461C55.5255 27.7195 54.7771 27.5063 53.7733 27.5063H49.6884L51.1317 25.9645ZM68.8477 39.1027C66.8579 39.1027 65.3018 38.5487 64.1792 37.4409C63.0567 36.3361 62.4954 34.7573 62.4954 32.7046V24.8671H65.7428V32.5847C65.7428 33.9176 66.016 34.8773 66.5624 35.4638C67.1118 36.0503 67.881 36.3435 68.8699 36.3435C69.8588 36.3435 70.6265 36.0503 71.173 35.4638C71.7224 34.8773 71.9971 33.9176 71.9971 32.5847V24.8671H75.2044V32.7046C75.2044 34.7573 74.6431 36.3361 73.5205 37.4409C72.398 38.5487 70.8403 39.1027 68.8477 39.1027ZM85.6682 38.8627H78.4117V24.8671H85.2673C87.0313 24.8671 88.3573 25.2003 89.2452 25.8668C90.1332 26.5332 90.5772 27.413 90.5772 28.506C90.5772 29.2376 90.3975 29.8744 90.0382 30.4165C89.6788 30.9556 89.1844 31.3717 88.5548 31.665C87.9252 31.9582 87.2036 32.1048 86.3898 32.1048L86.7685 31.2829C87.6505 31.2829 88.433 31.4265 89.1161 31.7138C89.7961 32.0012 90.3277 32.4247 90.7108 32.9846C91.0909 33.5444 91.281 34.2301 91.281 35.0417C91.281 36.2413 90.8073 37.1788 89.86 37.8542C88.9097 38.5265 87.5124 38.8627 85.6682 38.8627ZM81.6412 27.3063V36.4235H85.4277C86.2681 36.4235 86.9066 36.2872 87.3431 36.0147C87.7767 35.7393 87.9935 35.3024 87.9935 34.704C87.9935 34.1175 87.7767 33.6806 87.3431 33.3933C86.9066 33.106 86.2681 32.9623 85.4277 32.9623H81.3962V30.6031H84.8664C85.6534 30.6031 86.2577 30.4668 86.6794 30.1943C87.1011 29.9218 87.3119 29.5056 87.3119 28.9458C87.3119 28.3978 87.1011 27.9876 86.6794 27.7151C86.2577 27.4426 85.6534 27.3063 84.8664 27.3063H81.6412ZM96.9918 38.8627H93.7444V24.8671H96.9918V38.8627ZM107.037 39.1027C105.953 39.1027 104.948 38.9264 104.021 38.5739C103.092 38.2185 102.285 37.7149 101.602 37.0633C100.922 36.4087 100.392 35.6415 100.012 34.7618C99.6289 33.8821 99.4374 32.9164 99.4374 31.8649C99.4374 30.8104 99.6289 29.8433 100.012 28.9636C100.392 28.0839 100.927 27.3182 101.616 26.6665C102.302 26.0119 103.106 25.5084 104.03 25.1559C104.951 24.8034 105.959 24.6272 107.055 24.6272C108.272 24.6272 109.373 24.8375 110.356 25.2581C111.336 25.6757 112.16 26.2918 112.828 27.1064L110.743 29.0258C110.265 28.4778 109.73 28.0676 109.139 27.7951C108.554 27.5226 107.914 27.3863 107.22 27.3863C106.563 27.3863 105.96 27.4929 105.411 27.7062C104.865 27.9195 104.391 28.226 103.99 28.6259C103.589 29.0258 103.279 29.4982 103.059 30.0433C102.839 30.5912 102.729 31.1984 102.729 31.8649C102.729 32.5314 102.839 33.1371 103.059 33.6821C103.279 34.2301 103.589 34.704 103.99 35.1039C104.391 35.5038 104.865 35.8103 105.411 36.0236C105.96 36.2369 106.563 36.3435 107.22 36.3435C107.914 36.3435 108.554 36.2073 109.139 35.9348C109.73 35.6593 110.265 35.2416 110.743 34.6818L112.828 36.6012C112.16 37.4158 111.336 38.0363 110.356 38.4629C109.373 38.8894 108.266 39.1027 107.037 39.1027ZM121.528 39.1027C120.42 39.1027 119.395 38.922 118.454 38.5606C117.51 38.2022 116.694 37.6957 116.008 37.0411C115.319 36.3894 114.785 35.6237 114.405 34.744C114.022 33.8643 113.83 32.9046 113.83 31.8649C113.83 30.8252 114.022 29.8655 114.405 28.9858C114.785 28.1061 115.322 27.3389 116.017 26.6843C116.712 26.0327 117.527 25.5261 118.463 25.1648C119.398 24.8064 120.414 24.6272 121.51 24.6272C122.618 24.6272 123.636 24.8064 124.566 25.1648C125.495 25.5261 126.304 26.0327 126.993 26.6843C127.679 27.3389 128.217 28.1031 128.606 28.9769C128.992 29.8478 129.185 30.8104 129.185 31.8649C129.185 32.9046 128.992 33.8672 128.606 34.7529C128.217 35.6385 127.679 36.4057 126.993 37.0544C126.304 37.7001 125.495 38.2022 124.566 38.5606C123.636 38.922 122.624 39.1027 121.528 39.1027ZM121.51 36.3435C122.136 36.3435 122.714 36.2369 123.243 36.0236C123.771 35.8103 124.236 35.5038 124.637 35.1039C125.038 34.704 125.348 34.2301 125.568 33.6821C125.788 33.1371 125.898 32.5314 125.898 31.8649C125.898 31.1984 125.788 30.5912 125.568 30.0433C125.348 29.4982 125.041 29.0258 124.646 28.6259C124.251 28.226 123.786 27.9195 123.252 27.7062C122.717 27.4929 122.136 27.3863 121.51 27.3863C120.88 27.3863 120.303 27.4929 119.777 27.7062C119.248 27.9195 118.784 28.226 118.383 28.6259C117.982 29.0258 117.671 29.4982 117.452 30.0433C117.229 30.5912 117.118 31.1984 117.118 31.8649C117.118 32.5166 117.229 33.1193 117.452 33.6732C117.671 34.2271 117.979 34.704 118.374 35.1039C118.766 35.5038 119.229 35.8103 119.764 36.0236C120.298 36.2369 120.88 36.3435 121.51 36.3435ZM134.838 38.8627H131.631V24.8671H134.317L142.598 34.9439H141.293V24.8671H144.5V38.8627H141.836L133.537 28.7859H134.838V38.8627Z" fill="white"/>
<defs>
<linearGradient id="paint0_linear_116_1442" x1="8.5691" y1="39.4518" x2="26.0601" y2="18.6274" gradientUnits="userSpaceOnUse">
<stop stop-color="#ED1EB5"/>
<stop offset="1" stop-color="#00FFFF"/>
</linearGradient>
<linearGradient id="paint1_linear_116_1442" x1="17.9949" y1="47.3686" x2="35.4859" y2="26.5441" gradientUnits="userSpaceOnUse">
<stop stop-color="#ED1EB5"/>
<stop offset="1" stop-color="#00FFFF"/>
</linearGradient>
<linearGradient id="paint2_linear_116_1442" x1="13.2795" y1="43.408" x2="30.7705" y2="22.5835" gradientUnits="userSpaceOnUse">
<stop stop-color="#ED1EB5"/>
<stop offset="1" stop-color="#00FFFF"/>
</linearGradient>
</defs>
</svg>
