<svg width="150" height="60" viewBox="0 0 150 60" fill="none" xmlns="http://www.w3.org/2000/svg">
<path d="M61.2338 13.746H72.0097V37.3298H61.2338V13.746ZM59.1629 30.8515V29.5231C59.1629 25.5379 56.674 23.9199 48.8395 22.3429C46.5203 21.8424 45.6498 21.3985 45.6498 19.9347V19.0187C45.6605 18.8717 45.7001 18.7282 45.7663 18.5966C45.8325 18.4649 45.924 18.3476 46.0355 18.2514C46.147 18.1552 46.2764 18.0819 46.4162 18.0359C46.556 17.9899 46.7035 17.9719 46.8503 17.9831H46.8943C47.6799 17.9831 48.0947 18.4804 48.0947 19.0187V21.8518H58.7795V20.1519C58.7481 15.49 56.2591 13 46.272 13C39.019 13 33.6295 15.2035 33.6295 20.0575V20.9295C33.6295 25.2074 35.7853 27.115 43.9497 28.818C46.5203 29.3595 47.4316 29.4476 47.4316 30.9365V31.8494C47.4316 32.7623 47.1834 33.1086 46.2312 33.1086C45.1093 33.1086 45.0276 32.479 45.0276 31.8211V29.4822H33.6295V30.5619C33.6295 36.332 37.4005 38.035 46.514 38.035C55.1341 38.035 59.1566 36.461 59.1566 30.8515" fill="#D53838"/>
<path d="M88.879 17.5266H84.6523V37.3298H80.7146V17.5266H76.447V13.6642H88.879V17.5266ZM93.8129 37.2889V13.6799H97.7505V37.3046L93.8129 37.2889ZM111.43 25.6638L116.144 37.3298H112.175L109.397 30.5619L106.622 37.3298H102.65L107.364 25.6638L102.6 13.6642H106.578L109.482 20.7626L112.392 13.6642H116.37L111.43 25.6638Z" fill="black"/>
<path d="M111.179 42.1052V40.7012H111.135L110.821 41.7715H110.475L110.161 40.6918H110.117V42.1052H109.746V40.2353H110.324L110.657 41.4L110.987 40.2353H111.568V42.1052H111.179ZM108.611 42.1052V40.569H108.112V40.2353H109.482V40.569H108.982V42.1052H108.611ZM106.537 41.1923C106.534 41.1382 106.511 41.0871 106.473 41.0487C106.435 41.0104 106.384 40.9875 106.33 40.9845H105.626V45.2593H106.371C106.398 45.2612 106.426 45.2571 106.452 45.2473C106.478 45.2375 106.502 45.2223 106.521 45.2026C106.541 45.1829 106.556 45.1593 106.566 45.1332C106.576 45.1072 106.58 45.0793 106.578 45.0516L106.537 41.1923ZM104.714 45.9644V40.2353H106.537C106.653 40.2318 106.769 40.2521 106.877 40.2948C106.985 40.3376 107.083 40.402 107.166 40.484C107.244 40.5597 107.306 40.6502 107.348 40.7502C107.391 40.8502 107.413 40.9576 107.414 41.0664V45.1775C107.42 45.298 107.397 45.4182 107.346 45.5278C107.296 45.6374 107.22 45.7332 107.125 45.8071C106.957 45.9355 106.754 46.0081 106.543 46.0148L104.714 45.9644ZM101.688 45.9644V40.2353H103.844V40.9845H102.559V42.6844H103.637V43.4336H102.559V45.2593H103.844V46.0085L101.688 45.9644ZM99.2433 45.9644V40.9845H98.3728V40.2353H100.984V40.9845H100.114V46.0211H99.2433V45.9644ZM96.88 42.2751L96.7983 41.485H96.7543L96.6789 42.2751L96.349 44.3087H97.1346L96.88 42.2751ZM97.4174 45.9676L97.2949 45.0547H96.2578L96.1353 45.9676H95.2208L96.2987 40.2385H97.2414L98.3193 45.9676H97.4174ZM93.7312 41.1954C93.733 41.1677 93.7289 41.1398 93.7192 41.1138C93.7094 41.0877 93.6942 41.0641 93.6746 41.0444C93.6549 41.0247 93.6313 41.0095 93.6053 40.9997C93.5793 40.9899 93.5515 40.9858 93.5238 40.9877H92.7758V42.6875H93.5363C93.5638 42.6893 93.5913 42.6853 93.6171 42.6757C93.6428 42.6661 93.6663 42.6512 93.6859 42.6318C93.7055 42.6125 93.7208 42.5892 93.7307 42.5636C93.7407 42.5379 93.7451 42.5104 93.7438 42.4829L93.7312 41.1954ZM93.9386 46.0117L93.2221 43.4336H92.7664V46.0085H91.8959V40.2353H93.7218C93.9553 40.2348 94.1801 40.3238 94.3503 40.484C94.4286 40.5595 94.4912 40.6499 94.5344 40.7499C94.5775 40.8499 94.6004 40.9575 94.6017 41.0664V42.4357C94.6054 42.6085 94.5497 42.7772 94.4438 42.9137C94.3379 43.0501 94.1884 43.1459 94.0203 43.1849L94.8499 45.9644L93.9386 46.0117ZM89.5013 46.0117V40.9751H88.6308V40.2259H91.2423V40.9751H90.3718V46.0117H89.5013ZM86.3116 46.0117C86.0776 46.0113 85.8527 45.9212 85.6831 45.7598C85.6049 45.685 85.5427 45.5951 85.5 45.4956C85.4574 45.396 85.4352 45.2889 85.4348 45.1806V44.3496H86.3084V45.0547C86.3066 45.0825 86.3107 45.1103 86.3204 45.1364C86.3302 45.1624 86.3454 45.1861 86.3651 45.2057C86.3847 45.2254 86.4083 45.2407 86.4343 45.2504C86.4603 45.2602 86.4881 45.2643 86.5158 45.2625H87.0532C87.0809 45.2643 87.1087 45.2602 87.1347 45.2504C87.1607 45.2407 87.1844 45.2254 87.204 45.2057C87.2236 45.1861 87.2388 45.1624 87.2486 45.1364C87.2584 45.1103 87.2625 45.0825 87.2606 45.0547V44.1104C87.2616 44.0295 87.2433 43.9497 87.2072 43.8774C87.1712 43.8051 87.1184 43.7425 87.0532 43.6948L86.3084 43.2195C85.8528 42.9299 85.4379 42.6781 85.4379 42.0989V41.101C85.4344 40.9921 85.4548 40.8838 85.4977 40.7837C85.5406 40.6836 85.6049 40.5942 85.6862 40.5218C85.768 40.4387 85.866 40.3734 85.9742 40.3301C86.0823 40.2868 86.1983 40.2663 86.3147 40.27H87.2575C87.3739 40.2663 87.4898 40.2868 87.598 40.3301C87.7062 40.3734 87.8042 40.4387 87.886 40.5218C87.9641 40.5967 88.0264 40.6866 88.069 40.7861C88.1117 40.8856 88.1339 40.9927 88.1343 41.101V41.932H87.2512V41.2269C87.2531 41.1991 87.249 41.1713 87.2392 41.1453C87.2294 41.1192 87.2142 41.0956 87.1946 41.0759C87.1749 41.0562 87.1513 41.041 87.1253 41.0312C87.0993 41.0214 87.0715 41.0173 87.0438 41.0191H86.5064C86.4787 41.0173 86.4509 41.0214 86.4249 41.0312C86.3989 41.041 86.3753 41.0562 86.3556 41.0759C86.336 41.0956 86.3208 41.1192 86.311 41.1453C86.3012 41.1713 86.2971 41.1991 86.299 41.2269V42.0139C86.298 42.0947 86.3163 42.1746 86.3524 42.2468C86.3885 42.3191 86.4413 42.3817 86.5064 42.4294L87.2512 42.9047C87.7069 43.1975 88.1217 43.4871 88.1217 44.0694V45.2719C88.121 45.3806 88.0987 45.4881 88.0561 45.5881C88.0134 45.6881 87.9514 45.7786 87.8734 45.8543C87.7915 45.9369 87.6933 46.0017 87.5852 46.0445C87.477 46.0873 87.3611 46.1072 87.2449 46.103L86.3116 46.0117ZM82.7039 46.0117C82.5875 46.0153 82.4715 45.9949 82.3634 45.9515C82.2552 45.9082 82.1572 45.8429 82.0754 45.7598C81.998 45.6844 81.9362 45.5944 81.8936 45.495C81.851 45.3956 81.8284 45.2888 81.8271 45.1806V40.2385H82.6976V45.0547C82.6958 45.0825 82.6999 45.1103 82.7096 45.1364C82.7194 45.1624 82.7346 45.1861 82.7542 45.2057C82.7739 45.2254 82.7975 45.2407 82.8235 45.2504C82.8495 45.2602 82.8773 45.2643 82.905 45.2625H83.4455C83.4733 45.2643 83.501 45.2602 83.5271 45.2504C83.5531 45.2407 83.5767 45.2254 83.5963 45.2057C83.616 45.1861 83.6312 45.1624 83.6409 45.1364C83.6507 45.1103 83.6548 45.0825 83.6529 45.0547V40.2385H84.5234V45.1806C84.5223 45.2891 84.4994 45.3962 84.4563 45.4957C84.4131 45.5952 84.3504 45.685 84.272 45.7598C84.1907 45.8436 84.0927 45.9092 83.9845 45.9526C83.8762 45.996 83.76 46.0161 83.6435 46.0117H82.7039ZM79.0994 46.0117V40.2353H79.9698V45.2719H81.296V46.0211L79.0994 46.0117ZM76.3213 46.0117V40.2353H77.195V45.2719H78.4803V46.0211L76.3213 46.0117ZM74.2912 40.2385H75.1617V45.9676H74.2912V40.2385ZM70.187 45.9676C69.9534 45.9684 69.7285 45.8794 69.5585 45.7189C69.4804 45.644 69.4181 45.5542 69.3755 45.4546C69.3328 45.3551 69.3106 45.248 69.3102 45.1397V44.3087H70.1807V45.0138C70.1789 45.0416 70.183 45.0694 70.1927 45.0954C70.2025 45.1215 70.2177 45.1451 70.2374 45.1648C70.257 45.1845 70.2806 45.1997 70.3066 45.2095C70.3326 45.2193 70.3604 45.2234 70.3881 45.2216H70.8847C70.9124 45.2234 70.9402 45.2193 70.9662 45.2095C70.9922 45.1997 71.0158 45.1845 71.0355 45.1648C71.0551 45.1451 71.0703 45.1215 71.0801 45.0954C71.0898 45.0694 71.0939 45.0416 71.0921 45.0138V44.0694C71.0931 43.9886 71.0748 43.9088 71.0387 43.8365C71.0026 43.7642 70.9498 43.7016 70.8847 43.6539L70.1399 43.1975C69.6842 42.9047 69.2694 42.656 69.2694 42.0768V41.079C69.2662 40.9697 69.2868 40.861 69.3297 40.7605C69.3725 40.6599 69.4367 40.5699 69.5177 40.4966C69.6 40.4145 69.6983 40.3502 69.8063 40.3074C69.9144 40.2646 70.03 40.2444 70.1462 40.2479H71.0889C71.2051 40.2444 71.3207 40.2646 71.4288 40.3074C71.5368 40.3502 71.6351 40.4145 71.7175 40.4966C71.7954 40.5723 71.8575 40.6628 71.9001 40.7628C71.9427 40.8627 71.965 40.9702 71.9657 41.079V41.91H71.0984V41.2049C71.0954 41.1508 71.0725 41.0996 71.0343 41.0613C70.996 41.023 70.945 41.0001 70.891 40.9971H70.3944C70.3667 40.9953 70.3389 40.9994 70.3129 41.0091C70.2869 41.0189 70.2633 41.0342 70.2437 41.0538C70.224 41.0735 70.2088 41.0972 70.199 41.1232C70.1893 41.1493 70.1852 41.1771 70.187 41.2049V41.9918C70.186 42.0727 70.2043 42.1525 70.2404 42.2248C70.2765 42.2971 70.3293 42.3597 70.3944 42.4074L71.1392 42.8638C71.5949 43.1566 72.0097 43.4462 72.0097 44.0285V45.231C72.009 45.3397 71.9867 45.4472 71.9441 45.5472C71.9015 45.6472 71.8394 45.7377 71.7615 45.8134C71.6792 45.8956 71.581 45.96 71.4729 46.0028C71.3648 46.0456 71.2491 46.0657 71.1329 46.062L70.187 45.9676ZM67.079 45.9676V40.9845H66.196V40.2353H68.8074V40.9845H67.9369V46.0211H67.0664L67.079 45.9676ZM64.7975 41.1954C64.7945 41.1413 64.7717 41.0902 64.7334 41.0519C64.6952 41.0135 64.6441 40.9907 64.5901 40.9877H63.8453V42.6875H64.5901C64.6486 42.6857 64.7049 42.6647 64.7503 42.6277C64.7957 42.5908 64.8278 42.5399 64.8415 42.4829V41.1954H64.7975ZM65.0049 46.0117L64.3104 43.3926H63.8956V45.9644H62.9842V40.2353H64.8069C65.0399 40.2376 65.2638 40.3262 65.4355 40.484C65.5134 40.5597 65.5755 40.6502 65.6181 40.7502C65.6607 40.8502 65.683 40.9576 65.6837 41.0664V42.4357C65.683 42.5444 65.6607 42.6519 65.6181 42.7519C65.5755 42.8519 65.5134 42.9424 65.4355 43.018C65.3392 43.0975 65.2265 43.1545 65.1055 43.1849L65.8911 45.9644L65.0049 46.0117ZM61.0264 41.1954C61.0234 41.1413 61.0006 41.0902 60.9623 41.0519C60.9241 41.0135 60.873 40.9907 60.819 40.9877H60.3225C60.2948 40.9858 60.267 40.9899 60.241 40.9997C60.215 41.0095 60.1913 41.0247 60.1717 41.0444C60.1521 41.0641 60.1368 41.0877 60.1271 41.1138C60.1173 41.1398 60.1132 41.1677 60.1151 41.1954V45.0547C60.1132 45.0825 60.1173 45.1103 60.1271 45.1364C60.1368 45.1624 60.1521 45.1861 60.1717 45.2057C60.1913 45.2254 60.215 45.2407 60.241 45.2504C60.267 45.2602 60.2948 45.2643 60.3225 45.2625H60.819C60.8467 45.2643 60.8745 45.2602 60.9005 45.2504C60.9265 45.2407 60.9501 45.2254 60.9698 45.2057C60.9894 45.1861 61.0046 45.1624 61.0144 45.1364C61.0242 45.1103 61.0283 45.0825 61.0264 45.0547V41.1954ZM60.0836 46.0117C59.9672 46.0153 59.8513 45.9949 59.7431 45.9515C59.635 45.9082 59.5369 45.8429 59.4551 45.7598C59.377 45.685 59.3148 45.5951 59.2721 45.4956C59.2295 45.396 59.2073 45.2889 59.2069 45.1806V41.0664C59.2076 40.9576 59.2299 40.8502 59.2725 40.7502C59.3151 40.6502 59.3772 40.5597 59.4551 40.484C59.5375 40.402 59.6357 40.3376 59.7438 40.2948C59.8519 40.2521 59.9675 40.2318 60.0836 40.2353H61.0264C61.2594 40.2376 61.4833 40.3262 61.6549 40.484C61.7329 40.5597 61.7949 40.6502 61.8376 40.7502C61.8802 40.8502 61.9025 40.9576 61.9032 41.0664V45.1775C61.9028 45.2858 61.8806 45.3929 61.8379 45.4924C61.7953 45.5919 61.733 45.6818 61.6549 45.7567C61.5731 45.8398 61.4751 45.905 61.3669 45.9484C61.2588 45.9917 61.1429 46.0122 61.0264 46.0085L60.0836 46.0117ZM57.5947 41.1954C57.5917 41.1413 57.5689 41.0902 57.5306 41.0519C57.4924 41.0135 57.4413 40.9907 57.3873 40.9877H56.6425V42.6875H57.3873C57.4148 42.6893 57.4423 42.6853 57.468 42.6757C57.4938 42.6661 57.5173 42.6512 57.5369 42.6318C57.5564 42.6125 57.5717 42.5892 57.5817 42.5636C57.5917 42.5379 57.5961 42.5104 57.5947 42.4829V41.1954ZM55.772 45.9676V40.2385H57.5947C57.8281 40.2386 58.0528 40.3275 58.2232 40.4872C58.3012 40.5629 58.3633 40.6533 58.4059 40.7533C58.4485 40.8533 58.4708 40.9608 58.4715 41.0695V42.5899C58.4708 42.6987 58.4485 42.8062 58.4059 42.9061C58.3633 43.0061 58.3012 43.0966 58.2232 43.1723C58.1412 43.2548 58.043 43.3195 57.9349 43.3623C57.8267 43.4051 57.7109 43.425 57.5947 43.421H56.652V45.9959L55.772 45.9676ZM52.9437 45.9676C52.7101 45.9684 52.4852 45.8794 52.3152 45.7189C52.2378 45.6435 52.176 45.5535 52.1334 45.4541C52.0908 45.3547 52.0682 45.2479 52.0669 45.1397V44.3087H52.9374V45.0138C52.9356 45.0416 52.9397 45.0694 52.9494 45.0954C52.9592 45.1215 52.9744 45.1451 52.9941 45.1648C53.0137 45.1845 53.0373 45.1997 53.0633 45.2095C53.0893 45.2193 53.1171 45.2234 53.1448 45.2216H53.6854C53.7131 45.2234 53.7409 45.2193 53.7669 45.2095C53.7929 45.1997 53.8165 45.1845 53.8361 45.1648C53.8558 45.1451 53.871 45.1215 53.8808 45.0954C53.8905 45.0694 53.8946 45.0416 53.8928 45.0138V44.0694C53.8933 43.9887 53.8747 43.909 53.8387 43.8368C53.8027 43.7646 53.7501 43.702 53.6854 43.6539L52.9374 43.1975C52.4818 42.9047 52.0669 42.656 52.0669 42.0768V41.079C52.0644 40.9698 52.0853 40.8613 52.1281 40.7608C52.1709 40.6604 52.2347 40.5703 52.3152 40.4966C52.3976 40.4145 52.4958 40.3502 52.6039 40.3074C52.7119 40.2646 52.8276 40.2444 52.9437 40.2479H53.8865C54.0027 40.2437 54.1186 40.2636 54.2267 40.3064C54.3349 40.3492 54.4331 40.4139 54.515 40.4966C54.5934 40.5721 54.6559 40.6625 54.6991 40.7625C54.7423 40.8625 54.7651 40.97 54.7664 41.079V41.91H53.8959V41.2049C53.8978 41.1771 53.8937 41.1493 53.8839 41.1232C53.8741 41.0972 53.8589 41.0735 53.8393 41.0538C53.8196 41.0342 53.796 41.0189 53.77 41.0091C53.744 40.9994 53.7162 40.9953 53.6885 40.9971H53.148C53.1203 40.9953 53.0925 40.9994 53.0665 41.0091C53.0405 41.0189 53.0169 41.0342 52.9972 41.0538C52.9776 41.0735 52.9624 41.0972 52.9526 41.1232C52.9428 41.1493 52.9387 41.1771 52.9406 41.2049V41.9918C52.9401 42.0726 52.9586 42.1523 52.9946 42.2245C53.0307 42.2967 53.0832 42.3593 53.148 42.4074L53.8959 42.8638C54.3516 43.1566 54.7664 43.4462 54.7664 44.0285V45.231C54.7651 45.3399 54.7423 45.4475 54.6991 45.5475C54.6559 45.6474 54.5934 45.7378 54.515 45.8134C54.4331 45.896 54.3349 45.9608 54.2267 46.0036C54.1186 46.0464 54.0027 46.0663 53.8865 46.062H52.9437V45.9676ZM46.0646 47.6265V46.8364H46.5203C46.6108 46.832 46.6972 46.7969 46.7652 46.7369C46.8331 46.6768 46.8787 46.5953 46.8943 46.5059L46.976 46.1313L45.7189 41.8974H46.7151L47.2525 44.2646L47.3782 45.0516H47.4191L47.5448 44.2646L48.0822 41.8974H48.9935L47.7082 46.6192C47.6378 46.8765 47.4936 47.1074 47.2934 47.2834C47.1983 47.3867 47.0833 47.4696 46.9552 47.5269C46.8272 47.5843 46.6888 47.615 46.5486 47.6171L46.0646 47.6265ZM44.4053 43.8082C44.4053 43.698 44.3616 43.5923 44.2838 43.5143C44.2061 43.4364 44.1005 43.3926 43.9905 43.3926H43.362V45.2184H44.1979C44.2257 45.2203 44.2534 45.2162 44.2794 45.2064C44.3055 45.1966 44.3291 45.1813 44.3487 45.1617C44.3684 45.142 44.3836 45.1183 44.3933 45.0923C44.4031 45.0662 44.4072 45.0384 44.4053 45.0106V43.8082ZM44.3236 41.1923C44.3255 41.1645 44.3214 41.1367 44.3116 41.1106C44.3019 41.0846 44.2866 41.0609 44.267 41.0413C44.2474 41.0216 44.2237 41.0063 44.1977 40.9966C44.1717 40.9868 44.1439 40.9827 44.1162 40.9845H43.3683V42.6844H44.1162C44.1437 42.6862 44.1712 42.6822 44.1969 42.6726C44.2227 42.663 44.2462 42.648 44.2658 42.6287C44.2854 42.6094 44.3006 42.5861 44.3106 42.5604C44.3206 42.5348 44.325 42.5073 44.3236 42.4798V41.1923ZM42.4978 45.9644V40.2353H44.3236C44.4398 40.2318 44.5554 40.2521 44.6635 40.2948C44.7715 40.3376 44.8698 40.402 44.9522 40.484C45.1081 40.6379 45.1973 40.8471 45.2004 41.0664V42.2279C45.1934 42.4147 45.1243 42.5939 45.0042 42.737C44.8841 42.8801 44.7198 42.979 44.5373 43.018V43.059C44.7372 43.0746 44.9242 43.1641 45.0619 43.3101C45.1995 43.4562 45.278 43.6483 45.2821 43.8491V45.1775C45.2857 45.2864 45.2653 45.3947 45.2224 45.4948C45.1795 45.5949 45.1151 45.6843 45.0339 45.7567C44.9585 45.8352 44.8682 45.8979 44.7684 45.9411C44.6686 45.9843 44.5612 46.0072 44.4525 46.0085L42.4978 45.9644Z" fill="black"/>
</svg>
