<svg width="150" height="60" viewBox="0 0 150 60" fill="none" xmlns="http://www.w3.org/2000/svg">
<path d="M44.2314 18.7818L39.7856 21.0469L18.3171 31.9819C18.2445 31.4282 18.208 30.8704 18.2078 30.312C18.2107 28.0839 18.7957 25.8952 19.9047 23.9628C21.0138 22.0303 22.6085 20.4211 24.5308 19.2946C26.4532 18.1681 28.6365 17.5634 30.8644 17.5403C33.0924 17.5172 35.2878 18.0766 37.233 19.163L39.7777 17.8664L40.1573 17.6727C37.8262 15.9807 35.0727 14.9663 32.201 14.7414C29.3294 14.5165 26.4515 15.0899 23.8854 16.3984C21.3193 17.7068 19.1649 19.6992 17.6603 22.1555C16.1558 24.6118 15.3597 27.4362 15.36 30.3166C15.36 30.7145 15.3751 31.1107 15.4053 31.5054C15.4476 32.0644 15.3236 32.6233 15.049 33.112C14.7744 33.6007 14.3613 33.9972 13.8619 34.2517L12.52 34.9359V38.1273L16.4707 36.1137L17.7501 35.4608L19.0107 34.8187L41.6429 23.287L44.1861 21.992L49.4427 19.313V16.1231L44.2314 18.7818Z" fill="#0F1426"/>
<path d="M49.4427 22.5059L20.2963 37.3462L17.7532 38.6444L12.52 41.3109V44.4992L17.7172 41.8514L22.1631 39.5863L43.6534 28.6357C43.7261 29.1931 43.7626 29.7545 43.7628 30.3166C43.7614 32.5473 43.1766 34.7388 42.0664 36.6736C40.9563 38.6084 39.3594 40.2192 37.4343 41.346C35.5091 42.4729 33.3228 43.0766 31.0922 43.0973C28.8616 43.118 26.6644 42.555 24.7187 41.464L24.5625 41.5468L21.8038 42.9527C24.1344 44.6447 26.8874 45.6595 29.7586 45.885C32.6298 46.1104 35.5074 45.5377 38.0735 44.2302C40.6396 42.9226 42.7943 40.9311 44.2995 38.4757C45.8047 36.0203 46.6018 33.1966 46.6027 30.3166C46.6027 29.9151 46.5871 29.5137 46.5574 29.1169C46.5152 28.5581 46.639 27.9994 46.9133 27.5108C47.1876 27.0222 47.6002 26.6255 48.0992 26.3706L49.4427 25.6864V22.5059Z" fill="#0F1426"/>
<path d="M93.3432 24.7211C88.8848 24.7211 85.4263 28.0016 85.4263 33.1832C85.4263 38.0055 88.2772 41.7062 93.4338 41.7062C97.4079 41.7062 100.015 39.3708 100.743 36.5792H97.8921C97.1954 38.1867 95.8613 39.2786 93.4338 39.2786C91.0375 39.2786 88.4896 37.5806 88.399 34.0626H100.955C101.29 28.8764 98.3467 24.7211 93.3432 24.7211ZM88.4287 31.696C88.6724 28.4155 90.9156 27.0861 93.3432 27.0861C96.2847 27.0861 97.953 29.3919 98.0436 31.696H88.4287Z" fill="#0F1426"/>
<path d="M68.6414 28.6935L66.1014 28.1171C64.0316 27.661 62.5085 26.6924 62.5085 24.7507C62.5085 22.2935 65.4765 21.5358 67.1793 21.5358C69.3663 21.5358 71.911 22.4153 72.6389 24.9319H75.6429C74.7619 20.7141 71.2689 18.9271 67.3011 18.9271C63.7519 18.9271 59.3545 20.7173 59.3545 24.9319C59.3545 28.5717 62.3569 30.2713 65.3906 30.9383L68.1322 31.5148C70.8925 32.1521 72.8639 33.0613 72.8639 35.3967C72.8639 37.5837 71.0143 39.0974 67.7385 39.0974C64.3112 39.0974 62.2492 37.5196 61.6727 34.4875H58.6328C59.2092 38.8615 62.485 41.7061 67.6713 41.7061C72.0453 41.7061 76.0428 39.4004 76.0428 35.1233C76.0428 30.6962 72.0094 29.4215 68.6414 28.6935Z" fill="#0F1426"/>
<path d="M81.9693 20.8985H79.209V24.9929H76.6299V27.208H79.209V37.2166C79.209 40.6142 79.9369 41.3109 83.0612 41.3109H85.0623V39.0068H83.6673C82.0896 39.0068 81.9693 38.5819 81.9693 36.8838V27.208H85.0623V24.9929H81.9693V20.8985Z" fill="#0F1426"/>
<path d="M136.661 24.9023C134.507 24.9929 132.87 25.9958 132.052 27.8438V24.9929H129.351V41.311H132.111V32.7583C132.111 29.1185 133.386 27.7595 135.933 27.7595C136.451 27.7596 136.968 27.8003 137.48 27.8813V24.932C137.208 24.9083 136.935 24.8984 136.661 24.9023Z" fill="#0F1426"/>
<path d="M126.695 35.1592L126.725 31.3976C126.756 26.7565 124.814 24.6648 120.234 24.6648C117.08 24.6648 113.925 26.6362 113.682 30.1541H116.533C116.655 28.1234 117.96 26.9096 120.264 26.9096C122.327 26.9096 123.964 27.8797 123.964 30.8821V31.2758C117.293 32.0053 112.925 33.1503 112.925 37.0088C112.925 40.0112 115.473 41.7108 118.536 41.7108C121.448 41.7108 123.116 40.7735 124.116 39.0724C124.14 39.8238 124.21 40.5731 124.328 41.3156H127.118C126.786 39.7644 126.664 37.9148 126.695 35.1592ZM124.177 34.4922C124.177 38.3429 121.721 39.527 119.142 39.527C117.171 39.527 115.988 38.496 115.988 36.9479C115.988 34.7031 119.172 33.9454 124.177 33.4596V34.4922Z" fill="#0F1426"/>
<path d="M105.573 19.3098H102.813V41.3109H105.573V19.3098Z" fill="#0F1426"/>
<path d="M111.092 19.3098H108.332V41.3109H111.092V19.3098Z" fill="#0F1426"/>
</svg>
