<svg width="150" height="60" viewBox="0 0 150 60" fill="none" xmlns="http://www.w3.org/2000/svg">
<path d="M25.003 19H25.3623C25.775 19 26.1906 19.0297 26.6033 19.0684C27.5831 19.1487 28.5539 19.3302 29.5367 19.3659C30.005 19.3805 30.4734 19.3396 30.9321 19.2439C31.036 21.2546 31.1637 23.2624 31.2557 25.2731C31.1066 25.0504 30.9727 24.8179 30.8549 24.5771C30.2368 23.4088 29.4931 22.3116 28.6371 21.3052C28.1197 20.6945 27.4897 20.1896 26.7815 19.818C25.8098 19.3351 24.6915 19.2394 23.6521 19.5503C23.2418 19.6687 22.8612 19.8727 22.5352 20.1491C22.2092 20.4254 21.9454 20.7677 21.7609 21.1535C21.4951 21.786 21.4329 22.4857 21.5828 23.1553C21.6718 23.4733 21.8254 23.7694 22.0338 24.0253C22.2422 24.2812 22.501 24.4913 22.7941 24.6425C23.9962 25.2885 25.2482 25.8366 26.538 26.2814C27.6628 26.653 28.7416 27.152 29.7534 27.7687C30.3663 28.1329 30.9003 28.6163 31.324 29.1905C31.7884 29.8863 32.0449 30.7005 32.0633 31.5373C32.1063 32.3233 32.0057 33.1105 31.7664 33.8603C31.4757 34.7315 30.9293 35.4945 30.1988 36.0495C28.8409 36.9954 27.1932 37.4304 25.5464 37.278C24.4389 37.1887 23.3552 36.9181 22.2537 36.805C21.3039 36.6809 20.3386 36.8391 19.4777 37.2601C19.4777 35.1364 19.4777 33.0096 19.4777 30.8859C19.4777 30.6628 19.4777 30.4367 19.4926 30.2137C19.6045 30.4052 19.7037 30.6039 19.7895 30.8085C20.3016 31.9876 20.9281 33.1134 21.66 34.1697C22.1101 34.8268 22.6718 35.3996 23.3196 35.8621C23.9461 36.3101 24.6511 36.636 25.3979 36.8229C26.0484 36.968 26.7219 36.9751 27.3753 36.8437C28.0855 36.711 28.7208 36.3174 29.1566 35.7402C29.569 35.1197 29.7576 34.3767 29.6911 33.6343C29.6436 32.9531 29.1952 32.385 28.7024 31.9478C28.1313 31.5236 27.5088 31.1738 26.8497 30.9067C25.7423 30.4219 24.5933 30.0501 23.4592 29.6277C22.3903 29.2053 21.3155 28.7026 20.4753 27.8966C19.9395 27.3646 19.5525 26.701 19.353 25.9721C19.109 25.0549 19.0836 24.0931 19.2788 23.1642C19.5119 22.0171 20.1588 20.9962 21.0958 20.2969C22.2474 19.4986 23.6035 19.0484 25.003 19Z" fill="white"/>
<path d="M81.0813 19.2588C83.7771 19.2588 86.473 19.2588 89.1688 19.2588C89.8801 19.2309 90.5924 19.2657 91.2976 19.3629C92.3922 19.5513 93.4136 20.0392 94.2487 20.7728C94.9444 21.3942 95.4004 22.2405 95.5373 23.1642C95.7162 24.0752 95.5779 25.0201 95.1454 25.8412C94.686 26.6097 93.9945 27.2118 93.171 27.5604C92.7081 27.7649 92.2257 27.9213 91.731 28.0274C92.8474 29.8121 93.9677 31.5968 95.0919 33.3814C95.7452 34.4579 96.4976 35.4706 97.3395 36.4064C97.5652 36.6307 97.8085 36.8366 98.0669 37.0222C96.2855 37.0222 94.5041 37.0222 92.7227 37.0222C91.6924 35.2375 90.6444 33.4766 89.6052 31.7009C89.0976 30.8621 88.676 29.9727 88.1653 29.1309C88.0204 28.8365 87.8114 28.5783 87.5537 28.3754C87.3793 28.2635 87.1828 28.1904 86.9777 28.1613C86.9777 30.1006 86.9777 32.0429 86.9777 33.9823C86.9794 34.5043 87.1036 35.0186 87.3404 35.4836C87.5771 35.9486 87.9197 36.3514 88.3405 36.6593C88.5038 36.7961 88.7205 36.8586 88.8749 37.0103C86.2701 37.0103 83.6673 37.0103 81.0664 37.0103C81.2175 36.8984 81.3774 36.7989 81.5444 36.7128C81.9928 36.4067 82.3591 35.9948 82.6113 35.5135C82.8634 35.0321 82.9936 34.4961 82.9903 33.9525C82.9903 30.5736 82.9903 27.1916 82.9903 23.8126C82.9903 23.2177 83.0081 22.6229 82.9725 22.028C82.938 21.506 82.7783 21.0002 82.5069 20.5533C82.2356 20.1064 81.8606 19.7317 81.4138 19.461C81.2943 19.409 81.1824 19.341 81.0813 19.2588ZM86.9896 19.6097C86.9896 22.3641 86.9896 25.1154 86.9896 27.8698C87.7463 28.0037 88.5211 27.9976 89.2757 27.8519C89.8704 27.6943 90.4016 27.3555 90.7958 26.8823C91.2049 26.3346 91.4453 25.6792 91.4876 24.9965C91.6347 23.8507 91.4132 22.6879 90.8552 21.677C90.3419 20.7648 89.5045 20.0798 88.5097 19.7585C88.0134 19.6319 87.5009 19.5818 86.9896 19.6097Z" fill="white"/>
<path d="M61.9818 25.288C62.9037 24.5737 64.0214 24.1586 65.1853 24.0982C66.0188 24.0657 66.8453 24.2622 67.5754 24.6663C68.4223 25.1551 69.1109 25.878 69.5586 26.7484C69.9992 27.6451 70.2499 28.6233 70.295 29.6217C67.7753 29.6217 65.2566 29.6217 62.7389 29.6217C62.7834 30.7371 62.9794 31.9031 63.6444 32.8252C64.0759 33.4085 64.6536 33.8671 65.3189 34.1548C66.0943 34.4706 66.9553 34.5053 67.7535 34.2529C68.4773 34.009 69.1425 33.617 69.7071 33.1018C69.8199 32.9836 69.9501 32.8833 70.0931 32.8044C69.8246 33.6985 69.3905 34.534 68.8134 35.2672C68.3868 35.8378 67.8571 36.3231 67.2517 36.6979C66.4996 37.1316 65.6353 37.3305 64.7697 37.269C63.8424 37.2238 62.9455 36.9233 62.1777 36.4005C61.4394 35.9107 60.8245 35.2561 60.3815 34.4879C59.9101 33.6188 59.6315 32.658 59.565 31.6711C59.4002 30.2508 59.6207 28.8122 60.2034 27.5069C60.5924 26.6243 61.2056 25.8592 61.9818 25.288ZM63.9948 24.818C63.6063 25.2469 63.3138 25.7539 63.1367 26.3052C62.8571 27.264 62.7269 28.2603 62.7508 29.2588H66.9816C66.9251 27.965 66.7648 26.6354 66.171 25.4694C65.9276 25.0113 65.5772 24.5325 65.0309 24.4313C64.8396 24.401 64.6437 24.4206 64.4622 24.4884C64.2806 24.5561 64.1196 24.6696 63.9948 24.818Z" fill="white"/>
<path d="M124.877 24.235C125.833 23.9935 126.841 24.0631 127.754 24.4337C128.668 24.8043 129.441 25.4566 129.96 26.2963C130.416 27.0277 130.719 27.8444 130.85 28.6967V29.6158H123.392C123.44 30.8055 123.663 32.0548 124.434 32.9947C124.764 33.4065 125.175 33.7451 125.643 33.9888C126.11 34.2326 126.622 34.3762 127.148 34.4106C128.203 34.4222 129.226 34.0526 130.031 33.3695C130.283 33.1881 130.488 32.9471 130.749 32.7746C130.503 33.6028 130.113 34.3811 129.598 35.0739C129.14 35.726 128.554 36.2776 127.875 36.6949C127.129 37.1152 126.277 37.3075 125.423 37.2482C124.507 37.2047 123.621 36.9105 122.861 36.3975C122.045 35.8662 121.38 35.1339 120.928 34.2708C120.436 33.2506 120.18 32.1321 120.18 30.9989C120.123 29.7546 120.373 28.5155 120.907 27.3909C121.29 26.6002 121.846 25.9059 122.533 25.3596C123.22 24.8133 124.021 24.4289 124.877 24.235ZM124.58 24.8953C124.24 25.2997 123.979 25.7649 123.811 26.2665C123.514 27.2366 123.373 28.2475 123.392 29.2618H127.626C127.605 28.528 127.52 27.7974 127.371 27.0786C127.24 26.3854 126.981 25.7227 126.608 25.1244C126.497 24.9362 126.347 24.7751 126.166 24.6527C125.986 24.5302 125.781 24.4495 125.566 24.4164C125.376 24.4142 125.187 24.4564 125.016 24.5395C124.845 24.6226 124.696 24.7444 124.58 24.8953Z" fill="white"/>
<path d="M100.748 24.595C102.08 24.335 103.432 24.1887 104.789 24.1577C105.593 24.1577 106.448 24.2559 107.119 24.7348C107.466 25.007 107.744 25.3562 107.933 25.7547C108.121 26.1532 108.215 26.5901 108.206 27.031C108.206 29.0953 108.206 31.1596 108.206 33.2238C108.175 33.9729 108.219 34.7232 108.337 35.4636C108.398 35.8811 108.602 36.2646 108.913 36.5493C109.106 36.7456 109.367 36.8467 109.575 37.0281C107.936 37.0281 106.294 37.0281 104.655 37.0281C104.655 36.5225 104.655 36.0168 104.655 35.5112C103.978 36.1095 103.209 36.5946 102.378 36.9478C101.979 37.1013 101.552 37.1682 101.125 37.1441C100.437 37.1442 99.7682 36.9174 99.2218 36.4987C98.9007 36.2308 98.6371 35.9006 98.4468 35.5279C98.2565 35.1553 98.1434 34.7479 98.1144 34.3303C98.0702 33.8956 98.12 33.4565 98.2604 33.0428C98.4008 32.6291 98.6284 32.2506 98.9279 31.9329C100.089 30.8026 101.585 30.1245 102.897 29.2053C103.375 28.8974 103.813 28.5329 104.204 28.1197C104.461 27.7828 104.635 27.3895 104.711 26.9722C104.787 26.5549 104.762 26.1254 104.64 25.7193C104.587 25.5027 104.49 25.2993 104.356 25.1214C104.222 24.9434 104.053 24.7947 103.859 24.6842C103.666 24.6031 103.459 24.5614 103.249 24.5614C103.04 24.5614 102.832 24.6031 102.639 24.6842C101.949 24.9651 101.301 25.3394 100.712 25.7966C100.089 26.2517 99.4949 26.7455 98.9308 27.2541C98.8418 27.3255 98.7646 27.4356 98.6339 27.4385C99.3198 26.4778 100.053 25.5438 100.748 24.595ZM102.621 30.0382C102.312 30.3217 102.068 30.6687 101.906 31.0555C101.617 31.7922 101.485 32.5816 101.52 33.3725C101.513 33.9674 101.677 34.5518 101.992 35.0561C102.211 35.4554 102.576 35.754 103.01 35.8889C103.225 35.929 103.447 35.9137 103.655 35.8445C103.863 35.7753 104.049 35.6545 104.198 35.4933C104.516 35.1284 104.681 34.6539 104.658 34.1697C104.658 32.2006 104.658 30.2325 104.658 28.2654C103.957 28.8395 103.269 29.4106 102.609 30.0382H102.621Z" fill="white"/>
<path d="M32.7788 24.354C34.4355 24.3362 36.0952 24.354 37.7519 24.354V34.4136C37.7202 34.8348 37.8322 35.2543 38.0695 35.6034C38.1977 35.7349 38.3554 35.8337 38.5294 35.8917C38.7035 35.9497 38.8889 35.965 39.0701 35.9365C39.6614 35.8927 40.2307 35.6937 40.7209 35.3595C40.7209 32.9799 40.7209 30.5944 40.7209 28.2029C40.7587 27.3689 40.707 26.5333 40.5665 25.7104C40.4972 25.3399 40.3182 24.9989 40.0528 24.7318C39.9133 24.5801 39.7233 24.4938 39.5808 24.3451C41.1603 24.3451 42.7427 24.3451 44.3311 24.3451C44.3311 27.2918 44.3311 30.2375 44.3311 33.1822C44.3128 33.8246 44.3376 34.4675 44.4054 35.1066C44.4357 35.6629 44.6755 36.1869 45.0764 36.573C45.2575 36.7634 45.5128 36.8556 45.6998 37.0371C44.0432 37.0371 42.3865 37.0371 40.7327 37.0371C40.7327 36.6028 40.7327 36.1715 40.7327 35.7372C39.6831 36.4098 38.5153 36.8762 37.2917 37.1114C36.5992 37.254 35.8812 37.2067 35.2134 36.9746C34.9844 36.8694 34.7809 36.7158 34.6169 36.5243C34.4528 36.3327 34.3322 36.1079 34.2633 35.8651C34.161 35.4672 34.1219 35.0557 34.1475 34.6456V27.5367C34.1688 26.8681 34.0938 26.1999 33.9248 25.5527C33.782 25.1467 33.5028 24.8029 33.1351 24.5801C33.012 24.5117 32.8931 24.4362 32.7788 24.354Z" fill="white"/>
<path d="M46.1363 24.354C48.0394 24.354 49.9455 24.354 51.8486 24.354C52.8566 24.3252 53.8618 24.4752 54.8176 24.7972C55.8255 25.1393 56.7077 25.7766 57.3502 26.6265C57.8527 27.3545 58.1725 28.1932 58.2824 29.0715C58.453 30.2503 58.3762 31.4518 58.0568 32.5992C57.7815 33.5526 57.2769 34.4239 56.5871 35.1364C55.8486 35.8295 54.9696 36.355 54.01 36.6771C53.0774 36.9749 52.099 37.1029 51.1212 37.0549C51.139 38.0186 51.0678 38.9913 51.2311 39.9461C51.2751 40.3187 51.4233 40.6713 51.6586 40.9633C51.9097 41.2251 52.1978 41.4486 52.5137 41.6266H46.1274C46.3619 41.4789 46.5879 41.3181 46.8043 41.1448C47.0406 40.9386 47.2136 40.6693 47.3031 40.3684C47.4651 39.7171 47.5361 39.0464 47.5139 38.3755V27.7389C47.5329 27.1009 47.4831 26.4626 47.3654 25.8353C47.3121 25.5253 47.1779 25.2349 46.9765 24.9935C46.7265 24.7433 46.4439 24.5282 46.1363 24.354ZM51.1093 24.705C51.1093 28.6997 51.1093 32.6973 51.1093 36.692C51.6262 36.7241 52.145 36.6901 52.6532 36.5909C53.1887 36.4603 53.6609 36.1442 53.9863 35.6985C54.2224 35.3291 54.3838 34.9167 54.4613 34.485C54.5947 33.791 54.6604 33.0857 54.6573 32.3791C54.6933 30.9296 54.503 29.4834 54.0932 28.0929C53.8274 27.1674 53.3825 26.3032 52.7839 25.5497C52.5863 25.2905 52.3334 25.0788 52.0437 24.9301C51.754 24.7814 51.4347 24.6994 51.1093 24.6901V24.705Z" fill="white"/>
<path d="M70.9897 24.354C72.6197 24.354 74.2556 24.354 75.8796 24.354C76.6625 24.3116 77.4476 24.3605 78.2192 24.4998C78.9101 24.6326 79.5371 24.9927 80.0006 25.523C80.429 26.1319 80.691 26.8425 80.7606 27.5843C79.7452 28.1375 78.7358 28.7027 77.7204 29.2559C77.774 28.359 77.7091 27.4588 77.5274 26.5789C77.3819 26.0108 77.2157 25.4099 76.7911 24.9846C76.5727 24.7693 76.278 24.6495 75.9716 24.6515C75.9716 27.5644 75.9716 30.4774 75.9716 33.3904C75.9288 34.1953 75.9987 35.0023 76.1795 35.7878C76.3076 36.1929 76.5734 36.5402 76.9306 36.7694C77.0735 36.8519 77.2104 36.9443 77.3404 37.046C75.2264 37.046 73.1135 37.046 71.0016 37.046C71.0671 36.9842 71.1411 36.9321 71.2213 36.8913C71.5402 36.7153 71.8098 36.4616 72.0051 36.1536C72.1138 35.957 72.19 35.7441 72.2307 35.5231C72.3558 34.7865 72.4025 34.0387 72.3703 33.2922C72.3703 31.3807 72.3703 29.4671 72.3703 27.5515C72.393 26.8848 72.318 26.2184 72.1476 25.5735C72.0149 25.1844 71.7543 24.8519 71.4083 24.6306C71.2616 24.5498 71.1216 24.4573 70.9897 24.354Z" fill="white"/>
<path d="M109.934 24.354C111.902 24.354 113.871 24.354 115.842 24.354C116.825 24.354 117.867 24.5563 118.636 25.2106C119.304 25.8055 119.571 26.7187 119.69 27.5902C118.675 28.1434 117.665 28.7086 116.653 29.2618C116.742 28.0808 116.591 26.894 116.21 25.7728C116.075 25.3713 115.81 25.0268 115.456 24.7942C115.284 24.7088 115.096 24.6631 114.904 24.6604C114.904 27.5575 114.904 30.4546 114.904 33.3517C114.876 34.0793 114.923 34.8079 115.044 35.526C115.109 35.9445 115.319 36.3266 115.637 36.6057C115.824 36.7872 116.074 36.8853 116.267 37.0549C114.155 37.0549 112.043 37.0549 109.931 37.0549C110.169 36.9004 110.398 36.7326 110.617 36.5522C110.915 36.2697 111.11 35.8945 111.169 35.4874C111.278 34.85 111.322 34.2032 111.3 33.5569V28.6045C111.282 27.6021 111.368 26.5759 111.089 25.5973C110.962 25.1917 110.696 24.8441 110.338 24.6158C110.197 24.5389 110.062 24.4514 109.934 24.354Z" fill="white"/>
</svg>
